M48
; DRILL file KiCad 10.0.6 date 2026-09-25T19:22:18
; FORMAT={-:-/ absolute / metric / decimal}
; #@! TF.CreationDate,2026-09-25T19:22:18+03:00
; #@! TF.GenerationSoftware,Kicad,Pcbnew,10.0.6
; #@! TF.FileFunction,Plated,1,2,PTH
FMAT,2
METRIC
; #@! TA.AperFunction,Plated,PTH,ViaDrill
T1C0.300
; #@! TA.AperFunction,Plated,PTH,ComponentDrill
T2C0.300
; #@! TA.AperFunction,Plated,PTH,ComponentDrill
T3C0.600
; #@! TA.AperFunction,Plated,PTH,ComponentDrill
T4C1.000
%
G90
G05
T1
X103.402Y-125.042
X104.778Y-142.789
X110.299Y-120.061
X112.52Y-121.616
X116.458Y-119.126
X117.528Y-104.306
X118.294Y-110.252
X119.322Y-130.091
X120.24Y-107.669
X121.98Y-145.653
X122.583Y-144.501
X122.6Y-146.85
X124.942Y-110.002
X124.999Y-146.875
X126.876Y-147.735
X127.929Y-147.069
X130.906Y-136.874
X139.435Y-104.667
X143.747Y-139.889
X146.381Y-139.701
T2
X124.86Y-106.85
X124.86Y-107.95
X125.41Y-106.3
X125.41Y-107.4
X125.41Y-108.5
X125.96Y-106.85
X125.96Y-107.95
X126.51Y-106.3
X126.51Y-107.4
X126.51Y-108.5
X127.06Y-106.85
X127.06Y-107.95
T4
X146.0Y-106.2
X146.0Y-108.74
X146.0Y-111.28
X146.0Y-113.82
X146.0Y-116.36
X146.0Y-118.9
X146.0Y-121.44
X146.0Y-123.98
T3
X120.68Y-148.845G85X120.68Y-149.945
G05
X120.68Y-153.175G85X120.68Y-153.975
G05
X129.32Y-148.845G85X129.32Y-149.945
G05
X129.32Y-153.175G85X129.32Y-153.975
G05
M30
