%TF.GenerationSoftware,KiCad,Pcbnew,10.0.6*%
%TF.CreationDate,2026-09-25T19:22:17+03:00*%
%TF.ProjectId,hava_routed,68617661-5f72-46f7-9574-65642e6b6963,rev?*%
%TF.SameCoordinates,Original*%
%TF.FileFunction,Copper,L1,Top*%
%TF.FilePolarity,Positive*%
%FSLAX46Y46*%
G04 Gerber Fmt 4.6, Leading zero omitted, Abs format (unit mm)*
G04 Created by KiCad (PCBNEW 10.0.6) date 2026-09-25 19:22:17*
%MOMM*%
%LPD*%
G01*
G04 APERTURE LIST*
G04 Aperture macros list*
%AMRoundRect*
0 Rectangle with rounded corners*
0 $1 Rounding radius*
0 $2 $3 $4 $5 $6 $7 $8 $9 X,Y pos of 4 corners*
0 Add a 4 corners polygon primitive as box body*
4,1,4,$2,$3,$4,$5,$6,$7,$8,$9,$2,$3,0*
0 Add four circle primitives for the rounded corners*
1,1,$1+$1,$2,$3*
1,1,$1+$1,$4,$5*
1,1,$1+$1,$6,$7*
1,1,$1+$1,$8,$9*
0 Add four rect primitives between the rounded corners*
20,1,$1+$1,$2,$3,$4,$5,0*
20,1,$1+$1,$4,$5,$6,$7,0*
20,1,$1+$1,$6,$7,$8,$9,0*
20,1,$1+$1,$8,$9,$2,$3,0*%
G04 Aperture macros list end*
%TA.AperFunction,SMDPad,CuDef*%
%ADD10RoundRect,0.135000X-0.135000X-0.185000X0.135000X-0.185000X0.135000X0.185000X-0.135000X0.185000X0*%
%TD*%
%TA.AperFunction,SMDPad,CuDef*%
%ADD11RoundRect,0.250000X-0.250000X-0.475000X0.250000X-0.475000X0.250000X0.475000X-0.250000X0.475000X0*%
%TD*%
%TA.AperFunction,SMDPad,CuDef*%
%ADD12R,1.500000X0.900000*%
%TD*%
%TA.AperFunction,HeatsinkPad*%
%ADD13C,0.600000*%
%TD*%
%TA.AperFunction,HeatsinkPad*%
%ADD14R,2.900000X2.900000*%
%TD*%
%TA.AperFunction,SMDPad,CuDef*%
%ADD15R,0.350000X0.500000*%
%TD*%
%TA.AperFunction,SMDPad,CuDef*%
%ADD16RoundRect,0.140000X-0.140000X-0.170000X0.140000X-0.170000X0.140000X0.170000X-0.140000X0.170000X0*%
%TD*%
%TA.AperFunction,SMDPad,CuDef*%
%ADD17R,0.900000X1.700000*%
%TD*%
%TA.AperFunction,SMDPad,CuDef*%
%ADD18RoundRect,0.150000X-0.512500X-0.150000X0.512500X-0.150000X0.512500X0.150000X-0.512500X0.150000X0*%
%TD*%
%TA.AperFunction,SMDPad,CuDef*%
%ADD19RoundRect,0.150000X-0.150000X-0.425000X0.150000X-0.425000X0.150000X0.425000X-0.150000X0.425000X0*%
%TD*%
%TA.AperFunction,SMDPad,CuDef*%
%ADD20RoundRect,0.075000X-0.075000X-0.500000X0.075000X-0.500000X0.075000X0.500000X-0.075000X0.500000X0*%
%TD*%
%TA.AperFunction,ComponentPad*%
%ADD21O,1.000000X2.100000*%
%TD*%
%TA.AperFunction,ComponentPad*%
%ADD22O,1.000000X1.800000*%
%TD*%
%TA.AperFunction,SMDPad,CuDef*%
%ADD23RoundRect,0.218750X-0.218750X-0.256250X0.218750X-0.256250X0.218750X0.256250X-0.218750X0.256250X0*%
%TD*%
%TA.AperFunction,ComponentPad*%
%ADD24R,1.700000X1.700000*%
%TD*%
%TA.AperFunction,ComponentPad*%
%ADD25C,1.700000*%
%TD*%
%TA.AperFunction,ViaPad*%
%ADD26C,0.600000*%
%TD*%
%TA.AperFunction,Conductor*%
%ADD27C,0.250000*%
%TD*%
G04 APERTURE END LIST*
D10*
%TO.P,R3,1*%
%TO.N,+3V3*%
X109490000Y-123200000D03*
%TO.P,R3,2*%
%TO.N,EN*%
X110510000Y-123200000D03*
%TD*%
D11*
%TO.P,C1,1*%
%TO.N,+5V*%
X112050000Y-146200000D03*
%TO.P,C1,2*%
%TO.N,GND*%
X113950000Y-146200000D03*
%TD*%
D12*
%TO.P,U1,1*%
%TO.N,+3V3*%
X116250000Y-101200000D03*
%TO.P,U1,2*%
%TO.N,EN*%
X116250000Y-102700000D03*
%TO.P,U1,3*%
%TO.N,I2C_SDA*%
X116250000Y-104200000D03*
%TO.P,U1,4*%
%TO.N,I2C_SCL*%
X116250000Y-105700000D03*
%TO.P,U1,5*%
%TO.N,LCD_SCK*%
X116250000Y-107200000D03*
%TO.P,U1,6*%
%TO.N,LCD_MOSI*%
X116250000Y-108700000D03*
%TO.P,U1,7*%
%TO.N,N/C*%
X116250000Y-110200000D03*
%TO.P,U1,8*%
%TO.N,BOOT*%
X116250000Y-111700000D03*
%TO.P,U1,9*%
%TO.N,GND*%
X116250000Y-113200000D03*
%TO.P,U1,10*%
%TO.N,LCD_DC*%
X133750000Y-113200000D03*
%TO.P,U1,11*%
%TO.N,LED_IO*%
X133750000Y-111700000D03*
%TO.P,U1,12*%
%TO.N,BTN_IO*%
X133750000Y-110200000D03*
%TO.P,U1,13*%
%TO.N,USB_DM*%
X133750000Y-108700000D03*
%TO.P,U1,14*%
%TO.N,USB_DP*%
X133750000Y-107200000D03*
%TO.P,U1,15*%
%TO.N,LCD_CS*%
X133750000Y-105700000D03*
%TO.P,U1,16*%
%TO.N,N/C*%
X133750000Y-104200000D03*
%TO.P,U1,17*%
%TO.N,LCD_RST*%
X133750000Y-102700000D03*
%TO.P,U1,18*%
%TO.N,LCD_BL*%
X133750000Y-101200000D03*
D13*
%TO.P,U1,19*%
%TO.N,GND*%
X124860000Y-106850000D03*
X124860000Y-107950000D03*
X125410000Y-106300000D03*
X125410000Y-107400000D03*
X125410000Y-108500000D03*
X125960000Y-106850000D03*
D14*
X125960000Y-107400000D03*
D13*
X125960000Y-107950000D03*
X126510000Y-106300000D03*
X126510000Y-107400000D03*
X126510000Y-108500000D03*
X127060000Y-106850000D03*
X127060000Y-107950000D03*
%TD*%
D11*
%TO.P,C3,1*%
%TO.N,+3V3*%
X109050000Y-127200000D03*
%TO.P,C3,2*%
%TO.N,GND*%
X110950000Y-127200000D03*
%TD*%
D15*
%TO.P,U3,1*%
%TO.N,GND*%
X141025000Y-140175000D03*
%TO.P,U3,2*%
%TO.N,+3V3*%
X141675000Y-140175000D03*
%TO.P,U3,3*%
%TO.N,I2C_SDA*%
X142325000Y-140175000D03*
%TO.P,U3,4*%
%TO.N,I2C_SCL*%
X142975000Y-140175000D03*
%TO.P,U3,5*%
%TO.N,GND*%
X142975000Y-142225000D03*
%TO.P,U3,6*%
%TO.N,+3V3*%
X142325000Y-142225000D03*
%TO.P,U3,7*%
%TO.N,GND*%
X141675000Y-142225000D03*
%TO.P,U3,8*%
%TO.N,+3V3*%
X141025000Y-142225000D03*
%TD*%
D16*
%TO.P,C5,1*%
%TO.N,EN*%
X112520000Y-123200000D03*
%TO.P,C5,2*%
%TO.N,GND*%
X113480000Y-123200000D03*
%TD*%
D17*
%TO.P,SW2,1*%
%TO.N,BOOT*%
X103300000Y-136200000D03*
%TO.P,SW2,2*%
%TO.N,GND*%
X106700000Y-136200000D03*
%TD*%
D10*
%TO.P,R6,1*%
%TO.N,+3V3*%
X145490000Y-140700000D03*
%TO.P,R6,2*%
%TO.N,I2C_SCL*%
X146510000Y-140700000D03*
%TD*%
D17*
%TO.P,SW1,1*%
%TO.N,EN*%
X103300000Y-130200000D03*
%TO.P,SW1,2*%
%TO.N,GND*%
X106700000Y-130200000D03*
%TD*%
D18*
%TO.P,U4,1*%
%TO.N,USB_DP*%
X123862500Y-144250000D03*
%TO.P,U4,2*%
%TO.N,GND*%
X123862500Y-145200000D03*
%TO.P,U4,3*%
%TO.N,USB_DM*%
X123862500Y-146150000D03*
%TO.P,U4,4*%
X126137500Y-146150000D03*
%TO.P,U4,5*%
%TO.N,+5V*%
X126137500Y-145200000D03*
%TO.P,U4,6*%
%TO.N,USB_DP*%
X126137500Y-144250000D03*
%TD*%
D17*
%TO.P,SW3,1*%
%TO.N,BTN_IO*%
X103300000Y-142200000D03*
%TO.P,SW3,2*%
%TO.N,GND*%
X106700000Y-142200000D03*
%TD*%
D19*
%TO.P,J1,A1*%
%TO.N,GND*%
X121800000Y-148820000D03*
%TO.P,J1,A4*%
%TO.N,+5V*%
X122600000Y-148820000D03*
D20*
%TO.P,J1,A5*%
%TO.N,N$1*%
X123750000Y-148820000D03*
%TO.P,J1,A6*%
%TO.N,USB_DP*%
X124750000Y-148820000D03*
%TO.P,J1,A7*%
%TO.N,USB_DM*%
X125250000Y-148820000D03*
%TO.P,J1,A8*%
%TO.N,N/C*%
X126250000Y-148820000D03*
D19*
%TO.P,J1,A9*%
%TO.N,+5V*%
X127400000Y-148820000D03*
%TO.P,J1,A12*%
%TO.N,GND*%
X128200000Y-148820000D03*
%TO.P,J1,B1*%
X128200000Y-148820000D03*
%TO.P,J1,B4*%
%TO.N,+5V*%
X127400000Y-148820000D03*
D20*
%TO.P,J1,B5*%
%TO.N,N$2*%
X126750000Y-148820000D03*
%TO.P,J1,B6*%
%TO.N,USB_DP*%
X125750000Y-148820000D03*
%TO.P,J1,B7*%
%TO.N,USB_DM*%
X124250000Y-148820000D03*
%TO.P,J1,B8*%
%TO.N,N/C*%
X123250000Y-148820000D03*
D19*
%TO.P,J1,B9*%
%TO.N,+5V*%
X122600000Y-148820000D03*
%TO.P,J1,B12*%
%TO.N,GND*%
X121800000Y-148820000D03*
D21*
%TO.P,J1,SH*%
X120680000Y-149395000D03*
D22*
X120680000Y-153575000D03*
D21*
X129320000Y-149395000D03*
D22*
X129320000Y-153575000D03*
%TD*%
D10*
%TO.P,R4,1*%
%TO.N,+3V3*%
X109490000Y-119200000D03*
%TO.P,R4,2*%
%TO.N,BOOT*%
X110510000Y-119200000D03*
%TD*%
%TO.P,R5,1*%
%TO.N,+3V3*%
X145490000Y-138200000D03*
%TO.P,R5,2*%
%TO.N,I2C_SDA*%
X146510000Y-138200000D03*
%TD*%
D23*
%TO.P,D1,1*%
%TO.N,GND*%
X143212500Y-127200000D03*
%TO.P,D1,2*%
%TO.N,N$3*%
X144787500Y-127200000D03*
%TD*%
D10*
%TO.P,R2,1*%
%TO.N,N$2*%
X134490000Y-149200000D03*
%TO.P,R2,2*%
%TO.N,GND*%
X135510000Y-149200000D03*
%TD*%
D24*
%TO.P,J2,1*%
%TO.N,GND*%
X146000000Y-106200000D03*
D25*
%TO.P,J2,2*%
%TO.N,+3V3*%
X146000000Y-108740000D03*
%TO.P,J2,3*%
%TO.N,LCD_SCK*%
X146000000Y-111280000D03*
%TO.P,J2,4*%
%TO.N,LCD_MOSI*%
X146000000Y-113820000D03*
%TO.P,J2,5*%
%TO.N,LCD_RST*%
X146000000Y-116360000D03*
%TO.P,J2,6*%
%TO.N,LCD_DC*%
X146000000Y-118900000D03*
%TO.P,J2,7*%
%TO.N,LCD_CS*%
X146000000Y-121440000D03*
%TO.P,J2,8*%
%TO.N,LCD_BL*%
X146000000Y-123980000D03*
%TD*%
D10*
%TO.P,R1,1*%
%TO.N,N$1*%
X131490000Y-149200000D03*
%TO.P,R1,2*%
%TO.N,GND*%
X132510000Y-149200000D03*
%TD*%
%TO.P,R7,1*%
%TO.N,LED_IO*%
X139490000Y-127200000D03*
%TO.P,R7,2*%
%TO.N,N$3*%
X140510000Y-127200000D03*
%TD*%
D11*
%TO.P,C2,1*%
%TO.N,+3V3*%
X117050000Y-141200000D03*
%TO.P,C2,2*%
%TO.N,GND*%
X118950000Y-141200000D03*
%TD*%
D18*
%TO.P,U2,1*%
%TO.N,+5V*%
X111862500Y-140250000D03*
%TO.P,U2,2*%
%TO.N,GND*%
X111862500Y-141200000D03*
%TO.P,U2,3*%
%TO.N,+5V*%
X111862500Y-142150000D03*
%TO.P,U2,4*%
%TO.N,N/C*%
X114137500Y-142150000D03*
%TO.P,U2,5*%
%TO.N,+3V3*%
X114137500Y-140250000D03*
%TD*%
D16*
%TO.P,C4,1*%
%TO.N,+3V3*%
X112520000Y-127200000D03*
%TO.P,C4,2*%
%TO.N,GND*%
X113480000Y-127200000D03*
%TD*%
%TO.P,C6,1*%
%TO.N,+3V3*%
X141520000Y-145200000D03*
%TO.P,C6,2*%
%TO.N,GND*%
X142480000Y-145200000D03*
%TD*%
D26*
%TO.N,+3V3*%
X124941700Y-110002500D03*
%TO.N,EN*%
X112520000Y-121615900D03*
X103402400Y-125042000D03*
%TO.N,+5V*%
X124999300Y-146874900D03*
X122600000Y-146849500D03*
X127929500Y-147068800D03*
%TO.N,GND*%
X121979900Y-145652600D03*
%TO.N,I2C_SDA*%
X117528200Y-104306200D03*
X139435400Y-104666800D03*
%TO.N,I2C_SCL*%
X146381500Y-139700900D03*
X119322400Y-130090900D03*
X143747200Y-139889300D03*
%TO.N,LCD_SCK*%
X120240100Y-107669300D03*
%TO.N,LCD_MOSI*%
X118293800Y-110252500D03*
%TO.N,BOOT*%
X110298600Y-120061200D03*
X116458200Y-119126200D03*
%TO.N,BTN_IO*%
X130906500Y-136873600D03*
X104778000Y-142789400D03*
%TO.N,USB_DP*%
X122583400Y-144501300D03*
X126876000Y-147735300D03*
%TD*%
%TO.N,+3V3*%
D27*
X117326700Y-102387500D02*
X124941700Y-110002500D01*
X148574000Y-112671300D02*
X148320800Y-112418100D01*
X141025000Y-141401700D02*
X141675000Y-140751700D01*
X142325000Y-144312900D02*
X142325000Y-142225000D01*
X148574000Y-137124600D02*
X148574000Y-112671300D01*
X109490000Y-119200000D02*
X109490000Y-120688000D01*
X109490000Y-120688000D02*
X109490000Y-123200000D01*
X117326700Y-101200000D02*
X117326700Y-102387500D01*
X141520000Y-145200000D02*
X141520000Y-145117900D01*
X110124700Y-128274700D02*
X109050000Y-127200000D01*
X116250000Y-101200000D02*
X115173300Y-101200000D01*
X145490000Y-138200000D02*
X145490000Y-138897300D01*
X148133700Y-112231000D02*
X148133700Y-110873700D01*
X111445300Y-128274700D02*
X114137500Y-130966900D01*
X148320800Y-112418100D02*
X148133700Y-112231000D01*
X148320800Y-112418100D02*
X148133700Y-112231000D01*
X142325000Y-141401700D02*
X141675000Y-140751700D01*
X116100000Y-140250000D02*
X117050000Y-141200000D01*
X115173300Y-101200000D02*
X111107200Y-105266100D01*
X114137500Y-140250000D02*
X116100000Y-140250000D01*
X146801300Y-138897300D02*
X148574000Y-137124600D01*
X112520000Y-127200000D02*
X111445300Y-128274700D01*
X111107200Y-120145000D02*
X110564200Y-120688000D01*
X148133700Y-110873700D02*
X146000000Y-108740000D01*
X111107200Y-105266100D02*
X111107200Y-120145000D01*
X116788400Y-101200000D02*
X117326700Y-101200000D01*
X145490000Y-140700000D02*
X144788300Y-141401700D01*
X141520000Y-145117900D02*
X142325000Y-144312900D01*
X141675000Y-140175000D02*
X141675000Y-140751700D01*
X142325000Y-142225000D02*
X142325000Y-141401700D01*
X145490000Y-138897300D02*
X145490000Y-140700000D01*
X114137500Y-130966900D02*
X114137500Y-140250000D01*
X116788400Y-101200000D02*
X116250000Y-101200000D01*
X145490000Y-138897300D02*
X146801300Y-138897300D01*
X109050000Y-127200000D02*
X109050000Y-123640000D01*
X111445300Y-128274700D02*
X110124700Y-128274700D01*
X110564200Y-120688000D02*
X109490000Y-120688000D01*
X144788300Y-141401700D02*
X142325000Y-141401700D01*
X141025000Y-142225000D02*
X141025000Y-141401700D01*
X109050000Y-123640000D02*
X109490000Y-123200000D01*
%TO.N,EN*%
X112520000Y-123200000D02*
X110510000Y-123200000D01*
X112520000Y-121615900D02*
X112520000Y-105353300D01*
X103300000Y-130200000D02*
X103402400Y-130097600D01*
X112520000Y-123200000D02*
X112520000Y-121615900D01*
X116250000Y-102700000D02*
X115173300Y-102700000D01*
X112520000Y-105353300D02*
X115173300Y-102700000D01*
X103402400Y-130097600D02*
X103402400Y-125042000D01*
%TO.N,+5V*%
X124999300Y-146873700D02*
X124999300Y-146874900D01*
X112250900Y-142150000D02*
X111862500Y-142150000D01*
X125000500Y-146873700D02*
X124999300Y-146873700D01*
X125000500Y-145948500D02*
X125749000Y-145200000D01*
X112050000Y-142337500D02*
X112050000Y-146200000D01*
X111862500Y-142150000D02*
X112050000Y-142337500D01*
X125000500Y-146874900D02*
X125000500Y-146873800D01*
X125000500Y-146873700D02*
X125000500Y-145948500D01*
X112271300Y-140250000D02*
X112882500Y-140861200D01*
X127400000Y-148820000D02*
X127502700Y-148717300D01*
X112882500Y-141518400D02*
X112250900Y-142150000D01*
X111862500Y-140250000D02*
X112271300Y-140250000D01*
X115444200Y-141518400D02*
X120775300Y-146849500D01*
X125000500Y-146873800D02*
X125000500Y-146873700D01*
X127929400Y-147068800D02*
X127929500Y-147068800D01*
X112882500Y-140861200D02*
X112882500Y-141518400D01*
X127502700Y-147495600D02*
X127929500Y-147068800D01*
X120775300Y-146849500D02*
X122600000Y-146849500D01*
X127502700Y-148717300D02*
X127502700Y-147495600D01*
X122600000Y-146849500D02*
X122600000Y-148820000D01*
X125749000Y-145200000D02*
X126137500Y-145200000D01*
X127929500Y-147068800D02*
X127929400Y-147068800D01*
X112882500Y-141518400D02*
X115444200Y-141518400D01*
%TO.N,GND*%
X111413200Y-141200000D02*
X111862500Y-141200000D01*
X141025000Y-129387500D02*
X141025000Y-140175000D01*
X141142600Y-144562800D02*
X140912800Y-144792600D01*
X122323900Y-145200000D02*
X123862500Y-145200000D01*
X111563200Y-147256700D02*
X110851700Y-146545200D01*
X113480000Y-123200000D02*
X115173300Y-121506700D01*
X125960000Y-106850000D02*
X125960000Y-107400000D01*
X143212500Y-127200000D02*
X141025000Y-129387500D01*
X113480000Y-126512500D02*
X111637500Y-126512500D01*
X128200000Y-148820000D02*
X128745000Y-148820000D01*
X119274700Y-146613000D02*
X120680000Y-148018300D01*
X121800000Y-148719700D02*
X121800000Y-148820000D01*
X113950000Y-146613000D02*
X113306300Y-147256700D01*
X141675000Y-144324000D02*
X141436300Y-144562700D01*
X142975000Y-142225000D02*
X142975000Y-144705000D01*
X120680000Y-149395000D02*
X120680000Y-148018300D01*
X125410000Y-108500000D02*
X125410000Y-107400000D01*
X126510000Y-106300000D02*
X126510000Y-107400000D01*
X135510000Y-149200000D02*
X134826800Y-149883200D01*
X106700000Y-142200000D02*
X106700000Y-136200000D01*
X110851700Y-141761500D02*
X111413200Y-141200000D01*
X124860000Y-107950000D02*
X124860000Y-106850000D01*
X140523300Y-143943500D02*
X140644900Y-144065100D01*
X127060000Y-107950000D02*
X127060000Y-106850000D01*
X118950000Y-141826100D02*
X122323900Y-145200000D01*
X126510000Y-109399900D02*
X126510000Y-108500000D01*
X140644900Y-144065100D02*
X141142600Y-144562800D01*
X125960000Y-107950000D02*
X125960000Y-107400000D01*
X129490500Y-152348300D02*
X132510000Y-149328800D01*
X110851700Y-146545200D02*
X110851700Y-142200000D01*
X110851700Y-142200000D02*
X110851700Y-141761500D01*
X121979900Y-145652600D02*
X122323900Y-145308600D01*
X113480000Y-126512500D02*
X113480000Y-127200000D01*
X141675000Y-142225000D02*
X141675000Y-144324000D01*
X141436300Y-144562700D02*
X141436300Y-144562800D01*
X141950300Y-145870800D02*
X142480000Y-145341100D01*
X134826800Y-149883200D02*
X133193200Y-149883200D01*
X141120200Y-145870800D02*
X141950300Y-145870800D01*
X129320000Y-153575000D02*
X129320000Y-152348300D01*
X121098600Y-148018300D02*
X121800000Y-148719700D01*
X128745000Y-148820000D02*
X129320000Y-149395000D01*
X116250000Y-113200000D02*
X115173300Y-113200000D01*
X110851700Y-142200000D02*
X106700000Y-142200000D01*
X140523300Y-140175000D02*
X140523300Y-143943500D01*
X133193200Y-149883200D02*
X132510000Y-149200000D01*
X142975000Y-144705000D02*
X142480000Y-145200000D01*
X140912800Y-144792600D02*
X140912800Y-145663400D01*
X132510000Y-149328800D02*
X132510000Y-149200000D01*
X111637500Y-126512500D02*
X110950000Y-127200000D01*
X118950000Y-132670000D02*
X118662200Y-132382200D01*
X121979900Y-145652600D02*
X122323900Y-145652600D01*
X106700000Y-130200000D02*
X106700000Y-136200000D01*
X129320000Y-152348300D02*
X129490500Y-152348300D01*
X140644900Y-144065100D02*
X135510000Y-149200000D01*
X118662200Y-132382200D02*
X125507400Y-125537000D01*
X125507400Y-110402500D02*
X126510000Y-109399900D01*
X120680000Y-148018300D02*
X121098600Y-148018300D01*
X113480000Y-123200000D02*
X113480000Y-126512500D01*
X113950000Y-146613000D02*
X119274700Y-146613000D01*
X122323900Y-145652600D02*
X121979900Y-145652600D01*
X113480000Y-127200000D02*
X118662200Y-132382200D01*
X141436300Y-144562800D02*
X141142600Y-144562800D01*
X113950000Y-146200000D02*
X113950000Y-146613000D01*
X118950000Y-141200000D02*
X118950000Y-141826100D01*
X140912800Y-145663400D02*
X141120200Y-145870800D01*
X125507400Y-125537000D02*
X125507400Y-110402500D01*
X120680000Y-153575000D02*
X120680000Y-149395000D01*
X113306300Y-147256700D02*
X111563200Y-147256700D01*
X141025000Y-140175000D02*
X140523300Y-140175000D01*
X122323900Y-145308600D02*
X122323900Y-145200000D01*
X118950000Y-141200000D02*
X118950000Y-132670000D01*
X115173300Y-121506700D02*
X115173300Y-113200000D01*
X142480000Y-145341100D02*
X142480000Y-145200000D01*
%TO.N,I2C_SDA*%
X146312300Y-112456700D02*
X148100000Y-114244400D01*
X144403500Y-137519800D02*
X142325000Y-139598300D01*
X139435400Y-104666800D02*
X139435400Y-106452700D01*
X117432900Y-104306200D02*
X117326700Y-104200000D01*
X142325000Y-139599800D02*
X142325000Y-139598300D01*
X116250000Y-104200000D02*
X117326700Y-104200000D01*
X145439400Y-112456700D02*
X146312300Y-112456700D01*
X148100000Y-135249600D02*
X145829800Y-137519800D01*
X148100000Y-114244400D02*
X148100000Y-135249600D01*
X145829800Y-137519800D02*
X144403500Y-137519800D01*
X142325000Y-140175000D02*
X142325000Y-139711600D01*
X117528200Y-104306200D02*
X117432900Y-104306200D01*
X142325000Y-139711600D02*
X142325000Y-139599800D01*
X146510000Y-138200000D02*
X145829800Y-137519800D01*
X139435400Y-106452700D02*
X145439400Y-112456700D01*
%TO.N,I2C_SCL*%
X143747200Y-139889300D02*
X143476700Y-140159800D01*
X117326700Y-105700000D02*
X119441400Y-107814700D01*
X143476700Y-140159800D02*
X143476700Y-140175000D01*
X142975000Y-140175000D02*
X143476700Y-140175000D01*
X119441400Y-129971900D02*
X119322400Y-130090900D01*
X119441400Y-107814700D02*
X119441400Y-129971900D01*
X146510000Y-139829400D02*
X146510000Y-140700000D01*
X146381500Y-139700900D02*
X146510000Y-139829400D01*
X116250000Y-105700000D02*
X117326700Y-105700000D01*
%TO.N,LCD_SCK*%
X120240100Y-107669300D02*
X120240100Y-130096800D01*
X118695700Y-130445300D02*
X118695700Y-113502600D01*
X120240100Y-130096800D02*
X119545800Y-130791100D01*
X119041500Y-130791100D02*
X118695700Y-130445300D01*
X118958600Y-113239700D02*
X118958600Y-108831900D01*
X118958600Y-108831900D02*
X117326700Y-107200000D01*
X119545800Y-130791100D02*
X119041500Y-130791100D01*
X118695700Y-113502600D02*
X118958600Y-113239700D01*
X116250000Y-107200000D02*
X117326700Y-107200000D01*
%TO.N,LCD_MOSI*%
X117326700Y-109285400D02*
X117326700Y-108700000D01*
X116250000Y-108700000D02*
X117326700Y-108700000D01*
X118293800Y-110252500D02*
X117326700Y-109285400D01*
%TO.N,BOOT*%
X104076700Y-123555700D02*
X109089400Y-118543000D01*
X109089400Y-118543000D02*
X109853000Y-118543000D01*
X117326700Y-118257700D02*
X117326700Y-111700000D01*
X116250000Y-111700000D02*
X117326700Y-111700000D01*
X110298600Y-119200000D02*
X110510000Y-119200000D01*
X110298600Y-118988600D02*
X110298600Y-119200000D01*
X103300000Y-136200000D02*
X104076700Y-136200000D01*
X110298600Y-120061200D02*
X110298600Y-119200000D01*
X109853000Y-118543000D02*
X110298600Y-118988600D01*
X116458200Y-119126200D02*
X117326700Y-118257700D01*
X104076700Y-136200000D02*
X104076700Y-123555700D01*
%TO.N,LCD_DC*%
X146000000Y-118900000D02*
X140526700Y-118900000D01*
X140526700Y-118900000D02*
X134826700Y-113200000D01*
X133750000Y-113200000D02*
X134826700Y-113200000D01*
%TO.N,LED_IO*%
X139490000Y-127200000D02*
X132673300Y-120383300D01*
X133750000Y-111700000D02*
X132673300Y-111700000D01*
X132673300Y-120383300D02*
X132673300Y-111700000D01*
%TO.N,BTN_IO*%
X130906500Y-136873600D02*
X130906500Y-111966800D01*
X130906500Y-111966800D02*
X132673300Y-110200000D01*
X103300000Y-142200000D02*
X104076700Y-142200000D01*
X133750000Y-110200000D02*
X132673300Y-110200000D01*
X104778000Y-142789400D02*
X104666100Y-142789400D01*
X104666100Y-142789400D02*
X104076700Y-142200000D01*
%TO.N,USB_DM*%
X123862500Y-146150000D02*
X123862500Y-146674800D01*
X126601000Y-146150000D02*
X127571000Y-145180000D01*
X127571000Y-145180000D02*
X127571000Y-113802300D01*
X125260100Y-147501600D02*
X125250000Y-147501600D01*
X123862500Y-146674800D02*
X124689300Y-147501600D01*
X126137500Y-146150000D02*
X126137500Y-146624200D01*
X127571000Y-113802300D02*
X132673300Y-108700000D01*
X124689300Y-147501600D02*
X125250000Y-147501600D01*
X133750000Y-108700000D02*
X132673300Y-108700000D01*
X126137500Y-146150000D02*
X126601000Y-146150000D01*
X125250000Y-148820000D02*
X125250000Y-147501600D01*
X124250000Y-147940900D02*
X124250000Y-148820000D01*
X124689300Y-147501600D02*
X124250000Y-147940900D01*
X126137500Y-146624200D02*
X125260100Y-147501600D01*
%TO.N,USB_DP*%
X123862500Y-144250000D02*
X122834700Y-144250000D01*
X125750000Y-148105300D02*
X125750000Y-148820000D01*
X126137500Y-113735800D02*
X132673300Y-107200000D01*
X126876000Y-147735300D02*
X126782900Y-147735300D01*
X122677600Y-144407100D02*
X122583400Y-144501300D01*
X125519200Y-149761300D02*
X125750000Y-149530500D01*
X126137500Y-144250000D02*
X126137500Y-113735800D01*
X126137500Y-144250000D02*
X123862500Y-144250000D01*
X125024800Y-149761300D02*
X125519200Y-149761300D01*
X122583400Y-144501300D02*
X122677600Y-144407100D01*
X122834700Y-144250000D02*
X122583400Y-144501300D01*
X125750000Y-149530500D02*
X125750000Y-148820000D01*
X124750000Y-148820000D02*
X124750000Y-149486500D01*
X126782900Y-147735300D02*
X126876000Y-147735300D01*
X126876000Y-147735300D02*
X126120000Y-147735300D01*
X126120000Y-147735300D02*
X125750000Y-148105300D01*
X124750000Y-149486500D02*
X125024800Y-149761300D01*
X133750000Y-107200000D02*
X132673300Y-107200000D01*
%TO.N,LCD_CS*%
X147194200Y-118415700D02*
X146408500Y-117630000D01*
X146000000Y-121440000D02*
X147194200Y-120245800D01*
X147194200Y-120245800D02*
X147194200Y-118415700D01*
X141205800Y-112975200D02*
X133930600Y-105700000D01*
X133930600Y-105700000D02*
X133750000Y-105700000D01*
X146408500Y-117630000D02*
X145601800Y-117630000D01*
X145601800Y-117630000D02*
X141205800Y-113234000D01*
X141205800Y-113234000D02*
X141205800Y-112975200D01*
%TO.N,LCD_RST*%
X133750000Y-102700000D02*
X134826700Y-102700000D01*
X134826700Y-105186700D02*
X146000000Y-116360000D01*
X134826700Y-102700000D02*
X134826700Y-105186700D01*
%TO.N,LCD_BL*%
X134826700Y-101200000D02*
X136945100Y-103318400D01*
X147645900Y-116327400D02*
X147645900Y-122334100D01*
X133750000Y-101200000D02*
X134826700Y-101200000D01*
X147645900Y-122334100D02*
X146000000Y-123980000D01*
X136945100Y-106432600D02*
X145509200Y-114996700D01*
X136945100Y-103318400D02*
X136945100Y-106432600D01*
X145509200Y-114996700D02*
X146315200Y-114996700D01*
X146315200Y-114996700D02*
X147645900Y-116327400D01*
%TO.N,N$1*%
X131490000Y-149651700D02*
X131490000Y-149200000D01*
X129886300Y-151255400D02*
X131490000Y-149651700D01*
X123750000Y-148820000D02*
X123750000Y-149497500D01*
X123750000Y-149497500D02*
X125507900Y-151255400D01*
X125507900Y-151255400D02*
X129886300Y-151255400D01*
%TO.N,N$2*%
X127601700Y-150803700D02*
X126750000Y-149952000D01*
X134490000Y-149200000D02*
X133839800Y-148549800D01*
X129631900Y-150803700D02*
X127601700Y-150803700D01*
X133839800Y-148549800D02*
X131123000Y-148549800D01*
X130640300Y-149032500D02*
X130640300Y-149795300D01*
X131123000Y-148549800D02*
X130640300Y-149032500D01*
X130640300Y-149795300D02*
X129631900Y-150803700D01*
X126750000Y-149952000D02*
X126750000Y-148820000D01*
%TO.N,N$3*%
X143939600Y-126352100D02*
X144787500Y-127200000D01*
X140510000Y-127200000D02*
X141357900Y-126352100D01*
X141357900Y-126352100D02*
X143939600Y-126352100D01*
%TD*%
%TA.AperFunction,Conductor*%
%TO.N,GND*%
G36*
X115238411Y-100519407D02*
G01*
X115274375Y-100568907D01*
X115274375Y-100630093D01*
X115266437Y-100646459D01*
X115264033Y-100652263D01*
X115249501Y-100725315D01*
X115249500Y-100725327D01*
X115249500Y-100725500D01*
X115249475Y-100725575D01*
X115249024Y-100730162D01*
X115248017Y-100730062D01*
X115230593Y-100783691D01*
X115181093Y-100819655D01*
X115150500Y-100824500D01*
X115123864Y-100824500D01*
X115076112Y-100837295D01*
X115028362Y-100850089D01*
X114942737Y-100899525D01*
X110876638Y-104965625D01*
X110876637Y-104965624D01*
X110806724Y-105035538D01*
X110757291Y-105121158D01*
X110757290Y-105121161D01*
X110748956Y-105152262D01*
X110733927Y-105208356D01*
X110733925Y-105208362D01*
X110731700Y-105216663D01*
X110731700Y-118530500D01*
X110712793Y-118588691D01*
X110663293Y-118624655D01*
X110632700Y-118629500D01*
X110511545Y-118629500D01*
X110453354Y-118610593D01*
X110441541Y-118600504D01*
X110083563Y-118242526D01*
X110083563Y-118242525D01*
X109997941Y-118193091D01*
X109997937Y-118193089D01*
X109942899Y-118178341D01*
X109942899Y-118178342D01*
X109922667Y-118172921D01*
X109902436Y-118167500D01*
X109902435Y-118167500D01*
X109138836Y-118167500D01*
X109039964Y-118167500D01*
X109019733Y-118172921D01*
X108999501Y-118178342D01*
X108999500Y-118178341D01*
X108944462Y-118193089D01*
X108944458Y-118193091D01*
X108858836Y-118242525D01*
X108858837Y-118242526D01*
X103846138Y-123255225D01*
X103846137Y-123255224D01*
X103776224Y-123325138D01*
X103726789Y-123410761D01*
X103726789Y-123410762D01*
X103726790Y-123410763D01*
X103704976Y-123492176D01*
X103703813Y-123496515D01*
X103703812Y-123496518D01*
X103701200Y-123506264D01*
X103701200Y-124423124D01*
X103682293Y-124481315D01*
X103632793Y-124517279D01*
X103576577Y-124518751D01*
X103524273Y-124504736D01*
X103474875Y-124491500D01*
X103329925Y-124491500D01*
X103268190Y-124508041D01*
X103189910Y-124529017D01*
X103064389Y-124601487D01*
X102961887Y-124703989D01*
X102889417Y-124829510D01*
X102851900Y-124969525D01*
X102851900Y-125114474D01*
X102889417Y-125254489D01*
X102961887Y-125380010D01*
X102961889Y-125380012D01*
X102961891Y-125380015D01*
X102997905Y-125416029D01*
X103025681Y-125470544D01*
X103026900Y-125486031D01*
X103026900Y-129000500D01*
X103007993Y-129058691D01*
X102958493Y-129094655D01*
X102927900Y-129099500D01*
X102825326Y-129099500D01*
X102825325Y-129099500D01*
X102825315Y-129099501D01*
X102752263Y-129114033D01*
X102752257Y-129114035D01*
X102669400Y-129169397D01*
X102669397Y-129169400D01*
X102614035Y-129252257D01*
X102614033Y-129252263D01*
X102599501Y-129325315D01*
X102599500Y-129325327D01*
X102599500Y-131074672D01*
X102599501Y-131074684D01*
X102614033Y-131147736D01*
X102614035Y-131147742D01*
X102669397Y-131230599D01*
X102669399Y-131230601D01*
X102752260Y-131285966D01*
X102807808Y-131297015D01*
X102825315Y-131300498D01*
X102825320Y-131300498D01*
X102825326Y-131300500D01*
X103602200Y-131300500D01*
X103660391Y-131319407D01*
X103696355Y-131368907D01*
X103701200Y-131399500D01*
X103701200Y-135000500D01*
X103682293Y-135058691D01*
X103632793Y-135094655D01*
X103602200Y-135099500D01*
X102825326Y-135099500D01*
X102825325Y-135099500D01*
X102825315Y-135099501D01*
X102752263Y-135114033D01*
X102752257Y-135114035D01*
X102669400Y-135169397D01*
X102669397Y-135169400D01*
X102614035Y-135252257D01*
X102614033Y-135252263D01*
X102599501Y-135325315D01*
X102599500Y-135325327D01*
X102599500Y-137074672D01*
X102599501Y-137074684D01*
X102614033Y-137147736D01*
X102614035Y-137147742D01*
X102669397Y-137230599D01*
X102669399Y-137230601D01*
X102752260Y-137285966D01*
X102807808Y-137297015D01*
X102825315Y-137300498D01*
X102825320Y-137300498D01*
X102825326Y-137300500D01*
X102825327Y-137300500D01*
X103774673Y-137300500D01*
X103774674Y-137300500D01*
X103847740Y-137285966D01*
X103930601Y-137230601D01*
X103985966Y-137147740D01*
X104000500Y-137074674D01*
X104000500Y-136674500D01*
X104019407Y-136616309D01*
X104068907Y-136580345D01*
X104099500Y-136575500D01*
X104126133Y-136575500D01*
X104126135Y-136575500D01*
X104221638Y-136549910D01*
X104221640Y-136549908D01*
X104221642Y-136549908D01*
X104247077Y-136535222D01*
X104307262Y-136500475D01*
X104377175Y-136430562D01*
X104426610Y-136344938D01*
X104452200Y-136249435D01*
X104452200Y-123752245D01*
X104471107Y-123694054D01*
X104481196Y-123682241D01*
X106636826Y-121526611D01*
X108801030Y-119362406D01*
X108855545Y-119334631D01*
X108915977Y-119344202D01*
X108959242Y-119387467D01*
X108968998Y-119418138D01*
X108969500Y-119421582D01*
X108980418Y-119496518D01*
X109036924Y-119612102D01*
X109085505Y-119660683D01*
X109113281Y-119715198D01*
X109114500Y-119730685D01*
X109114500Y-122669314D01*
X109095593Y-122727505D01*
X109085504Y-122739317D01*
X109036925Y-122787896D01*
X109036923Y-122787899D01*
X109029739Y-122802595D01*
X108980418Y-122903482D01*
X108972166Y-122960125D01*
X108969500Y-122978421D01*
X108969500Y-123148455D01*
X108950593Y-123206646D01*
X108940504Y-123218459D01*
X108819438Y-123339525D01*
X108819437Y-123339524D01*
X108749524Y-123409438D01*
X108700091Y-123495058D01*
X108700089Y-123495063D01*
X108697087Y-123506263D01*
X108697088Y-123506264D01*
X108697088Y-123506265D01*
X108678537Y-123575500D01*
X108677171Y-123580599D01*
X108674500Y-123590566D01*
X108674500Y-126168891D01*
X108655593Y-126227082D01*
X108610098Y-126261649D01*
X108557664Y-126281206D01*
X108557663Y-126281207D01*
X108442458Y-126367450D01*
X108442450Y-126367458D01*
X108356202Y-126482670D01*
X108305910Y-126617511D01*
X108305908Y-126617522D01*
X108299500Y-126677129D01*
X108299500Y-127722866D01*
X108299501Y-127722870D01*
X108305908Y-127782480D01*
X108305909Y-127782485D01*
X108356202Y-127917329D01*
X108362319Y-127925500D01*
X108442454Y-128032546D01*
X108442457Y-128032548D01*
X108442458Y-128032549D01*
X108557670Y-128118797D01*
X108692511Y-128169089D01*
X108692512Y-128169089D01*
X108692517Y-128169091D01*
X108752127Y-128175500D01*
X109347872Y-128175499D01*
X109407483Y-128169091D01*
X109407488Y-128169089D01*
X109413507Y-128167667D01*
X109413851Y-128169126D01*
X109467674Y-128166814D01*
X109511154Y-128192191D01*
X109824225Y-128505262D01*
X109824224Y-128505262D01*
X109894138Y-128575175D01*
X109979758Y-128624608D01*
X109979762Y-128624610D01*
X110027512Y-128637405D01*
X110027513Y-128637405D01*
X110075264Y-128650200D01*
X110075265Y-128650200D01*
X111248755Y-128650200D01*
X111306946Y-128669107D01*
X111318759Y-128679196D01*
X113733004Y-131093441D01*
X113760781Y-131147958D01*
X113762000Y-131163445D01*
X113762000Y-139600500D01*
X113743093Y-139658691D01*
X113693593Y-139694655D01*
X113663001Y-139699500D01*
X113593479Y-139699500D01*
X113593476Y-139699501D01*
X113499700Y-139714352D01*
X113499695Y-139714354D01*
X113386659Y-139771949D01*
X113296949Y-139861659D01*
X113239354Y-139974695D01*
X113224500Y-140068478D01*
X113224500Y-140433155D01*
X113205593Y-140491346D01*
X113156093Y-140527310D01*
X113094907Y-140527310D01*
X113055496Y-140503159D01*
X112804495Y-140252158D01*
X112776718Y-140197641D01*
X112775499Y-140182154D01*
X112775499Y-140068478D01*
X112775498Y-140068476D01*
X112760647Y-139974700D01*
X112760646Y-139974698D01*
X112760646Y-139974696D01*
X112703050Y-139861658D01*
X112613342Y-139771950D01*
X112500304Y-139714354D01*
X112500305Y-139714354D01*
X112406521Y-139699500D01*
X111318478Y-139699500D01*
X111318476Y-139699501D01*
X111224700Y-139714352D01*
X111224695Y-139714354D01*
X111111659Y-139771949D01*
X111021949Y-139861659D01*
X110964354Y-139974695D01*
X110949500Y-140068477D01*
X110949500Y-140431520D01*
X110949501Y-140431523D01*
X110964352Y-140525299D01*
X110964354Y-140525304D01*
X111021950Y-140638342D01*
X111111658Y-140728050D01*
X111224696Y-140785646D01*
X111318481Y-140800500D01*
X112249754Y-140800499D01*
X112307945Y-140819406D01*
X112319758Y-140829495D01*
X112478004Y-140987741D01*
X112505781Y-141042258D01*
X112507000Y-141057745D01*
X112507000Y-141321855D01*
X112488093Y-141380046D01*
X112478004Y-141391858D01*
X112299357Y-141570504D01*
X112244842Y-141598281D01*
X112229355Y-141599500D01*
X111318478Y-141599500D01*
X111318476Y-141599501D01*
X111224700Y-141614352D01*
X111224695Y-141614354D01*
X111111659Y-141671949D01*
X111021949Y-141761659D01*
X110964354Y-141874695D01*
X110949500Y-141968477D01*
X110949500Y-142331520D01*
X110949501Y-142331523D01*
X110964352Y-142425299D01*
X110964354Y-142425304D01*
X111021950Y-142538342D01*
X111111658Y-142628050D01*
X111224696Y-142685646D01*
X111318481Y-142700500D01*
X111575500Y-142700499D01*
X111633690Y-142719406D01*
X111669654Y-142768906D01*
X111674500Y-142799499D01*
X111674500Y-145168891D01*
X111655593Y-145227082D01*
X111610098Y-145261649D01*
X111557664Y-145281206D01*
X111557663Y-145281207D01*
X111442458Y-145367450D01*
X111442450Y-145367458D01*
X111356202Y-145482670D01*
X111305910Y-145617511D01*
X111305908Y-145617522D01*
X111299500Y-145677129D01*
X111299500Y-146722866D01*
X111299501Y-146722870D01*
X111305908Y-146782480D01*
X111305909Y-146782485D01*
X111356202Y-146917329D01*
X111415339Y-146996325D01*
X111442454Y-147032546D01*
X111442457Y-147032548D01*
X111442458Y-147032549D01*
X111557670Y-147118797D01*
X111692511Y-147169089D01*
X111692512Y-147169089D01*
X111692517Y-147169091D01*
X111752127Y-147175500D01*
X112347872Y-147175499D01*
X112407483Y-147169091D01*
X112482064Y-147141274D01*
X112542329Y-147118797D01*
X112542329Y-147118796D01*
X112542331Y-147118796D01*
X112657546Y-147032546D01*
X112743796Y-146917331D01*
X112766554Y-146856315D01*
X112794089Y-146782488D01*
X112794090Y-146782485D01*
X112794091Y-146782483D01*
X112800500Y-146722873D01*
X112800499Y-145677128D01*
X112794091Y-145617517D01*
X112792911Y-145614352D01*
X112743797Y-145482670D01*
X112657549Y-145367458D01*
X112657548Y-145367457D01*
X112657546Y-145367454D01*
X112657541Y-145367450D01*
X112542336Y-145281207D01*
X112542335Y-145281206D01*
X112542332Y-145281205D01*
X112542331Y-145281204D01*
X112489901Y-145261648D01*
X112441988Y-145223597D01*
X112425500Y-145168891D01*
X112425500Y-142781879D01*
X112444407Y-142723688D01*
X112493906Y-142687725D01*
X112500299Y-142685647D01*
X112500299Y-142685646D01*
X112500304Y-142685646D01*
X112613342Y-142628050D01*
X112703050Y-142538342D01*
X112760646Y-142425304D01*
X112775500Y-142331519D01*
X112775499Y-142197443D01*
X112794406Y-142139253D01*
X112804489Y-142127446D01*
X113009041Y-141922896D01*
X113063557Y-141895119D01*
X113079044Y-141893900D01*
X113125500Y-141893900D01*
X113183691Y-141912807D01*
X113219655Y-141962307D01*
X113224500Y-141992900D01*
X113224500Y-142331520D01*
X113224501Y-142331523D01*
X113239352Y-142425299D01*
X113239354Y-142425304D01*
X113296950Y-142538342D01*
X113386658Y-142628050D01*
X113499696Y-142685646D01*
X113593481Y-142700500D01*
X114681518Y-142700499D01*
X114681521Y-142700499D01*
X114681522Y-142700498D01*
X114728411Y-142693072D01*
X114775299Y-142685647D01*
X114775299Y-142685646D01*
X114775304Y-142685646D01*
X114888342Y-142628050D01*
X114978050Y-142538342D01*
X115035646Y-142425304D01*
X115050500Y-142331519D01*
X115050499Y-141992899D01*
X115069406Y-141934709D01*
X115118906Y-141898745D01*
X115149499Y-141893900D01*
X115247655Y-141893900D01*
X115305846Y-141912807D01*
X115317659Y-141922896D01*
X120474825Y-147080062D01*
X120474824Y-147080062D01*
X120544738Y-147149975D01*
X120630358Y-147199408D01*
X120630362Y-147199410D01*
X120678112Y-147212205D01*
X120678113Y-147212205D01*
X120725864Y-147225000D01*
X120725865Y-147225000D01*
X122125500Y-147225000D01*
X122183691Y-147243907D01*
X122219655Y-147293407D01*
X122224500Y-147324000D01*
X122224500Y-148013101D01*
X122205593Y-148071292D01*
X122195509Y-148083098D01*
X122145425Y-148133183D01*
X122121949Y-148156659D01*
X122064354Y-148269695D01*
X122049500Y-148363478D01*
X122049500Y-149239443D01*
X122030593Y-149297634D01*
X121981093Y-149333598D01*
X121976124Y-149335069D01*
X121887865Y-149358718D01*
X121887861Y-149358720D01*
X121756639Y-149434481D01*
X121649481Y-149541639D01*
X121573720Y-149672860D01*
X121561876Y-149717063D01*
X121534500Y-149819234D01*
X121534500Y-149970766D01*
X121542718Y-150001435D01*
X121573720Y-150117139D01*
X121649481Y-150248360D01*
X121649483Y-150248362D01*
X121649485Y-150248365D01*
X121756635Y-150355515D01*
X121756637Y-150355516D01*
X121756639Y-150355518D01*
X121887861Y-150431279D01*
X121887859Y-150431279D01*
X121887863Y-150431280D01*
X121887865Y-150431281D01*
X122034234Y-150470500D01*
X122034236Y-150470500D01*
X122185764Y-150470500D01*
X122185766Y-150470500D01*
X122332135Y-150431281D01*
X122332137Y-150431279D01*
X122332139Y-150431279D01*
X122463360Y-150355518D01*
X122463360Y-150355517D01*
X122463365Y-150355515D01*
X122570515Y-150248365D01*
X122628698Y-150147590D01*
X122646279Y-150117139D01*
X122646279Y-150117137D01*
X122646281Y-150117135D01*
X122685500Y-149970766D01*
X122685500Y-149819234D01*
X122672340Y-149770120D01*
X122675543Y-149709021D01*
X122714048Y-149661471D01*
X122767967Y-149645499D01*
X122781521Y-149645499D01*
X122781522Y-149645498D01*
X122828411Y-149638072D01*
X122875299Y-149630647D01*
X122875304Y-149630646D01*
X122925787Y-149604923D01*
X122986219Y-149595351D01*
X123012572Y-149603408D01*
X123089452Y-149639258D01*
X123089453Y-149639258D01*
X123089455Y-149639259D01*
X123136861Y-149645500D01*
X123344699Y-149645499D01*
X123402889Y-149664406D01*
X123430434Y-149694997D01*
X123443174Y-149717062D01*
X123443175Y-149717064D01*
X123449522Y-149728058D01*
X123449523Y-149728059D01*
X123449524Y-149728060D01*
X123449526Y-149728063D01*
X125207425Y-151485962D01*
X125207424Y-151485962D01*
X125277338Y-151555875D01*
X125362958Y-151605308D01*
X125362962Y-151605310D01*
X125410712Y-151618105D01*
X125410713Y-151618105D01*
X125458464Y-151630900D01*
X125458465Y-151630900D01*
X129935736Y-151630900D01*
X129983486Y-151618105D01*
X129983487Y-151618105D01*
X130031234Y-151605311D01*
X130031233Y-151605311D01*
X130031238Y-151605310D01*
X130116862Y-151555875D01*
X130186775Y-151485962D01*
X131790474Y-149882263D01*
X131802173Y-149862000D01*
X131839910Y-149796638D01*
X131861232Y-149717063D01*
X131861232Y-149717062D01*
X131861233Y-149717062D01*
X131861233Y-149717057D01*
X131862830Y-149711096D01*
X131888448Y-149666729D01*
X131943076Y-149612102D01*
X131999582Y-149496518D01*
X132010500Y-149421582D01*
X132010500Y-149024300D01*
X132029407Y-148966109D01*
X132078907Y-148930145D01*
X132109500Y-148925300D01*
X133643255Y-148925300D01*
X133701446Y-148944207D01*
X133713259Y-148954296D01*
X133940504Y-149181541D01*
X133968281Y-149236058D01*
X133969500Y-149251545D01*
X133969500Y-149421582D01*
X133980418Y-149496518D01*
X134036924Y-149612102D01*
X134127898Y-149703076D01*
X134243482Y-149759582D01*
X134318418Y-149770500D01*
X134318421Y-149770500D01*
X134661578Y-149770500D01*
X134661582Y-149770500D01*
X134736518Y-149759582D01*
X134852102Y-149703076D01*
X134943076Y-149612102D01*
X134999582Y-149496518D01*
X135010500Y-149421582D01*
X135010500Y-148978418D01*
X134999582Y-148903482D01*
X134943076Y-148787898D01*
X134852102Y-148696924D01*
X134736518Y-148640418D01*
X134661582Y-148629500D01*
X134661579Y-148629500D01*
X134491545Y-148629500D01*
X134433354Y-148610593D01*
X134421542Y-148600504D01*
X134070363Y-148249326D01*
X134070362Y-148249325D01*
X133984741Y-148199891D01*
X133984734Y-148199888D01*
X133936985Y-148187094D01*
X133936984Y-148187094D01*
X133889238Y-148174300D01*
X133889236Y-148174300D01*
X133889235Y-148174300D01*
X131172436Y-148174300D01*
X131073564Y-148174300D01*
X131025813Y-148187095D01*
X131025812Y-148187094D01*
X130978065Y-148199888D01*
X130978057Y-148199892D01*
X130935250Y-148224605D01*
X130935251Y-148224606D01*
X130892438Y-148249324D01*
X130892437Y-148249324D01*
X130892437Y-148249325D01*
X130409738Y-148732025D01*
X130409737Y-148732024D01*
X130339824Y-148801938D01*
X130290389Y-148887561D01*
X130290389Y-148887562D01*
X130290390Y-148887563D01*
X130280279Y-148925300D01*
X130268453Y-148969434D01*
X130268452Y-148969437D01*
X130264800Y-148983064D01*
X130264800Y-149598755D01*
X130245893Y-149656946D01*
X130235804Y-149668759D01*
X129505359Y-150399204D01*
X129450842Y-150426981D01*
X129435355Y-150428200D01*
X128409687Y-150428200D01*
X128351496Y-150409293D01*
X128315532Y-150359793D01*
X128315532Y-150298607D01*
X128339681Y-150259198D01*
X128350515Y-150248365D01*
X128408698Y-150147590D01*
X128426279Y-150117139D01*
X128426279Y-150117137D01*
X128426281Y-150117135D01*
X128465500Y-149970766D01*
X128465500Y-149819234D01*
X128426281Y-149672865D01*
X128426279Y-149672862D01*
X128426279Y-149672860D01*
X128350518Y-149541639D01*
X128350516Y-149541637D01*
X128350515Y-149541635D01*
X128243365Y-149434485D01*
X128243362Y-149434483D01*
X128243360Y-149434481D01*
X128112138Y-149358720D01*
X128112140Y-149358720D01*
X128081940Y-149350628D01*
X128023874Y-149335069D01*
X127972562Y-149301747D01*
X127950635Y-149244626D01*
X127950499Y-149239480D01*
X127950499Y-148363482D01*
X127950499Y-148363481D01*
X127950499Y-148363478D01*
X127950498Y-148363476D01*
X127935647Y-148269700D01*
X127935646Y-148269697D01*
X127935646Y-148269696D01*
X127888990Y-148178128D01*
X127878200Y-148133183D01*
X127878200Y-147718300D01*
X127897107Y-147660109D01*
X127946607Y-147624145D01*
X127977200Y-147619300D01*
X128001974Y-147619300D01*
X128001975Y-147619300D01*
X128141985Y-147581784D01*
X128141987Y-147581782D01*
X128141989Y-147581782D01*
X128267510Y-147509312D01*
X128267510Y-147509311D01*
X128267515Y-147509309D01*
X128370009Y-147406815D01*
X128413894Y-147330804D01*
X128442482Y-147281289D01*
X128442482Y-147281287D01*
X128442484Y-147281285D01*
X128480000Y-147141275D01*
X128480000Y-146996325D01*
X128442484Y-146856315D01*
X128442482Y-146856312D01*
X128442482Y-146856310D01*
X128370012Y-146730789D01*
X128370010Y-146730787D01*
X128370009Y-146730785D01*
X128267515Y-146628291D01*
X128267512Y-146628289D01*
X128267510Y-146628287D01*
X128141988Y-146555817D01*
X128141989Y-146555817D01*
X128076764Y-146538340D01*
X128001975Y-146518300D01*
X127857025Y-146518300D01*
X127795290Y-146534841D01*
X127717010Y-146555817D01*
X127591489Y-146628287D01*
X127488987Y-146730789D01*
X127416517Y-146856310D01*
X127379000Y-146996325D01*
X127379000Y-147047255D01*
X127360093Y-147105446D01*
X127350004Y-147117259D01*
X127272138Y-147195125D01*
X127272136Y-147195126D01*
X127241391Y-147225870D01*
X127186874Y-147253646D01*
X127126443Y-147244074D01*
X127121890Y-147241602D01*
X127088485Y-147222316D01*
X127088486Y-147222316D01*
X127018480Y-147203558D01*
X126948475Y-147184800D01*
X126803525Y-147184800D01*
X126749008Y-147199408D01*
X126663510Y-147222317D01*
X126537989Y-147294787D01*
X126537983Y-147294792D01*
X126501971Y-147330804D01*
X126447454Y-147358581D01*
X126431968Y-147359800D01*
X126171945Y-147359800D01*
X126113754Y-147340893D01*
X126077790Y-147291393D01*
X126077790Y-147230207D01*
X126101941Y-147190796D01*
X126260196Y-147032541D01*
X126437974Y-146854763D01*
X126447515Y-146838238D01*
X126487410Y-146769138D01*
X126487411Y-146769133D01*
X126489892Y-146763145D01*
X126492423Y-146764193D01*
X126519479Y-146722550D01*
X126576604Y-146700634D01*
X126581767Y-146700499D01*
X126681521Y-146700499D01*
X126681522Y-146700498D01*
X126754202Y-146688988D01*
X126775299Y-146685647D01*
X126775299Y-146685646D01*
X126775304Y-146685646D01*
X126888342Y-146628050D01*
X126978050Y-146538342D01*
X127035646Y-146425304D01*
X127050500Y-146331519D01*
X127050499Y-146272544D01*
X127069405Y-146214355D01*
X127079496Y-146202540D01*
X127871475Y-145410563D01*
X127871474Y-145410563D01*
X127871475Y-145410562D01*
X127920910Y-145324938D01*
X127946500Y-145229435D01*
X127946500Y-113998845D01*
X127965407Y-113940654D01*
X127975496Y-113928841D01*
X130253772Y-111650565D01*
X132635702Y-109268634D01*
X132690217Y-109240859D01*
X132750649Y-109250430D01*
X132788020Y-109283639D01*
X132819397Y-109330599D01*
X132819400Y-109330602D01*
X132874898Y-109367684D01*
X132912778Y-109415734D01*
X132915180Y-109476872D01*
X132881188Y-109527746D01*
X132874898Y-109532316D01*
X132819400Y-109569397D01*
X132819397Y-109569400D01*
X132764035Y-109652257D01*
X132764033Y-109652263D01*
X132749501Y-109725315D01*
X132749500Y-109725327D01*
X132749500Y-109725500D01*
X132749475Y-109725575D01*
X132749024Y-109730162D01*
X132748017Y-109730062D01*
X132730593Y-109783691D01*
X132681093Y-109819655D01*
X132650500Y-109824500D01*
X132623864Y-109824500D01*
X132565413Y-109840161D01*
X132528358Y-109850090D01*
X132442742Y-109899521D01*
X130675938Y-111666325D01*
X130675937Y-111666324D01*
X130606024Y-111736238D01*
X130556591Y-111821857D01*
X130531000Y-111917366D01*
X130531000Y-136429568D01*
X130512093Y-136487759D01*
X130502004Y-136499571D01*
X130465992Y-136535583D01*
X130465987Y-136535589D01*
X130393517Y-136661110D01*
X130356000Y-136801125D01*
X130356000Y-136946074D01*
X130393517Y-137086089D01*
X130465987Y-137211610D01*
X130465989Y-137211612D01*
X130465991Y-137211615D01*
X130568485Y-137314109D01*
X130568487Y-137314110D01*
X130568489Y-137314112D01*
X130694011Y-137386582D01*
X130694012Y-137386582D01*
X130694015Y-137386584D01*
X130834025Y-137424100D01*
X130834026Y-137424100D01*
X130978974Y-137424100D01*
X130978975Y-137424100D01*
X131118985Y-137386584D01*
X131118987Y-137386582D01*
X131118989Y-137386582D01*
X131244510Y-137314112D01*
X131244510Y-137314111D01*
X131244515Y-137314109D01*
X131347009Y-137211615D01*
X131368706Y-137174035D01*
X131419482Y-137086089D01*
X131419482Y-137086087D01*
X131419484Y-137086085D01*
X131457000Y-136946075D01*
X131457000Y-136801125D01*
X131419484Y-136661115D01*
X131419482Y-136661112D01*
X131419482Y-136661110D01*
X131347012Y-136535589D01*
X131347007Y-136535583D01*
X131310996Y-136499571D01*
X131283219Y-136445054D01*
X131282000Y-136429568D01*
X131282000Y-112163345D01*
X131300907Y-112105154D01*
X131310996Y-112093341D01*
X131934899Y-111469438D01*
X132635702Y-110768634D01*
X132690217Y-110740859D01*
X132750649Y-110750430D01*
X132788020Y-110783639D01*
X132819397Y-110830599D01*
X132819400Y-110830602D01*
X132874898Y-110867684D01*
X132912778Y-110915734D01*
X132915180Y-110976872D01*
X132881188Y-111027746D01*
X132874898Y-111032316D01*
X132819400Y-111069397D01*
X132819397Y-111069400D01*
X132764035Y-111152257D01*
X132764033Y-111152263D01*
X132749501Y-111225315D01*
X132749500Y-111225327D01*
X132749500Y-111225500D01*
X132749475Y-111225575D01*
X132749024Y-111230162D01*
X132748017Y-111230062D01*
X132730593Y-111283691D01*
X132681093Y-111319655D01*
X132650500Y-111324500D01*
X132623865Y-111324500D01*
X132565414Y-111340161D01*
X132528357Y-111350091D01*
X132442740Y-111399523D01*
X132372823Y-111469440D01*
X132323391Y-111555057D01*
X132297800Y-111650566D01*
X132297800Y-120432738D01*
X132304418Y-120457435D01*
X132304418Y-120457436D01*
X132304419Y-120457436D01*
X132304419Y-120457437D01*
X132323390Y-120528238D01*
X132323391Y-120528240D01*
X132323392Y-120528243D01*
X132371574Y-120611696D01*
X132372821Y-120613855D01*
X132372826Y-120613863D01*
X138940505Y-127181542D01*
X138968281Y-127236057D01*
X138969500Y-127251544D01*
X138969500Y-127421582D01*
X138980418Y-127496518D01*
X139036924Y-127612102D01*
X139127898Y-127703076D01*
X139243482Y-127759582D01*
X139318418Y-127770500D01*
X139318421Y-127770500D01*
X139661578Y-127770500D01*
X139661582Y-127770500D01*
X139736518Y-127759582D01*
X139852102Y-127703076D01*
X139929998Y-127625179D01*
X139984513Y-127597404D01*
X140044945Y-127606975D01*
X140070000Y-127625178D01*
X140147898Y-127703076D01*
X140263482Y-127759582D01*
X140338418Y-127770500D01*
X140338421Y-127770500D01*
X140681578Y-127770500D01*
X140681582Y-127770500D01*
X140756518Y-127759582D01*
X140872102Y-127703076D01*
X140963076Y-127612102D01*
X141019582Y-127496518D01*
X141030500Y-127421582D01*
X141030500Y-127251544D01*
X141049407Y-127193353D01*
X141059497Y-127181540D01*
X141484442Y-126756596D01*
X141538958Y-126728819D01*
X141554445Y-126727600D01*
X143743055Y-126727600D01*
X143801246Y-126746507D01*
X143813059Y-126756596D01*
X144070504Y-127014041D01*
X144098281Y-127068558D01*
X144099500Y-127084045D01*
X144099500Y-127501126D01*
X144099499Y-127501126D01*
X144105508Y-127557016D01*
X144105510Y-127557027D01*
X144152662Y-127683448D01*
X144217829Y-127770500D01*
X144233528Y-127791472D01*
X144233531Y-127791474D01*
X144341551Y-127872337D01*
X144467972Y-127919489D01*
X144467973Y-127919489D01*
X144467978Y-127919491D01*
X144523870Y-127925500D01*
X144523874Y-127925500D01*
X145051126Y-127925500D01*
X145051130Y-127925500D01*
X145107022Y-127919491D01*
X145164693Y-127897981D01*
X145233448Y-127872337D01*
X145233448Y-127872336D01*
X145233450Y-127872336D01*
X145341472Y-127791472D01*
X145422336Y-127683450D01*
X145469491Y-127557022D01*
X145475500Y-127501130D01*
X145475500Y-126898870D01*
X145469491Y-126842978D01*
X145469489Y-126842972D01*
X145422337Y-126716551D01*
X145348205Y-126617522D01*
X145341472Y-126608528D01*
X145330753Y-126600504D01*
X145233448Y-126527662D01*
X145107027Y-126480510D01*
X145107022Y-126480509D01*
X145107020Y-126480508D01*
X145107016Y-126480508D01*
X145081744Y-126477791D01*
X145051130Y-126474500D01*
X145051126Y-126474500D01*
X144634045Y-126474500D01*
X144575854Y-126455593D01*
X144564041Y-126445504D01*
X144170163Y-126051626D01*
X144170163Y-126051625D01*
X144084541Y-126002191D01*
X144084534Y-126002188D01*
X144036785Y-125989394D01*
X144036784Y-125989394D01*
X143989038Y-125976600D01*
X143989036Y-125976600D01*
X143989035Y-125976600D01*
X141407336Y-125976600D01*
X141308464Y-125976600D01*
X141260712Y-125989395D01*
X141212962Y-126002189D01*
X141127337Y-126051625D01*
X140578459Y-126600504D01*
X140523942Y-126628281D01*
X140508455Y-126629500D01*
X140338418Y-126629500D01*
X140269783Y-126639500D01*
X140263482Y-126640418D01*
X140147899Y-126696923D01*
X140147898Y-126696923D01*
X140147898Y-126696924D01*
X140070001Y-126774820D01*
X140015487Y-126802596D01*
X139955055Y-126793025D01*
X139929999Y-126774821D01*
X139852102Y-126696924D01*
X139736518Y-126640418D01*
X139661582Y-126629500D01*
X139661579Y-126629500D01*
X139491545Y-126629500D01*
X139433354Y-126610593D01*
X139421541Y-126600504D01*
X133077796Y-120256759D01*
X133050019Y-120202242D01*
X133048800Y-120186755D01*
X133048800Y-113999500D01*
X133067707Y-113941309D01*
X133117207Y-113905345D01*
X133147800Y-113900500D01*
X134524673Y-113900500D01*
X134524674Y-113900500D01*
X134597740Y-113885966D01*
X134680601Y-113830601D01*
X134711979Y-113783638D01*
X134760028Y-113745760D01*
X134821166Y-113743356D01*
X134864299Y-113768636D01*
X140226225Y-119130562D01*
X140226224Y-119130562D01*
X140296138Y-119200475D01*
X140381758Y-119249908D01*
X140381762Y-119249910D01*
X140429512Y-119262705D01*
X140429513Y-119262705D01*
X140477264Y-119275500D01*
X140477265Y-119275500D01*
X144895540Y-119275500D01*
X144953731Y-119294407D01*
X144983750Y-119329555D01*
X145058766Y-119476786D01*
X145114451Y-119553430D01*
X145160586Y-119616928D01*
X145283072Y-119739414D01*
X145423212Y-119841232D01*
X145577555Y-119919873D01*
X145577557Y-119919873D01*
X145577558Y-119919874D01*
X145577561Y-119919876D01*
X145742293Y-119973401D01*
X145742297Y-119973402D01*
X145913386Y-120000500D01*
X145913389Y-120000500D01*
X146086614Y-120000500D01*
X146257702Y-119973402D01*
X146257706Y-119973401D01*
X146422438Y-119919876D01*
X146422440Y-119919874D01*
X146422445Y-119919873D01*
X146576788Y-119841232D01*
X146661509Y-119779677D01*
X146719699Y-119760770D01*
X146777890Y-119779677D01*
X146813854Y-119829177D01*
X146818700Y-119859770D01*
X146818700Y-120049254D01*
X146799793Y-120107445D01*
X146789703Y-120119258D01*
X146515451Y-120393509D01*
X146460935Y-120421286D01*
X146414855Y-120417660D01*
X146257698Y-120366597D01*
X146086614Y-120339500D01*
X146086611Y-120339500D01*
X145913389Y-120339500D01*
X145913386Y-120339500D01*
X145742297Y-120366597D01*
X145742293Y-120366598D01*
X145577561Y-120420123D01*
X145577558Y-120420125D01*
X145423214Y-120498766D01*
X145283073Y-120600585D01*
X145160585Y-120723073D01*
X145058766Y-120863214D01*
X144980125Y-121017558D01*
X144980123Y-121017561D01*
X144926598Y-121182293D01*
X144926597Y-121182297D01*
X144899500Y-121353385D01*
X144899500Y-121526614D01*
X144926597Y-121697702D01*
X144926598Y-121697706D01*
X144980123Y-121862438D01*
X144980125Y-121862441D01*
X145051100Y-122001740D01*
X145058768Y-122016788D01*
X145160586Y-122156928D01*
X145283072Y-122279414D01*
X145423212Y-122381232D01*
X145577555Y-122459873D01*
X145577557Y-122459873D01*
X145577558Y-122459874D01*
X145577561Y-122459876D01*
X145742293Y-122513401D01*
X145742297Y-122513402D01*
X145913386Y-122540500D01*
X145913389Y-122540500D01*
X146086614Y-122540500D01*
X146257702Y-122513402D01*
X146257706Y-122513401D01*
X146422438Y-122459876D01*
X146422440Y-122459874D01*
X146422445Y-122459873D01*
X146576788Y-122381232D01*
X146716928Y-122279414D01*
X146839414Y-122156928D01*
X146941232Y-122016788D01*
X147019873Y-121862445D01*
X147019874Y-121862440D01*
X147019876Y-121862438D01*
X147073401Y-121697706D01*
X147073402Y-121697702D01*
X147073619Y-121696334D01*
X147073830Y-121695919D01*
X147074310Y-121693921D01*
X147074789Y-121694036D01*
X147101396Y-121641818D01*
X147155913Y-121614040D01*
X147216345Y-121623611D01*
X147259609Y-121666876D01*
X147270400Y-121711821D01*
X147270400Y-122137554D01*
X147251493Y-122195745D01*
X147241404Y-122207558D01*
X146515452Y-122933509D01*
X146460935Y-122961286D01*
X146414855Y-122957660D01*
X146257698Y-122906597D01*
X146086614Y-122879500D01*
X146086611Y-122879500D01*
X145913389Y-122879500D01*
X145913386Y-122879500D01*
X145742297Y-122906597D01*
X145742293Y-122906598D01*
X145577561Y-122960123D01*
X145577558Y-122960125D01*
X145423214Y-123038766D01*
X145283073Y-123140585D01*
X145160585Y-123263073D01*
X145058766Y-123403214D01*
X144980125Y-123557558D01*
X144980123Y-123557561D01*
X144926598Y-123722293D01*
X144926597Y-123722297D01*
X144899500Y-123893385D01*
X144899500Y-124066614D01*
X144926597Y-124237702D01*
X144926598Y-124237706D01*
X144980123Y-124402438D01*
X144980125Y-124402441D01*
X145044617Y-124529016D01*
X145058768Y-124556788D01*
X145160586Y-124696928D01*
X145283072Y-124819414D01*
X145423212Y-124921232D01*
X145577555Y-124999873D01*
X145577557Y-124999873D01*
X145577558Y-124999874D01*
X145577561Y-124999876D01*
X145742293Y-125053401D01*
X145742297Y-125053402D01*
X145913386Y-125080500D01*
X145913389Y-125080500D01*
X146086614Y-125080500D01*
X146257702Y-125053402D01*
X146257706Y-125053401D01*
X146422438Y-124999876D01*
X146422440Y-124999874D01*
X146422445Y-124999873D01*
X146576788Y-124921232D01*
X146716928Y-124819414D01*
X146839414Y-124696928D01*
X146941232Y-124556788D01*
X147019873Y-124402445D01*
X147019874Y-124402440D01*
X147019876Y-124402438D01*
X147073401Y-124237706D01*
X147073402Y-124237702D01*
X147100500Y-124066614D01*
X147100500Y-123893385D01*
X147073402Y-123722297D01*
X147073401Y-123722293D01*
X147022339Y-123565143D01*
X147022338Y-123503958D01*
X147046487Y-123464548D01*
X147555497Y-122955539D01*
X147610013Y-122927763D01*
X147670445Y-122937334D01*
X147713710Y-122980599D01*
X147724500Y-123025544D01*
X147724500Y-135053054D01*
X147705593Y-135111245D01*
X147695504Y-135123058D01*
X145703259Y-137115304D01*
X145648742Y-137143081D01*
X145633255Y-137144300D01*
X144452936Y-137144300D01*
X144354064Y-137144300D01*
X144306313Y-137157095D01*
X144306312Y-137157094D01*
X144258562Y-137169889D01*
X144258558Y-137169891D01*
X144172936Y-137219325D01*
X144172937Y-137219326D01*
X142094438Y-139297825D01*
X142094437Y-139297824D01*
X142024524Y-139367738D01*
X141975091Y-139453357D01*
X141949500Y-139548866D01*
X141949500Y-139575500D01*
X141930593Y-139633691D01*
X141881093Y-139669655D01*
X141850500Y-139674500D01*
X141475326Y-139674500D01*
X141475325Y-139674500D01*
X141475315Y-139674501D01*
X141402263Y-139689033D01*
X141402257Y-139689035D01*
X141319400Y-139744397D01*
X141319397Y-139744400D01*
X141264035Y-139827257D01*
X141264033Y-139827263D01*
X141249501Y-139900315D01*
X141249500Y-139900327D01*
X141249500Y-140449672D01*
X141249501Y-140449684D01*
X141255218Y-140478421D01*
X141264034Y-140522740D01*
X141264035Y-140522742D01*
X141267767Y-140531752D01*
X141265912Y-140532520D01*
X141279116Y-140579356D01*
X141257933Y-140636758D01*
X141250197Y-140645463D01*
X140794438Y-141101224D01*
X140724524Y-141171138D01*
X140675091Y-141256758D01*
X140675090Y-141256760D01*
X140666762Y-141287840D01*
X140651466Y-141344929D01*
X140651464Y-141344936D01*
X140649500Y-141352264D01*
X140649500Y-141794149D01*
X140632817Y-141849148D01*
X140615748Y-141874695D01*
X140614034Y-141877260D01*
X140614033Y-141877263D01*
X140599501Y-141950315D01*
X140599500Y-141950327D01*
X140599500Y-142499672D01*
X140599501Y-142499684D01*
X140614033Y-142572736D01*
X140614035Y-142572742D01*
X140669397Y-142655599D01*
X140669400Y-142655602D01*
X140714364Y-142685645D01*
X140752260Y-142710966D01*
X140807808Y-142722015D01*
X140825315Y-142725498D01*
X140825320Y-142725498D01*
X140825326Y-142725500D01*
X140825327Y-142725500D01*
X141224673Y-142725500D01*
X141224674Y-142725500D01*
X141297740Y-142710966D01*
X141380601Y-142655601D01*
X141435966Y-142572740D01*
X141450500Y-142499674D01*
X141450500Y-141950326D01*
X141435966Y-141877260D01*
X141417182Y-141849148D01*
X141400500Y-141794149D01*
X141400500Y-141598245D01*
X141419407Y-141540054D01*
X141429496Y-141528241D01*
X141604996Y-141352741D01*
X141659513Y-141324964D01*
X141719945Y-141334535D01*
X141745004Y-141352741D01*
X141920504Y-141528241D01*
X141948281Y-141582758D01*
X141949500Y-141598245D01*
X141949500Y-141794149D01*
X141932817Y-141849148D01*
X141915748Y-141874695D01*
X141914034Y-141877260D01*
X141914033Y-141877263D01*
X141899501Y-141950315D01*
X141899500Y-141950327D01*
X141899500Y-142499672D01*
X141899501Y-142499684D01*
X141914033Y-142572736D01*
X141914034Y-142572740D01*
X141914035Y-142572742D01*
X141914036Y-142572743D01*
X141932815Y-142600848D01*
X141949500Y-142655850D01*
X141949500Y-144116355D01*
X141930593Y-144174546D01*
X141920503Y-144186359D01*
X141496357Y-144610504D01*
X141441841Y-144638281D01*
X141426355Y-144639500D01*
X141349263Y-144639500D01*
X141257825Y-144653983D01*
X141257821Y-144653984D01*
X141147610Y-144710140D01*
X141060140Y-144797610D01*
X141003983Y-144907823D01*
X140989500Y-144999263D01*
X140989500Y-145400737D01*
X141003983Y-145492174D01*
X141003984Y-145492178D01*
X141058186Y-145598554D01*
X141060141Y-145602391D01*
X141147609Y-145689859D01*
X141257825Y-145746017D01*
X141349265Y-145760500D01*
X141690734Y-145760499D01*
X141690737Y-145760499D01*
X141717332Y-145756286D01*
X141782175Y-145746017D01*
X141892391Y-145689859D01*
X141979859Y-145602391D01*
X142036017Y-145492175D01*
X142050500Y-145400735D01*
X142050499Y-145159443D01*
X142069406Y-145101254D01*
X142079496Y-145089440D01*
X142625475Y-144543463D01*
X142625474Y-144543463D01*
X142625475Y-144543462D01*
X142674910Y-144457838D01*
X142700500Y-144362335D01*
X142700500Y-142655850D01*
X142717185Y-142600848D01*
X142733176Y-142576915D01*
X142735966Y-142572740D01*
X142750500Y-142499674D01*
X142750500Y-141950326D01*
X142739597Y-141895514D01*
X142746789Y-141834753D01*
X142788321Y-141789823D01*
X142836695Y-141777200D01*
X144837736Y-141777200D01*
X144895738Y-141761658D01*
X144895739Y-141761658D01*
X144933234Y-141751611D01*
X144933233Y-141751611D01*
X144933238Y-141751610D01*
X145018862Y-141702175D01*
X145088775Y-141632262D01*
X145088774Y-141632262D01*
X145421542Y-141299496D01*
X145476059Y-141271719D01*
X145491545Y-141270500D01*
X145661578Y-141270500D01*
X145661582Y-141270500D01*
X145736518Y-141259582D01*
X145852102Y-141203076D01*
X145929998Y-141125179D01*
X145984513Y-141097404D01*
X146044945Y-141106975D01*
X146070000Y-141125178D01*
X146147898Y-141203076D01*
X146263482Y-141259582D01*
X146338418Y-141270500D01*
X146338421Y-141270500D01*
X146681578Y-141270500D01*
X146681582Y-141270500D01*
X146756518Y-141259582D01*
X146872102Y-141203076D01*
X146963076Y-141112102D01*
X147019582Y-140996518D01*
X147030500Y-140921582D01*
X147030500Y-140478418D01*
X147019582Y-140403482D01*
X146963076Y-140287898D01*
X146956380Y-140281202D01*
X146914496Y-140239317D01*
X146886719Y-140184800D01*
X146885500Y-140169314D01*
X146885500Y-139954765D01*
X146893038Y-139916875D01*
X146894483Y-139913386D01*
X146894484Y-139913385D01*
X146932000Y-139773375D01*
X146932000Y-139628425D01*
X146894484Y-139488415D01*
X146845324Y-139403269D01*
X146832603Y-139343421D01*
X146857489Y-139287526D01*
X146905437Y-139258142D01*
X146946238Y-139247210D01*
X147031862Y-139197775D01*
X147101775Y-139127862D01*
X148874474Y-137355163D01*
X148874475Y-137355162D01*
X148923910Y-137269538D01*
X148934343Y-137230602D01*
X148937366Y-137219323D01*
X148940617Y-137207187D01*
X148949500Y-137174036D01*
X148949500Y-137075164D01*
X148949500Y-112621865D01*
X148923910Y-112526362D01*
X148923909Y-112526360D01*
X148889947Y-112467535D01*
X148889945Y-112467533D01*
X148886498Y-112461563D01*
X148874475Y-112440737D01*
X148551363Y-112117626D01*
X148538196Y-112104459D01*
X148510419Y-112049942D01*
X148509200Y-112034455D01*
X148509200Y-110824266D01*
X148503502Y-110803000D01*
X148483610Y-110728762D01*
X148483608Y-110728759D01*
X148483608Y-110728757D01*
X148434175Y-110643138D01*
X148364262Y-110573224D01*
X148364262Y-110573225D01*
X147046489Y-109255452D01*
X147018712Y-109200935D01*
X147022339Y-109154854D01*
X147030460Y-109129863D01*
X147068445Y-109012958D01*
X147073402Y-108997702D01*
X147100500Y-108826614D01*
X147100500Y-108653385D01*
X147073402Y-108482297D01*
X147073401Y-108482293D01*
X147019876Y-108317561D01*
X147019874Y-108317558D01*
X147019873Y-108317557D01*
X147019873Y-108317555D01*
X146941232Y-108163212D01*
X146839414Y-108023072D01*
X146716928Y-107900586D01*
X146576788Y-107798768D01*
X146576787Y-107798767D01*
X146576785Y-107798766D01*
X146422441Y-107720125D01*
X146422438Y-107720123D01*
X146257706Y-107666598D01*
X146257702Y-107666597D01*
X146086614Y-107639500D01*
X146086611Y-107639500D01*
X145913389Y-107639500D01*
X145913386Y-107639500D01*
X145742297Y-107666597D01*
X145742293Y-107666598D01*
X145577561Y-107720123D01*
X145577558Y-107720125D01*
X145423214Y-107798766D01*
X145283073Y-107900585D01*
X145160585Y-108023073D01*
X145058766Y-108163214D01*
X144980125Y-108317558D01*
X144980123Y-108317561D01*
X144926598Y-108482293D01*
X144926597Y-108482297D01*
X144899500Y-108653385D01*
X144899500Y-108826614D01*
X144926597Y-108997702D01*
X144926598Y-108997706D01*
X144980123Y-109162438D01*
X144980125Y-109162441D01*
X145034233Y-109268636D01*
X145058768Y-109316788D01*
X145160586Y-109456928D01*
X145283072Y-109579414D01*
X145423212Y-109681232D01*
X145577555Y-109759873D01*
X145577557Y-109759873D01*
X145577558Y-109759874D01*
X145577561Y-109759876D01*
X145742293Y-109813401D01*
X145742297Y-109813402D01*
X145913386Y-109840500D01*
X145913389Y-109840500D01*
X146086614Y-109840500D01*
X146257702Y-109813402D01*
X146329678Y-109790015D01*
X146414855Y-109762338D01*
X146476040Y-109762338D01*
X146515452Y-109786489D01*
X147729204Y-111000241D01*
X147756981Y-111054758D01*
X147758200Y-111070245D01*
X147758200Y-112280435D01*
X147771642Y-112330601D01*
X147783791Y-112375942D01*
X147833225Y-112461563D01*
X147833226Y-112461563D01*
X148169504Y-112797841D01*
X148197281Y-112852358D01*
X148198500Y-112867845D01*
X148198500Y-113572855D01*
X148179593Y-113631046D01*
X148130093Y-113667010D01*
X148068907Y-113667010D01*
X148029496Y-113642859D01*
X146676753Y-112290116D01*
X146648976Y-112235599D01*
X146658547Y-112175167D01*
X146688566Y-112140019D01*
X146716928Y-112119414D01*
X146839414Y-111996928D01*
X146941232Y-111856788D01*
X147019873Y-111702445D01*
X147019874Y-111702440D01*
X147019876Y-111702438D01*
X147073401Y-111537706D01*
X147073402Y-111537702D01*
X147100500Y-111366614D01*
X147100500Y-111193385D01*
X147073402Y-111022297D01*
X147073401Y-111022293D01*
X147019876Y-110857561D01*
X147019874Y-110857558D01*
X147019873Y-110857557D01*
X147019873Y-110857555D01*
X146941232Y-110703212D01*
X146839414Y-110563072D01*
X146716928Y-110440586D01*
X146576788Y-110338768D01*
X146576787Y-110338767D01*
X146576785Y-110338766D01*
X146422441Y-110260125D01*
X146422438Y-110260123D01*
X146257706Y-110206598D01*
X146257702Y-110206597D01*
X146086614Y-110179500D01*
X146086611Y-110179500D01*
X145913389Y-110179500D01*
X145913386Y-110179500D01*
X145742297Y-110206597D01*
X145742293Y-110206598D01*
X145577561Y-110260123D01*
X145577558Y-110260125D01*
X145423214Y-110338766D01*
X145283073Y-110440585D01*
X145160585Y-110563073D01*
X145058766Y-110703214D01*
X144980125Y-110857558D01*
X144980123Y-110857561D01*
X144926598Y-111022293D01*
X144926597Y-111022298D01*
X144903591Y-111167552D01*
X144875813Y-111222069D01*
X144821297Y-111249846D01*
X144760865Y-111240274D01*
X144735806Y-111222069D01*
X139839896Y-106326159D01*
X139812119Y-106271642D01*
X139810900Y-106256155D01*
X139810900Y-105110831D01*
X139829807Y-105052640D01*
X139839890Y-105040833D01*
X139875909Y-105004815D01*
X139892042Y-104976872D01*
X139948382Y-104879289D01*
X139948382Y-104879287D01*
X139948384Y-104879285D01*
X139985900Y-104739275D01*
X139985900Y-104594325D01*
X139948384Y-104454315D01*
X139948382Y-104454312D01*
X139948382Y-104454310D01*
X139875912Y-104328789D01*
X139875910Y-104328787D01*
X139875909Y-104328785D01*
X139773415Y-104226291D01*
X139773412Y-104226289D01*
X139773410Y-104226287D01*
X139647888Y-104153817D01*
X139647889Y-104153817D01*
X139618296Y-104145887D01*
X139507875Y-104116300D01*
X139362925Y-104116300D01*
X139301190Y-104132841D01*
X139222910Y-104153817D01*
X139097389Y-104226287D01*
X138994887Y-104328789D01*
X138922417Y-104454310D01*
X138922416Y-104454315D01*
X138884900Y-104594325D01*
X138884900Y-104739275D01*
X138909371Y-104830601D01*
X138922417Y-104879289D01*
X138994887Y-105004810D01*
X138994889Y-105004812D01*
X138994891Y-105004815D01*
X139030905Y-105040829D01*
X139058681Y-105095344D01*
X139059900Y-105110831D01*
X139059900Y-106502135D01*
X139085490Y-106597638D01*
X139123321Y-106663163D01*
X139134926Y-106683263D01*
X145138925Y-112687262D01*
X145138924Y-112687262D01*
X145208838Y-112757175D01*
X145289520Y-112803757D01*
X145330461Y-112849226D01*
X145336857Y-112910076D01*
X145306264Y-112963064D01*
X145298215Y-112969583D01*
X145283074Y-112980584D01*
X145160585Y-113103073D01*
X145058766Y-113243214D01*
X144980125Y-113397558D01*
X144980123Y-113397561D01*
X144926598Y-113562293D01*
X144926597Y-113562298D01*
X144913135Y-113647296D01*
X144885357Y-113701813D01*
X144830841Y-113729590D01*
X144770409Y-113720019D01*
X144745350Y-113701813D01*
X137349596Y-106306059D01*
X137321819Y-106251542D01*
X137320600Y-106236055D01*
X137320600Y-103268966D01*
X137320512Y-103268636D01*
X137295010Y-103173462D01*
X137295008Y-103173459D01*
X137295008Y-103173457D01*
X137245575Y-103087838D01*
X137175662Y-103017924D01*
X137175662Y-103017925D01*
X135057263Y-100899526D01*
X135057263Y-100899525D01*
X134971641Y-100850091D01*
X134971634Y-100850088D01*
X134923885Y-100837294D01*
X134923884Y-100837294D01*
X134876138Y-100824500D01*
X134876136Y-100824500D01*
X134876135Y-100824500D01*
X134849500Y-100824500D01*
X134791309Y-100805593D01*
X134755345Y-100756093D01*
X134751234Y-100730136D01*
X134750976Y-100730162D01*
X134750544Y-100725784D01*
X134750500Y-100725500D01*
X134750500Y-100725327D01*
X134750498Y-100725315D01*
X134747015Y-100707808D01*
X134735966Y-100652260D01*
X134735962Y-100652255D01*
X134732233Y-100643248D01*
X134734074Y-100642485D01*
X134720857Y-100595607D01*
X134742037Y-100538205D01*
X134792913Y-100504215D01*
X134819780Y-100500500D01*
X149400500Y-100500500D01*
X149458691Y-100519407D01*
X149494655Y-100568907D01*
X149499500Y-100599500D01*
X149499500Y-155400500D01*
X149480593Y-155458691D01*
X149431093Y-155494655D01*
X149400500Y-155499500D01*
X100599500Y-155499500D01*
X100541309Y-155480593D01*
X100505345Y-155431093D01*
X100500500Y-155400500D01*
X100500500Y-141325327D01*
X102599500Y-141325327D01*
X102599500Y-143074672D01*
X102599501Y-143074684D01*
X102614033Y-143147736D01*
X102614035Y-143147742D01*
X102669397Y-143230599D01*
X102669399Y-143230601D01*
X102752260Y-143285966D01*
X102807808Y-143297015D01*
X102825315Y-143300498D01*
X102825320Y-143300498D01*
X102825326Y-143300500D01*
X102825327Y-143300500D01*
X103774673Y-143300500D01*
X103774674Y-143300500D01*
X103847740Y-143285966D01*
X103930601Y-143230601D01*
X103985966Y-143147740D01*
X104000500Y-143074674D01*
X104000500Y-142893845D01*
X104019407Y-142835654D01*
X104068907Y-142799690D01*
X104130093Y-142799690D01*
X104169504Y-142823841D01*
X104216050Y-142870387D01*
X104241671Y-142914764D01*
X104265016Y-143001885D01*
X104265017Y-143001887D01*
X104265018Y-143001890D01*
X104337487Y-143127410D01*
X104337489Y-143127412D01*
X104337491Y-143127415D01*
X104439985Y-143229909D01*
X104439987Y-143229910D01*
X104439989Y-143229912D01*
X104565511Y-143302382D01*
X104565512Y-143302382D01*
X104565515Y-143302384D01*
X104705525Y-143339900D01*
X104705526Y-143339900D01*
X104850474Y-143339900D01*
X104850475Y-143339900D01*
X104990485Y-143302384D01*
X104990487Y-143302382D01*
X104990489Y-143302382D01*
X105116010Y-143229912D01*
X105116010Y-143229911D01*
X105116015Y-143229909D01*
X105218509Y-143127415D01*
X105218512Y-143127410D01*
X105290982Y-143001889D01*
X105290982Y-143001887D01*
X105290984Y-143001885D01*
X105328500Y-142861875D01*
X105328500Y-142716925D01*
X105290984Y-142576915D01*
X105290982Y-142576912D01*
X105290982Y-142576910D01*
X105218512Y-142451389D01*
X105218510Y-142451387D01*
X105218509Y-142451385D01*
X105116015Y-142348891D01*
X105116012Y-142348889D01*
X105116010Y-142348887D01*
X104990488Y-142276417D01*
X104990489Y-142276417D01*
X104896916Y-142251344D01*
X104850475Y-142238900D01*
X104705525Y-142238900D01*
X104705521Y-142238900D01*
X104701889Y-142239378D01*
X104699310Y-142238900D01*
X104699037Y-142238900D01*
X104699037Y-142238849D01*
X104641728Y-142228226D01*
X104618966Y-142211229D01*
X104307263Y-141899526D01*
X104307263Y-141899525D01*
X104221641Y-141850091D01*
X104221634Y-141850088D01*
X104173885Y-141837294D01*
X104173884Y-141837294D01*
X104126138Y-141824500D01*
X104126136Y-141824500D01*
X104126135Y-141824500D01*
X104099500Y-141824500D01*
X104041309Y-141805593D01*
X104005345Y-141756093D01*
X104000500Y-141725500D01*
X104000500Y-141325327D01*
X104000498Y-141325315D01*
X103992028Y-141282737D01*
X103985966Y-141252260D01*
X103963025Y-141217926D01*
X103930602Y-141169400D01*
X103930599Y-141169397D01*
X103847742Y-141114035D01*
X103847740Y-141114034D01*
X103847737Y-141114033D01*
X103847736Y-141114033D01*
X103774684Y-141099501D01*
X103774674Y-141099500D01*
X102825326Y-141099500D01*
X102825325Y-141099500D01*
X102825315Y-141099501D01*
X102752263Y-141114033D01*
X102752257Y-141114035D01*
X102669400Y-141169397D01*
X102669397Y-141169400D01*
X102614035Y-141252257D01*
X102614033Y-141252263D01*
X102599501Y-141325315D01*
X102599500Y-141325327D01*
X100500500Y-141325327D01*
X100500500Y-100599500D01*
X100519407Y-100541309D01*
X100568907Y-100505345D01*
X100599500Y-100500500D01*
X115180220Y-100500500D01*
X115238411Y-100519407D01*
G37*
%TD.AperFunction*%
%TA.AperFunction,Conductor*%
G36*
X132738411Y-100519407D02*
G01*
X132774375Y-100568907D01*
X132774375Y-100630093D01*
X132766437Y-100646459D01*
X132764033Y-100652263D01*
X132749501Y-100725315D01*
X132749500Y-100725327D01*
X132749500Y-101674672D01*
X132749501Y-101674684D01*
X132764033Y-101747736D01*
X132764035Y-101747742D01*
X132819397Y-101830599D01*
X132819400Y-101830602D01*
X132874898Y-101867684D01*
X132912778Y-101915734D01*
X132915180Y-101976872D01*
X132881188Y-102027746D01*
X132874898Y-102032316D01*
X132819400Y-102069397D01*
X132819397Y-102069400D01*
X132764035Y-102152257D01*
X132764033Y-102152263D01*
X132749501Y-102225315D01*
X132749500Y-102225327D01*
X132749500Y-103174672D01*
X132749501Y-103174684D01*
X132764033Y-103247736D01*
X132764035Y-103247742D01*
X132819397Y-103330599D01*
X132819400Y-103330602D01*
X132874898Y-103367684D01*
X132912778Y-103415734D01*
X132915180Y-103476872D01*
X132881188Y-103527746D01*
X132874898Y-103532316D01*
X132819400Y-103569397D01*
X132819397Y-103569400D01*
X132764035Y-103652257D01*
X132764033Y-103652263D01*
X132749501Y-103725315D01*
X132749500Y-103725327D01*
X132749500Y-104674672D01*
X132749501Y-104674684D01*
X132764033Y-104747736D01*
X132764035Y-104747742D01*
X132819397Y-104830599D01*
X132819400Y-104830602D01*
X132874898Y-104867684D01*
X132912778Y-104915734D01*
X132915180Y-104976872D01*
X132881188Y-105027746D01*
X132874898Y-105032316D01*
X132819400Y-105069397D01*
X132819397Y-105069400D01*
X132764035Y-105152257D01*
X132764033Y-105152263D01*
X132749501Y-105225315D01*
X132749500Y-105225327D01*
X132749500Y-106174672D01*
X132749501Y-106174684D01*
X132764033Y-106247736D01*
X132764035Y-106247742D01*
X132819397Y-106330599D01*
X132819400Y-106330602D01*
X132874898Y-106367684D01*
X132912778Y-106415734D01*
X132915180Y-106476872D01*
X132881188Y-106527746D01*
X132874898Y-106532316D01*
X132819400Y-106569397D01*
X132819397Y-106569400D01*
X132764035Y-106652257D01*
X132764033Y-106652263D01*
X132749501Y-106725315D01*
X132749500Y-106725327D01*
X132749500Y-106725500D01*
X132749475Y-106725575D01*
X132749024Y-106730162D01*
X132748017Y-106730062D01*
X132730593Y-106783691D01*
X132681093Y-106819655D01*
X132650500Y-106824500D01*
X132623864Y-106824500D01*
X132610056Y-106828200D01*
X132610055Y-106828199D01*
X132528362Y-106850089D01*
X132528358Y-106850091D01*
X132442736Y-106899525D01*
X132442737Y-106899526D01*
X125906938Y-113435325D01*
X125906937Y-113435324D01*
X125837024Y-113505238D01*
X125787589Y-113590861D01*
X125787589Y-113590862D01*
X125787590Y-113590863D01*
X125769772Y-113657363D01*
X125765134Y-113674671D01*
X125765132Y-113674676D01*
X125762000Y-113686362D01*
X125762000Y-143600500D01*
X125743093Y-143658691D01*
X125693593Y-143694655D01*
X125663001Y-143699500D01*
X125593479Y-143699500D01*
X125593476Y-143699501D01*
X125499700Y-143714352D01*
X125499695Y-143714354D01*
X125386659Y-143771949D01*
X125386658Y-143771949D01*
X125386658Y-143771950D01*
X125313102Y-143845505D01*
X125258588Y-143873281D01*
X125243101Y-143874500D01*
X124756899Y-143874500D01*
X124698708Y-143855593D01*
X124686901Y-143845509D01*
X124613342Y-143771950D01*
X124500304Y-143714354D01*
X124500305Y-143714354D01*
X124406521Y-143699500D01*
X123318478Y-143699500D01*
X123318476Y-143699501D01*
X123224700Y-143714352D01*
X123224695Y-143714354D01*
X123111659Y-143771949D01*
X123111658Y-143771949D01*
X123111658Y-143771950D01*
X123038102Y-143845505D01*
X122983588Y-143873281D01*
X122968101Y-143874500D01*
X122884136Y-143874500D01*
X122785264Y-143874500D01*
X122737513Y-143887295D01*
X122737512Y-143887294D01*
X122689765Y-143900088D01*
X122689757Y-143900092D01*
X122646951Y-143924805D01*
X122646950Y-143924807D01*
X122624901Y-143937536D01*
X122575402Y-143950800D01*
X122510925Y-143950800D01*
X122449190Y-143967341D01*
X122370910Y-143988317D01*
X122245389Y-144060787D01*
X122142887Y-144163289D01*
X122070417Y-144288810D01*
X122070416Y-144288815D01*
X122032900Y-144428825D01*
X122032900Y-144573775D01*
X122051826Y-144644407D01*
X122070417Y-144713789D01*
X122142887Y-144839310D01*
X122142889Y-144839312D01*
X122142891Y-144839315D01*
X122245385Y-144941809D01*
X122245387Y-144941810D01*
X122245389Y-144941812D01*
X122370911Y-145014282D01*
X122370912Y-145014282D01*
X122370915Y-145014284D01*
X122510925Y-145051800D01*
X122510926Y-145051800D01*
X122655874Y-145051800D01*
X122655875Y-145051800D01*
X122795885Y-145014284D01*
X122795887Y-145014282D01*
X122795889Y-145014282D01*
X122921410Y-144941812D01*
X122921410Y-144941811D01*
X122921415Y-144941809D01*
X123023909Y-144839315D01*
X123046519Y-144800153D01*
X123091985Y-144759214D01*
X123152835Y-144752817D01*
X123177196Y-144761443D01*
X123224696Y-144785646D01*
X123318481Y-144800500D01*
X124406518Y-144800499D01*
X124406521Y-144800499D01*
X124406522Y-144800498D01*
X124453411Y-144793072D01*
X124500299Y-144785647D01*
X124500299Y-144785646D01*
X124500304Y-144785646D01*
X124613342Y-144728050D01*
X124686897Y-144654494D01*
X124741412Y-144626719D01*
X124756899Y-144625500D01*
X125243101Y-144625500D01*
X125301292Y-144644407D01*
X125313175Y-144654567D01*
X125313674Y-144655067D01*
X125341397Y-144709611D01*
X125331765Y-144770033D01*
X125313605Y-144795002D01*
X125296952Y-144811655D01*
X125296950Y-144811658D01*
X125239354Y-144924695D01*
X125224500Y-145018478D01*
X125224500Y-145152454D01*
X125205593Y-145210645D01*
X125195504Y-145222457D01*
X124769938Y-145648024D01*
X124769938Y-145648025D01*
X124749681Y-145668282D01*
X124695164Y-145696059D01*
X124634732Y-145686488D01*
X124620123Y-145675874D01*
X124619647Y-145676531D01*
X124613344Y-145671952D01*
X124613342Y-145671950D01*
X124500304Y-145614354D01*
X124500305Y-145614354D01*
X124406521Y-145599500D01*
X123318478Y-145599500D01*
X123318476Y-145599501D01*
X123224700Y-145614352D01*
X123224695Y-145614354D01*
X123111659Y-145671949D01*
X123021949Y-145761659D01*
X122964354Y-145874695D01*
X122949500Y-145968478D01*
X122949500Y-146245105D01*
X122930593Y-146303296D01*
X122881093Y-146339260D01*
X122819907Y-146339260D01*
X122812623Y-146336572D01*
X122812496Y-146336519D01*
X122793832Y-146331518D01*
X122672475Y-146299000D01*
X122527525Y-146299000D01*
X122465790Y-146315541D01*
X122387510Y-146336517D01*
X122261989Y-146408987D01*
X122261983Y-146408992D01*
X122225971Y-146445004D01*
X122171454Y-146472781D01*
X122155968Y-146474000D01*
X120971845Y-146474000D01*
X120913654Y-146455093D01*
X120901841Y-146445004D01*
X116801340Y-142344503D01*
X116773563Y-142289986D01*
X116783134Y-142229554D01*
X116826399Y-142186289D01*
X116871340Y-142175499D01*
X117347872Y-142175499D01*
X117407483Y-142169091D01*
X117519158Y-142127439D01*
X117542329Y-142118797D01*
X117542329Y-142118796D01*
X117542331Y-142118796D01*
X117657546Y-142032546D01*
X117743796Y-141917331D01*
X117745484Y-141912807D01*
X117778539Y-141824180D01*
X117794091Y-141782483D01*
X117800500Y-141722873D01*
X117800499Y-140677128D01*
X117794091Y-140617517D01*
X117786126Y-140596162D01*
X117743797Y-140482670D01*
X117657549Y-140367458D01*
X117657548Y-140367457D01*
X117657546Y-140367454D01*
X117607259Y-140329809D01*
X117542329Y-140281202D01*
X117407488Y-140230910D01*
X117407483Y-140230909D01*
X117407481Y-140230908D01*
X117407477Y-140230908D01*
X117374009Y-140227310D01*
X117347873Y-140224500D01*
X117347870Y-140224500D01*
X116752133Y-140224500D01*
X116752129Y-140224500D01*
X116752128Y-140224501D01*
X116742192Y-140225569D01*
X116692512Y-140230909D01*
X116686488Y-140232333D01*
X116686143Y-140230876D01*
X116632312Y-140233181D01*
X116588845Y-140207808D01*
X116330563Y-139949526D01*
X116330563Y-139949525D01*
X116244941Y-139900091D01*
X116244934Y-139900088D01*
X116197185Y-139887294D01*
X116197184Y-139887294D01*
X116149438Y-139874500D01*
X116149436Y-139874500D01*
X116149435Y-139874500D01*
X115031899Y-139874500D01*
X114973708Y-139855593D01*
X114961901Y-139845509D01*
X114888342Y-139771950D01*
X114775304Y-139714354D01*
X114775305Y-139714354D01*
X114681522Y-139699500D01*
X114681519Y-139699500D01*
X114612000Y-139699500D01*
X114553809Y-139680593D01*
X114517845Y-139631093D01*
X114513000Y-139600500D01*
X114513000Y-130917465D01*
X114513000Y-130917464D01*
X114487411Y-130821963D01*
X114437975Y-130736337D01*
X112046338Y-128344700D01*
X112018563Y-128290186D01*
X112028134Y-128229754D01*
X112046341Y-128204695D01*
X112461542Y-127789495D01*
X112516058Y-127761718D01*
X112531545Y-127760499D01*
X112690737Y-127760499D01*
X112717332Y-127756286D01*
X112782175Y-127746017D01*
X112892391Y-127689859D01*
X112979859Y-127602391D01*
X113036017Y-127492175D01*
X113050500Y-127400735D01*
X113050499Y-126999266D01*
X113050499Y-126999263D01*
X113050499Y-126999262D01*
X113044882Y-126963801D01*
X113036017Y-126907825D01*
X112979859Y-126797609D01*
X112892391Y-126710141D01*
X112782175Y-126653983D01*
X112782176Y-126653983D01*
X112690736Y-126639500D01*
X112349262Y-126639500D01*
X112257825Y-126653983D01*
X112257821Y-126653984D01*
X112147610Y-126710140D01*
X112060140Y-126797610D01*
X112003983Y-126907823D01*
X111989500Y-126999263D01*
X111989500Y-127158454D01*
X111970593Y-127216645D01*
X111960504Y-127228458D01*
X111318759Y-127870204D01*
X111264242Y-127897981D01*
X111248755Y-127899200D01*
X110321245Y-127899200D01*
X110263054Y-127880293D01*
X110251241Y-127870204D01*
X109829495Y-127448458D01*
X109801718Y-127393941D01*
X109800499Y-127378454D01*
X109800499Y-126677133D01*
X109800499Y-126677128D01*
X109794091Y-126617517D01*
X109791509Y-126610593D01*
X109743797Y-126482670D01*
X109657549Y-126367458D01*
X109657548Y-126367457D01*
X109657546Y-126367454D01*
X109657541Y-126367450D01*
X109542336Y-126281207D01*
X109542335Y-126281206D01*
X109542332Y-126281205D01*
X109542331Y-126281204D01*
X109489901Y-126261648D01*
X109441988Y-126223597D01*
X109425500Y-126168891D01*
X109425500Y-123869500D01*
X109444407Y-123811309D01*
X109493907Y-123775345D01*
X109524500Y-123770500D01*
X109661578Y-123770500D01*
X109661582Y-123770500D01*
X109736518Y-123759582D01*
X109852102Y-123703076D01*
X109929998Y-123625179D01*
X109984513Y-123597404D01*
X110044945Y-123606975D01*
X110070000Y-123625178D01*
X110147898Y-123703076D01*
X110263482Y-123759582D01*
X110338418Y-123770500D01*
X110338421Y-123770500D01*
X110681578Y-123770500D01*
X110681582Y-123770500D01*
X110756518Y-123759582D01*
X110872102Y-123703076D01*
X110963076Y-123612102D01*
X110963077Y-123612099D01*
X110968876Y-123606301D01*
X110971067Y-123608492D01*
X111008808Y-123580599D01*
X111040169Y-123575500D01*
X111992243Y-123575500D01*
X112050434Y-123594407D01*
X112062240Y-123604490D01*
X112147609Y-123689859D01*
X112257825Y-123746017D01*
X112349265Y-123760500D01*
X112690734Y-123760499D01*
X112690737Y-123760499D01*
X112717332Y-123756286D01*
X112782175Y-123746017D01*
X112892391Y-123689859D01*
X112979859Y-123602391D01*
X113036017Y-123492175D01*
X113050500Y-123400735D01*
X113050499Y-122999266D01*
X113050499Y-122999262D01*
X113040690Y-122937334D01*
X113036017Y-122907825D01*
X112979859Y-122797609D01*
X112957068Y-122774818D01*
X112924496Y-122742245D01*
X112896719Y-122687728D01*
X112895500Y-122672242D01*
X112895500Y-122059931D01*
X112914407Y-122001740D01*
X112924490Y-121989933D01*
X112960509Y-121953915D01*
X112960512Y-121953910D01*
X113032982Y-121828389D01*
X113032982Y-121828387D01*
X113032984Y-121828385D01*
X113070500Y-121688375D01*
X113070500Y-121543425D01*
X113032984Y-121403415D01*
X113032982Y-121403412D01*
X113032982Y-121403410D01*
X112960512Y-121277889D01*
X112960507Y-121277883D01*
X112924496Y-121241871D01*
X112896719Y-121187354D01*
X112895500Y-121171868D01*
X112895500Y-105549845D01*
X112914407Y-105491654D01*
X112924496Y-105479841D01*
X114025663Y-104378674D01*
X115135702Y-103268634D01*
X115190217Y-103240859D01*
X115250649Y-103250430D01*
X115288020Y-103283639D01*
X115319397Y-103330599D01*
X115319400Y-103330602D01*
X115374898Y-103367684D01*
X115412778Y-103415734D01*
X115415180Y-103476872D01*
X115381188Y-103527746D01*
X115374898Y-103532316D01*
X115319400Y-103569397D01*
X115319397Y-103569400D01*
X115264035Y-103652257D01*
X115264033Y-103652263D01*
X115249501Y-103725315D01*
X115249500Y-103725327D01*
X115249500Y-104674672D01*
X115249501Y-104674684D01*
X115264033Y-104747736D01*
X115264035Y-104747742D01*
X115319397Y-104830599D01*
X115319400Y-104830602D01*
X115374898Y-104867684D01*
X115412778Y-104915734D01*
X115415180Y-104976872D01*
X115381188Y-105027746D01*
X115374898Y-105032316D01*
X115319400Y-105069397D01*
X115319397Y-105069400D01*
X115264035Y-105152257D01*
X115264033Y-105152263D01*
X115249501Y-105225315D01*
X115249500Y-105225327D01*
X115249500Y-106174672D01*
X115249501Y-106174684D01*
X115264033Y-106247736D01*
X115264035Y-106247742D01*
X115319397Y-106330599D01*
X115319400Y-106330602D01*
X115374898Y-106367684D01*
X115412778Y-106415734D01*
X115415180Y-106476872D01*
X115381188Y-106527746D01*
X115374898Y-106532316D01*
X115319400Y-106569397D01*
X115319397Y-106569400D01*
X115264035Y-106652257D01*
X115264033Y-106652263D01*
X115249501Y-106725315D01*
X115249500Y-106725327D01*
X115249500Y-107674672D01*
X115249501Y-107674684D01*
X115264033Y-107747736D01*
X115264035Y-107747742D01*
X115319397Y-107830599D01*
X115319400Y-107830602D01*
X115374898Y-107867684D01*
X115412778Y-107915734D01*
X115415180Y-107976872D01*
X115381188Y-108027746D01*
X115374898Y-108032316D01*
X115319400Y-108069397D01*
X115319397Y-108069400D01*
X115264035Y-108152257D01*
X115264033Y-108152263D01*
X115249501Y-108225315D01*
X115249500Y-108225327D01*
X115249500Y-109174672D01*
X115249501Y-109174684D01*
X115264033Y-109247736D01*
X115264035Y-109247742D01*
X115319397Y-109330599D01*
X115319400Y-109330602D01*
X115374898Y-109367684D01*
X115412778Y-109415734D01*
X115415180Y-109476872D01*
X115381188Y-109527746D01*
X115374898Y-109532316D01*
X115319400Y-109569397D01*
X115319397Y-109569400D01*
X115264035Y-109652257D01*
X115264033Y-109652263D01*
X115249501Y-109725315D01*
X115249500Y-109725327D01*
X115249500Y-110674672D01*
X115249501Y-110674684D01*
X115264033Y-110747736D01*
X115264035Y-110747742D01*
X115319397Y-110830599D01*
X115319400Y-110830602D01*
X115374898Y-110867684D01*
X115412778Y-110915734D01*
X115415180Y-110976872D01*
X115381188Y-111027746D01*
X115374898Y-111032316D01*
X115319400Y-111069397D01*
X115319397Y-111069400D01*
X115264035Y-111152257D01*
X115264033Y-111152263D01*
X115249501Y-111225315D01*
X115249500Y-111225327D01*
X115249500Y-112174672D01*
X115249501Y-112174684D01*
X115264033Y-112247736D01*
X115264035Y-112247742D01*
X115319397Y-112330599D01*
X115319400Y-112330602D01*
X115381740Y-112372255D01*
X115402260Y-112385966D01*
X115457808Y-112397015D01*
X115475315Y-112400498D01*
X115475320Y-112400498D01*
X115475326Y-112400500D01*
X116852200Y-112400500D01*
X116910391Y-112419407D01*
X116946355Y-112468907D01*
X116951200Y-112499500D01*
X116951200Y-118061155D01*
X116932293Y-118119346D01*
X116922204Y-118131159D01*
X116506659Y-118546704D01*
X116452142Y-118574481D01*
X116436655Y-118575700D01*
X116385725Y-118575700D01*
X116323990Y-118592241D01*
X116245710Y-118613217D01*
X116120189Y-118685687D01*
X116017687Y-118788189D01*
X115945217Y-118913710D01*
X115945216Y-118913715D01*
X115907700Y-119053725D01*
X115907700Y-119198675D01*
X115933352Y-119294407D01*
X115945217Y-119338689D01*
X116017687Y-119464210D01*
X116017689Y-119464212D01*
X116017691Y-119464215D01*
X116120185Y-119566709D01*
X116120187Y-119566710D01*
X116120189Y-119566712D01*
X116245711Y-119639182D01*
X116245712Y-119639182D01*
X116245715Y-119639184D01*
X116385725Y-119676700D01*
X116385726Y-119676700D01*
X116530674Y-119676700D01*
X116530675Y-119676700D01*
X116670685Y-119639184D01*
X116670687Y-119639182D01*
X116670689Y-119639182D01*
X116796210Y-119566712D01*
X116796210Y-119566711D01*
X116796215Y-119566709D01*
X116898709Y-119464215D01*
X116943020Y-119387467D01*
X116971182Y-119338689D01*
X116971182Y-119338687D01*
X116971184Y-119338685D01*
X117008700Y-119198675D01*
X117008700Y-119147745D01*
X117027607Y-119089554D01*
X117037696Y-119077741D01*
X117627174Y-118488263D01*
X117633357Y-118477555D01*
X117676610Y-118402638D01*
X117700779Y-118312438D01*
X117700779Y-118312437D01*
X117700780Y-118312437D01*
X117700780Y-118312432D01*
X117702200Y-118307136D01*
X117702200Y-118208264D01*
X117702200Y-111650565D01*
X117676610Y-111555062D01*
X117676608Y-111555059D01*
X117676608Y-111555057D01*
X117627176Y-111469440D01*
X117627175Y-111469438D01*
X117557262Y-111399525D01*
X117539668Y-111389367D01*
X117471641Y-111350091D01*
X117471643Y-111350091D01*
X117434585Y-111340161D01*
X117376135Y-111324500D01*
X117376133Y-111324500D01*
X117349500Y-111324500D01*
X117291309Y-111305593D01*
X117255345Y-111256093D01*
X117251234Y-111230136D01*
X117250976Y-111230162D01*
X117250544Y-111225784D01*
X117250500Y-111225500D01*
X117250500Y-111225327D01*
X117250498Y-111225315D01*
X117244146Y-111193385D01*
X117235966Y-111152260D01*
X117235964Y-111152257D01*
X117180602Y-111069400D01*
X117180597Y-111069395D01*
X117125102Y-111032316D01*
X117087222Y-110984267D01*
X117084818Y-110923129D01*
X117118810Y-110872255D01*
X117125102Y-110867684D01*
X117180597Y-110830604D01*
X117180597Y-110830603D01*
X117180601Y-110830601D01*
X117235966Y-110747740D01*
X117250500Y-110674674D01*
X117250500Y-109979245D01*
X117269407Y-109921054D01*
X117318907Y-109885090D01*
X117380093Y-109885090D01*
X117419504Y-109909241D01*
X117714304Y-110204041D01*
X117742081Y-110258558D01*
X117743300Y-110274045D01*
X117743300Y-110324975D01*
X117746996Y-110338768D01*
X117780817Y-110464989D01*
X117853287Y-110590510D01*
X117853289Y-110590512D01*
X117853291Y-110590515D01*
X117955785Y-110693009D01*
X117955787Y-110693010D01*
X117955789Y-110693012D01*
X118081311Y-110765482D01*
X118081312Y-110765482D01*
X118081315Y-110765484D01*
X118221325Y-110803000D01*
X118221326Y-110803000D01*
X118366276Y-110803000D01*
X118366276Y-110802999D01*
X118458477Y-110778294D01*
X118519577Y-110781495D01*
X118567128Y-110820000D01*
X118583100Y-110873920D01*
X118583100Y-113043155D01*
X118564193Y-113101346D01*
X118554108Y-113113153D01*
X118465138Y-113202125D01*
X118465137Y-113202124D01*
X118395224Y-113272038D01*
X118345791Y-113357658D01*
X118345790Y-113357661D01*
X118340088Y-113378937D01*
X118340089Y-113378938D01*
X118320408Y-113452390D01*
X118320398Y-113452427D01*
X118320200Y-113453161D01*
X118320200Y-113453165D01*
X118320200Y-130494735D01*
X118345790Y-130590238D01*
X118345791Y-130590240D01*
X118389776Y-130666423D01*
X118389776Y-130666425D01*
X118395225Y-130675862D01*
X118741024Y-131021662D01*
X118810938Y-131091575D01*
X118896558Y-131141008D01*
X118896559Y-131141008D01*
X118896562Y-131141010D01*
X118921677Y-131147739D01*
X118921678Y-131147740D01*
X118956871Y-131157170D01*
X118992064Y-131166600D01*
X118992065Y-131166600D01*
X119595235Y-131166600D01*
X119595236Y-131166600D01*
X119665621Y-131147740D01*
X119690738Y-131141010D01*
X119776362Y-131091575D01*
X119846275Y-131021662D01*
X120540574Y-130327363D01*
X120543780Y-130321810D01*
X120590010Y-130241738D01*
X120602805Y-130193986D01*
X120615600Y-130146236D01*
X120615600Y-130047364D01*
X120615600Y-108113331D01*
X120634507Y-108055140D01*
X120644590Y-108043333D01*
X120680609Y-108007315D01*
X120685121Y-107999500D01*
X120753082Y-107881789D01*
X120753082Y-107881787D01*
X120753084Y-107881785D01*
X120790600Y-107741775D01*
X120790600Y-107596825D01*
X120753084Y-107456815D01*
X120753082Y-107456812D01*
X120753082Y-107456810D01*
X120680612Y-107331289D01*
X120680610Y-107331287D01*
X120680609Y-107331285D01*
X120578115Y-107228791D01*
X120578112Y-107228789D01*
X120578110Y-107228787D01*
X120452588Y-107156317D01*
X120452589Y-107156317D01*
X120422996Y-107148387D01*
X120312575Y-107118800D01*
X120167625Y-107118800D01*
X120105890Y-107135341D01*
X120027610Y-107156317D01*
X119902089Y-107228787D01*
X119799587Y-107331289D01*
X119750424Y-107416443D01*
X119704955Y-107457384D01*
X119644105Y-107463780D01*
X119594684Y-107436947D01*
X117557263Y-105399526D01*
X117557263Y-105399525D01*
X117471641Y-105350091D01*
X117471634Y-105350088D01*
X117423885Y-105337294D01*
X117423884Y-105337294D01*
X117376138Y-105324500D01*
X117376136Y-105324500D01*
X117376135Y-105324500D01*
X117349500Y-105324500D01*
X117291309Y-105305593D01*
X117255345Y-105256093D01*
X117251234Y-105230136D01*
X117250976Y-105230162D01*
X117250544Y-105225784D01*
X117250500Y-105225500D01*
X117250500Y-105225327D01*
X117250498Y-105225315D01*
X117247015Y-105207808D01*
X117235966Y-105152260D01*
X117180601Y-105069399D01*
X117180599Y-105069397D01*
X117125101Y-105032315D01*
X117087221Y-104984265D01*
X117084819Y-104923127D01*
X117118811Y-104872253D01*
X117125101Y-104867684D01*
X117180601Y-104830601D01*
X117180605Y-104830594D01*
X117183575Y-104827626D01*
X117238090Y-104799846D01*
X117298523Y-104809414D01*
X117303069Y-104811882D01*
X117315715Y-104819184D01*
X117455725Y-104856700D01*
X117455726Y-104856700D01*
X117600674Y-104856700D01*
X117600675Y-104856700D01*
X117740685Y-104819184D01*
X117740687Y-104819182D01*
X117740689Y-104819182D01*
X117866210Y-104746712D01*
X117866210Y-104746711D01*
X117866215Y-104746709D01*
X117968709Y-104644215D01*
X118041184Y-104518685D01*
X118078700Y-104378675D01*
X118078700Y-104233725D01*
X118041184Y-104093715D01*
X118041182Y-104093712D01*
X118041182Y-104093710D01*
X117968712Y-103968189D01*
X117968710Y-103968187D01*
X117968709Y-103968185D01*
X117866215Y-103865691D01*
X117866212Y-103865689D01*
X117866210Y-103865687D01*
X117740688Y-103793217D01*
X117740689Y-103793217D01*
X117687679Y-103779013D01*
X117600675Y-103755700D01*
X117455725Y-103755700D01*
X117404697Y-103769373D01*
X117368720Y-103779013D01*
X117307618Y-103775810D01*
X117260069Y-103737305D01*
X117246000Y-103702703D01*
X117235966Y-103652260D01*
X117180601Y-103569399D01*
X117180597Y-103569395D01*
X117125102Y-103532316D01*
X117087222Y-103484267D01*
X117084818Y-103423129D01*
X117118810Y-103372255D01*
X117125102Y-103367684D01*
X117180597Y-103330604D01*
X117180597Y-103330603D01*
X117180601Y-103330601D01*
X117235966Y-103247740D01*
X117250500Y-103174674D01*
X117250500Y-103081345D01*
X117269407Y-103023154D01*
X117318907Y-102987190D01*
X117380093Y-102987190D01*
X117419504Y-103011341D01*
X124362204Y-109954041D01*
X124389981Y-110008558D01*
X124391200Y-110024045D01*
X124391200Y-110074974D01*
X124428717Y-110214989D01*
X124501187Y-110340510D01*
X124501189Y-110340512D01*
X124501191Y-110340515D01*
X124603685Y-110443009D01*
X124603687Y-110443010D01*
X124603689Y-110443012D01*
X124729211Y-110515482D01*
X124729212Y-110515482D01*
X124729215Y-110515484D01*
X124869225Y-110553000D01*
X124869226Y-110553000D01*
X125014174Y-110553000D01*
X125014175Y-110553000D01*
X125154185Y-110515484D01*
X125154187Y-110515482D01*
X125154189Y-110515482D01*
X125279710Y-110443012D01*
X125279710Y-110443011D01*
X125279715Y-110443009D01*
X125382209Y-110340515D01*
X125428621Y-110260127D01*
X125454682Y-110214989D01*
X125454682Y-110214987D01*
X125454684Y-110214985D01*
X125492200Y-110074975D01*
X125492200Y-109930025D01*
X125454684Y-109790015D01*
X125454682Y-109790012D01*
X125454682Y-109790010D01*
X125382212Y-109664489D01*
X125382210Y-109664487D01*
X125382209Y-109664485D01*
X125279715Y-109561991D01*
X125279712Y-109561989D01*
X125279710Y-109561987D01*
X125154188Y-109489517D01*
X125154189Y-109489517D01*
X125032566Y-109456928D01*
X125014175Y-109452000D01*
X125014174Y-109452000D01*
X124963245Y-109452000D01*
X124905054Y-109433093D01*
X124893241Y-109423004D01*
X117731196Y-102260959D01*
X117703419Y-102206442D01*
X117702200Y-102190955D01*
X117702200Y-101150566D01*
X117702200Y-101150565D01*
X117676610Y-101055062D01*
X117676608Y-101055059D01*
X117676608Y-101055057D01*
X117627176Y-100969440D01*
X117627175Y-100969438D01*
X117557262Y-100899525D01*
X117557259Y-100899523D01*
X117471641Y-100850091D01*
X117471643Y-100850091D01*
X117423886Y-100837295D01*
X117376135Y-100824500D01*
X117376133Y-100824500D01*
X117349500Y-100824500D01*
X117291309Y-100805593D01*
X117255345Y-100756093D01*
X117251234Y-100730136D01*
X117250976Y-100730162D01*
X117250544Y-100725784D01*
X117250500Y-100725500D01*
X117250500Y-100725327D01*
X117250498Y-100725315D01*
X117247015Y-100707808D01*
X117235966Y-100652260D01*
X117235962Y-100652255D01*
X117232233Y-100643248D01*
X117234074Y-100642485D01*
X117220857Y-100595607D01*
X117242037Y-100538205D01*
X117292913Y-100504215D01*
X117319780Y-100500500D01*
X132680220Y-100500500D01*
X132738411Y-100519407D01*
G37*
%TD.AperFunction*%
%TD*%
M02*
