%TF.GenerationSoftware,KiCad,Pcbnew,10.0.6*%
%TF.CreationDate,2026-09-25T19:22:18+03:00*%
%TF.ProjectId,hava_routed,68617661-5f72-46f7-9574-65642e6b6963,rev?*%
%TF.SameCoordinates,Original*%
%TF.FileFunction,Legend,Top*%
%TF.FilePolarity,Positive*%
%FSLAX46Y46*%
G04 Gerber Fmt 4.6, Leading zero omitted, Abs format (unit mm)*
G04 Created by KiCad (PCBNEW 10.0.6) date 2026-09-25 19:22:18*
%MOMM*%
%LPD*%
G01*
G04 APERTURE LIST*
%ADD10C,0.150000*%
%ADD11C,0.120000*%
%ADD12C,0.100000*%
G04 APERTURE END LIST*
D10*
X109833333Y-122484819D02*
X109500000Y-122008628D01*
X109261905Y-122484819D02*
X109261905Y-121484819D01*
X109261905Y-121484819D02*
X109642857Y-121484819D01*
X109642857Y-121484819D02*
X109738095Y-121532438D01*
X109738095Y-121532438D02*
X109785714Y-121580057D01*
X109785714Y-121580057D02*
X109833333Y-121675295D01*
X109833333Y-121675295D02*
X109833333Y-121818152D01*
X109833333Y-121818152D02*
X109785714Y-121913390D01*
X109785714Y-121913390D02*
X109738095Y-121961009D01*
X109738095Y-121961009D02*
X109642857Y-122008628D01*
X109642857Y-122008628D02*
X109261905Y-122008628D01*
X110166667Y-121484819D02*
X110785714Y-121484819D01*
X110785714Y-121484819D02*
X110452381Y-121865771D01*
X110452381Y-121865771D02*
X110595238Y-121865771D01*
X110595238Y-121865771D02*
X110690476Y-121913390D01*
X110690476Y-121913390D02*
X110738095Y-121961009D01*
X110738095Y-121961009D02*
X110785714Y-122056247D01*
X110785714Y-122056247D02*
X110785714Y-122294342D01*
X110785714Y-122294342D02*
X110738095Y-122389580D01*
X110738095Y-122389580D02*
X110690476Y-122437200D01*
X110690476Y-122437200D02*
X110595238Y-122484819D01*
X110595238Y-122484819D02*
X110309524Y-122484819D01*
X110309524Y-122484819D02*
X110214286Y-122437200D01*
X110214286Y-122437200D02*
X110166667Y-122389580D01*
X112833333Y-144879580D02*
X112785714Y-144927200D01*
X112785714Y-144927200D02*
X112642857Y-144974819D01*
X112642857Y-144974819D02*
X112547619Y-144974819D01*
X112547619Y-144974819D02*
X112404762Y-144927200D01*
X112404762Y-144927200D02*
X112309524Y-144831961D01*
X112309524Y-144831961D02*
X112261905Y-144736723D01*
X112261905Y-144736723D02*
X112214286Y-144546247D01*
X112214286Y-144546247D02*
X112214286Y-144403390D01*
X112214286Y-144403390D02*
X112261905Y-144212914D01*
X112261905Y-144212914D02*
X112309524Y-144117676D01*
X112309524Y-144117676D02*
X112404762Y-144022438D01*
X112404762Y-144022438D02*
X112547619Y-143974819D01*
X112547619Y-143974819D02*
X112642857Y-143974819D01*
X112642857Y-143974819D02*
X112785714Y-144022438D01*
X112785714Y-144022438D02*
X112833333Y-144070057D01*
X113785714Y-144974819D02*
X113214286Y-144974819D01*
X113500000Y-144974819D02*
X113500000Y-143974819D01*
X113500000Y-143974819D02*
X113404762Y-144117676D01*
X113404762Y-144117676D02*
X113309524Y-144212914D01*
X113309524Y-144212914D02*
X113214286Y-144260533D01*
X113954819Y-113091904D02*
X114764342Y-113091904D01*
X114764342Y-113091904D02*
X114859580Y-113044285D01*
X114859580Y-113044285D02*
X114907200Y-112996666D01*
X114907200Y-112996666D02*
X114954819Y-112901428D01*
X114954819Y-112901428D02*
X114954819Y-112710952D01*
X114954819Y-112710952D02*
X114907200Y-112615714D01*
X114907200Y-112615714D02*
X114859580Y-112568095D01*
X114859580Y-112568095D02*
X114764342Y-112520476D01*
X114764342Y-112520476D02*
X113954819Y-112520476D01*
X114954819Y-111520476D02*
X114954819Y-112091904D01*
X114954819Y-111806190D02*
X113954819Y-111806190D01*
X113954819Y-111806190D02*
X114097676Y-111901428D01*
X114097676Y-111901428D02*
X114192914Y-111996666D01*
X114192914Y-111996666D02*
X114240533Y-112091904D01*
X109833333Y-125879580D02*
X109785714Y-125927200D01*
X109785714Y-125927200D02*
X109642857Y-125974819D01*
X109642857Y-125974819D02*
X109547619Y-125974819D01*
X109547619Y-125974819D02*
X109404762Y-125927200D01*
X109404762Y-125927200D02*
X109309524Y-125831961D01*
X109309524Y-125831961D02*
X109261905Y-125736723D01*
X109261905Y-125736723D02*
X109214286Y-125546247D01*
X109214286Y-125546247D02*
X109214286Y-125403390D01*
X109214286Y-125403390D02*
X109261905Y-125212914D01*
X109261905Y-125212914D02*
X109309524Y-125117676D01*
X109309524Y-125117676D02*
X109404762Y-125022438D01*
X109404762Y-125022438D02*
X109547619Y-124974819D01*
X109547619Y-124974819D02*
X109642857Y-124974819D01*
X109642857Y-124974819D02*
X109785714Y-125022438D01*
X109785714Y-125022438D02*
X109833333Y-125070057D01*
X110166667Y-124974819D02*
X110785714Y-124974819D01*
X110785714Y-124974819D02*
X110452381Y-125355771D01*
X110452381Y-125355771D02*
X110595238Y-125355771D01*
X110595238Y-125355771D02*
X110690476Y-125403390D01*
X110690476Y-125403390D02*
X110738095Y-125451009D01*
X110738095Y-125451009D02*
X110785714Y-125546247D01*
X110785714Y-125546247D02*
X110785714Y-125784342D01*
X110785714Y-125784342D02*
X110738095Y-125879580D01*
X110738095Y-125879580D02*
X110690476Y-125927200D01*
X110690476Y-125927200D02*
X110595238Y-125974819D01*
X110595238Y-125974819D02*
X110309524Y-125974819D01*
X110309524Y-125974819D02*
X110214286Y-125927200D01*
X110214286Y-125927200D02*
X110166667Y-125879580D01*
X141253095Y-138189819D02*
X141253095Y-138999342D01*
X141253095Y-138999342D02*
X141300714Y-139094580D01*
X141300714Y-139094580D02*
X141348333Y-139142200D01*
X141348333Y-139142200D02*
X141443571Y-139189819D01*
X141443571Y-139189819D02*
X141634047Y-139189819D01*
X141634047Y-139189819D02*
X141729285Y-139142200D01*
X141729285Y-139142200D02*
X141776904Y-139094580D01*
X141776904Y-139094580D02*
X141824523Y-138999342D01*
X141824523Y-138999342D02*
X141824523Y-138189819D01*
X142205476Y-138189819D02*
X142824523Y-138189819D01*
X142824523Y-138189819D02*
X142491190Y-138570771D01*
X142491190Y-138570771D02*
X142634047Y-138570771D01*
X142634047Y-138570771D02*
X142729285Y-138618390D01*
X142729285Y-138618390D02*
X142776904Y-138666009D01*
X142776904Y-138666009D02*
X142824523Y-138761247D01*
X142824523Y-138761247D02*
X142824523Y-138999342D01*
X142824523Y-138999342D02*
X142776904Y-139094580D01*
X142776904Y-139094580D02*
X142729285Y-139142200D01*
X142729285Y-139142200D02*
X142634047Y-139189819D01*
X142634047Y-139189819D02*
X142348333Y-139189819D01*
X142348333Y-139189819D02*
X142253095Y-139142200D01*
X142253095Y-139142200D02*
X142205476Y-139094580D01*
X112833333Y-122399580D02*
X112785714Y-122447200D01*
X112785714Y-122447200D02*
X112642857Y-122494819D01*
X112642857Y-122494819D02*
X112547619Y-122494819D01*
X112547619Y-122494819D02*
X112404762Y-122447200D01*
X112404762Y-122447200D02*
X112309524Y-122351961D01*
X112309524Y-122351961D02*
X112261905Y-122256723D01*
X112261905Y-122256723D02*
X112214286Y-122066247D01*
X112214286Y-122066247D02*
X112214286Y-121923390D01*
X112214286Y-121923390D02*
X112261905Y-121732914D01*
X112261905Y-121732914D02*
X112309524Y-121637676D01*
X112309524Y-121637676D02*
X112404762Y-121542438D01*
X112404762Y-121542438D02*
X112547619Y-121494819D01*
X112547619Y-121494819D02*
X112642857Y-121494819D01*
X112642857Y-121494819D02*
X112785714Y-121542438D01*
X112785714Y-121542438D02*
X112833333Y-121590057D01*
X113738095Y-121494819D02*
X113261905Y-121494819D01*
X113261905Y-121494819D02*
X113214286Y-121971009D01*
X113214286Y-121971009D02*
X113261905Y-121923390D01*
X113261905Y-121923390D02*
X113357143Y-121875771D01*
X113357143Y-121875771D02*
X113595238Y-121875771D01*
X113595238Y-121875771D02*
X113690476Y-121923390D01*
X113690476Y-121923390D02*
X113738095Y-121971009D01*
X113738095Y-121971009D02*
X113785714Y-122066247D01*
X113785714Y-122066247D02*
X113785714Y-122304342D01*
X113785714Y-122304342D02*
X113738095Y-122399580D01*
X113738095Y-122399580D02*
X113690476Y-122447200D01*
X113690476Y-122447200D02*
X113595238Y-122494819D01*
X113595238Y-122494819D02*
X113357143Y-122494819D01*
X113357143Y-122494819D02*
X113261905Y-122447200D01*
X113261905Y-122447200D02*
X113214286Y-122399580D01*
X103666667Y-134107200D02*
X103809524Y-134154819D01*
X103809524Y-134154819D02*
X104047619Y-134154819D01*
X104047619Y-134154819D02*
X104142857Y-134107200D01*
X104142857Y-134107200D02*
X104190476Y-134059580D01*
X104190476Y-134059580D02*
X104238095Y-133964342D01*
X104238095Y-133964342D02*
X104238095Y-133869104D01*
X104238095Y-133869104D02*
X104190476Y-133773866D01*
X104190476Y-133773866D02*
X104142857Y-133726247D01*
X104142857Y-133726247D02*
X104047619Y-133678628D01*
X104047619Y-133678628D02*
X103857143Y-133631009D01*
X103857143Y-133631009D02*
X103761905Y-133583390D01*
X103761905Y-133583390D02*
X103714286Y-133535771D01*
X103714286Y-133535771D02*
X103666667Y-133440533D01*
X103666667Y-133440533D02*
X103666667Y-133345295D01*
X103666667Y-133345295D02*
X103714286Y-133250057D01*
X103714286Y-133250057D02*
X103761905Y-133202438D01*
X103761905Y-133202438D02*
X103857143Y-133154819D01*
X103857143Y-133154819D02*
X104095238Y-133154819D01*
X104095238Y-133154819D02*
X104238095Y-133202438D01*
X104571429Y-133154819D02*
X104809524Y-134154819D01*
X104809524Y-134154819D02*
X105000000Y-133440533D01*
X105000000Y-133440533D02*
X105190476Y-134154819D01*
X105190476Y-134154819D02*
X105428572Y-133154819D01*
X105761905Y-133250057D02*
X105809524Y-133202438D01*
X105809524Y-133202438D02*
X105904762Y-133154819D01*
X105904762Y-133154819D02*
X106142857Y-133154819D01*
X106142857Y-133154819D02*
X106238095Y-133202438D01*
X106238095Y-133202438D02*
X106285714Y-133250057D01*
X106285714Y-133250057D02*
X106333333Y-133345295D01*
X106333333Y-133345295D02*
X106333333Y-133440533D01*
X106333333Y-133440533D02*
X106285714Y-133583390D01*
X106285714Y-133583390D02*
X105714286Y-134154819D01*
X105714286Y-134154819D02*
X106333333Y-134154819D01*
X145833333Y-139984819D02*
X145500000Y-139508628D01*
X145261905Y-139984819D02*
X145261905Y-138984819D01*
X145261905Y-138984819D02*
X145642857Y-138984819D01*
X145642857Y-138984819D02*
X145738095Y-139032438D01*
X145738095Y-139032438D02*
X145785714Y-139080057D01*
X145785714Y-139080057D02*
X145833333Y-139175295D01*
X145833333Y-139175295D02*
X145833333Y-139318152D01*
X145833333Y-139318152D02*
X145785714Y-139413390D01*
X145785714Y-139413390D02*
X145738095Y-139461009D01*
X145738095Y-139461009D02*
X145642857Y-139508628D01*
X145642857Y-139508628D02*
X145261905Y-139508628D01*
X146690476Y-138984819D02*
X146500000Y-138984819D01*
X146500000Y-138984819D02*
X146404762Y-139032438D01*
X146404762Y-139032438D02*
X146357143Y-139080057D01*
X146357143Y-139080057D02*
X146261905Y-139222914D01*
X146261905Y-139222914D02*
X146214286Y-139413390D01*
X146214286Y-139413390D02*
X146214286Y-139794342D01*
X146214286Y-139794342D02*
X146261905Y-139889580D01*
X146261905Y-139889580D02*
X146309524Y-139937200D01*
X146309524Y-139937200D02*
X146404762Y-139984819D01*
X146404762Y-139984819D02*
X146595238Y-139984819D01*
X146595238Y-139984819D02*
X146690476Y-139937200D01*
X146690476Y-139937200D02*
X146738095Y-139889580D01*
X146738095Y-139889580D02*
X146785714Y-139794342D01*
X146785714Y-139794342D02*
X146785714Y-139556247D01*
X146785714Y-139556247D02*
X146738095Y-139461009D01*
X146738095Y-139461009D02*
X146690476Y-139413390D01*
X146690476Y-139413390D02*
X146595238Y-139365771D01*
X146595238Y-139365771D02*
X146404762Y-139365771D01*
X146404762Y-139365771D02*
X146309524Y-139413390D01*
X146309524Y-139413390D02*
X146261905Y-139461009D01*
X146261905Y-139461009D02*
X146214286Y-139556247D01*
X103666667Y-128107200D02*
X103809524Y-128154819D01*
X103809524Y-128154819D02*
X104047619Y-128154819D01*
X104047619Y-128154819D02*
X104142857Y-128107200D01*
X104142857Y-128107200D02*
X104190476Y-128059580D01*
X104190476Y-128059580D02*
X104238095Y-127964342D01*
X104238095Y-127964342D02*
X104238095Y-127869104D01*
X104238095Y-127869104D02*
X104190476Y-127773866D01*
X104190476Y-127773866D02*
X104142857Y-127726247D01*
X104142857Y-127726247D02*
X104047619Y-127678628D01*
X104047619Y-127678628D02*
X103857143Y-127631009D01*
X103857143Y-127631009D02*
X103761905Y-127583390D01*
X103761905Y-127583390D02*
X103714286Y-127535771D01*
X103714286Y-127535771D02*
X103666667Y-127440533D01*
X103666667Y-127440533D02*
X103666667Y-127345295D01*
X103666667Y-127345295D02*
X103714286Y-127250057D01*
X103714286Y-127250057D02*
X103761905Y-127202438D01*
X103761905Y-127202438D02*
X103857143Y-127154819D01*
X103857143Y-127154819D02*
X104095238Y-127154819D01*
X104095238Y-127154819D02*
X104238095Y-127202438D01*
X104571429Y-127154819D02*
X104809524Y-128154819D01*
X104809524Y-128154819D02*
X105000000Y-127440533D01*
X105000000Y-127440533D02*
X105190476Y-128154819D01*
X105190476Y-128154819D02*
X105428572Y-127154819D01*
X106333333Y-128154819D02*
X105761905Y-128154819D01*
X106047619Y-128154819D02*
X106047619Y-127154819D01*
X106047619Y-127154819D02*
X105952381Y-127297676D01*
X105952381Y-127297676D02*
X105857143Y-127392914D01*
X105857143Y-127392914D02*
X105761905Y-127440533D01*
X124238095Y-142254819D02*
X124238095Y-143064342D01*
X124238095Y-143064342D02*
X124285714Y-143159580D01*
X124285714Y-143159580D02*
X124333333Y-143207200D01*
X124333333Y-143207200D02*
X124428571Y-143254819D01*
X124428571Y-143254819D02*
X124619047Y-143254819D01*
X124619047Y-143254819D02*
X124714285Y-143207200D01*
X124714285Y-143207200D02*
X124761904Y-143159580D01*
X124761904Y-143159580D02*
X124809523Y-143064342D01*
X124809523Y-143064342D02*
X124809523Y-142254819D01*
X125714285Y-142588152D02*
X125714285Y-143254819D01*
X125476190Y-142207200D02*
X125238095Y-142921485D01*
X125238095Y-142921485D02*
X125857142Y-142921485D01*
X103666667Y-140107200D02*
X103809524Y-140154819D01*
X103809524Y-140154819D02*
X104047619Y-140154819D01*
X104047619Y-140154819D02*
X104142857Y-140107200D01*
X104142857Y-140107200D02*
X104190476Y-140059580D01*
X104190476Y-140059580D02*
X104238095Y-139964342D01*
X104238095Y-139964342D02*
X104238095Y-139869104D01*
X104238095Y-139869104D02*
X104190476Y-139773866D01*
X104190476Y-139773866D02*
X104142857Y-139726247D01*
X104142857Y-139726247D02*
X104047619Y-139678628D01*
X104047619Y-139678628D02*
X103857143Y-139631009D01*
X103857143Y-139631009D02*
X103761905Y-139583390D01*
X103761905Y-139583390D02*
X103714286Y-139535771D01*
X103714286Y-139535771D02*
X103666667Y-139440533D01*
X103666667Y-139440533D02*
X103666667Y-139345295D01*
X103666667Y-139345295D02*
X103714286Y-139250057D01*
X103714286Y-139250057D02*
X103761905Y-139202438D01*
X103761905Y-139202438D02*
X103857143Y-139154819D01*
X103857143Y-139154819D02*
X104095238Y-139154819D01*
X104095238Y-139154819D02*
X104238095Y-139202438D01*
X104571429Y-139154819D02*
X104809524Y-140154819D01*
X104809524Y-140154819D02*
X105000000Y-139440533D01*
X105000000Y-139440533D02*
X105190476Y-140154819D01*
X105190476Y-140154819D02*
X105428572Y-139154819D01*
X105714286Y-139154819D02*
X106333333Y-139154819D01*
X106333333Y-139154819D02*
X106000000Y-139535771D01*
X106000000Y-139535771D02*
X106142857Y-139535771D01*
X106142857Y-139535771D02*
X106238095Y-139583390D01*
X106238095Y-139583390D02*
X106285714Y-139631009D01*
X106285714Y-139631009D02*
X106333333Y-139726247D01*
X106333333Y-139726247D02*
X106333333Y-139964342D01*
X106333333Y-139964342D02*
X106285714Y-140059580D01*
X106285714Y-140059580D02*
X106238095Y-140107200D01*
X106238095Y-140107200D02*
X106142857Y-140154819D01*
X106142857Y-140154819D02*
X105857143Y-140154819D01*
X105857143Y-140154819D02*
X105761905Y-140107200D01*
X105761905Y-140107200D02*
X105714286Y-140059580D01*
X124666666Y-146454819D02*
X124666666Y-147169104D01*
X124666666Y-147169104D02*
X124619047Y-147311961D01*
X124619047Y-147311961D02*
X124523809Y-147407200D01*
X124523809Y-147407200D02*
X124380952Y-147454819D01*
X124380952Y-147454819D02*
X124285714Y-147454819D01*
X125666666Y-147454819D02*
X125095238Y-147454819D01*
X125380952Y-147454819D02*
X125380952Y-146454819D01*
X125380952Y-146454819D02*
X125285714Y-146597676D01*
X125285714Y-146597676D02*
X125190476Y-146692914D01*
X125190476Y-146692914D02*
X125095238Y-146740533D01*
X109833333Y-118484819D02*
X109500000Y-118008628D01*
X109261905Y-118484819D02*
X109261905Y-117484819D01*
X109261905Y-117484819D02*
X109642857Y-117484819D01*
X109642857Y-117484819D02*
X109738095Y-117532438D01*
X109738095Y-117532438D02*
X109785714Y-117580057D01*
X109785714Y-117580057D02*
X109833333Y-117675295D01*
X109833333Y-117675295D02*
X109833333Y-117818152D01*
X109833333Y-117818152D02*
X109785714Y-117913390D01*
X109785714Y-117913390D02*
X109738095Y-117961009D01*
X109738095Y-117961009D02*
X109642857Y-118008628D01*
X109642857Y-118008628D02*
X109261905Y-118008628D01*
X110690476Y-117818152D02*
X110690476Y-118484819D01*
X110452381Y-117437200D02*
X110214286Y-118151485D01*
X110214286Y-118151485D02*
X110833333Y-118151485D01*
X145833333Y-137484819D02*
X145500000Y-137008628D01*
X145261905Y-137484819D02*
X145261905Y-136484819D01*
X145261905Y-136484819D02*
X145642857Y-136484819D01*
X145642857Y-136484819D02*
X145738095Y-136532438D01*
X145738095Y-136532438D02*
X145785714Y-136580057D01*
X145785714Y-136580057D02*
X145833333Y-136675295D01*
X145833333Y-136675295D02*
X145833333Y-136818152D01*
X145833333Y-136818152D02*
X145785714Y-136913390D01*
X145785714Y-136913390D02*
X145738095Y-136961009D01*
X145738095Y-136961009D02*
X145642857Y-137008628D01*
X145642857Y-137008628D02*
X145261905Y-137008628D01*
X146738095Y-136484819D02*
X146261905Y-136484819D01*
X146261905Y-136484819D02*
X146214286Y-136961009D01*
X146214286Y-136961009D02*
X146261905Y-136913390D01*
X146261905Y-136913390D02*
X146357143Y-136865771D01*
X146357143Y-136865771D02*
X146595238Y-136865771D01*
X146595238Y-136865771D02*
X146690476Y-136913390D01*
X146690476Y-136913390D02*
X146738095Y-136961009D01*
X146738095Y-136961009D02*
X146785714Y-137056247D01*
X146785714Y-137056247D02*
X146785714Y-137294342D01*
X146785714Y-137294342D02*
X146738095Y-137389580D01*
X146738095Y-137389580D02*
X146690476Y-137437200D01*
X146690476Y-137437200D02*
X146595238Y-137484819D01*
X146595238Y-137484819D02*
X146357143Y-137484819D01*
X146357143Y-137484819D02*
X146261905Y-137437200D01*
X146261905Y-137437200D02*
X146214286Y-137389580D01*
X143261905Y-126224819D02*
X143261905Y-125224819D01*
X143261905Y-125224819D02*
X143500000Y-125224819D01*
X143500000Y-125224819D02*
X143642857Y-125272438D01*
X143642857Y-125272438D02*
X143738095Y-125367676D01*
X143738095Y-125367676D02*
X143785714Y-125462914D01*
X143785714Y-125462914D02*
X143833333Y-125653390D01*
X143833333Y-125653390D02*
X143833333Y-125796247D01*
X143833333Y-125796247D02*
X143785714Y-125986723D01*
X143785714Y-125986723D02*
X143738095Y-126081961D01*
X143738095Y-126081961D02*
X143642857Y-126177200D01*
X143642857Y-126177200D02*
X143500000Y-126224819D01*
X143500000Y-126224819D02*
X143261905Y-126224819D01*
X144785714Y-126224819D02*
X144214286Y-126224819D01*
X144500000Y-126224819D02*
X144500000Y-125224819D01*
X144500000Y-125224819D02*
X144404762Y-125367676D01*
X144404762Y-125367676D02*
X144309524Y-125462914D01*
X144309524Y-125462914D02*
X144214286Y-125510533D01*
X134833333Y-148484819D02*
X134500000Y-148008628D01*
X134261905Y-148484819D02*
X134261905Y-147484819D01*
X134261905Y-147484819D02*
X134642857Y-147484819D01*
X134642857Y-147484819D02*
X134738095Y-147532438D01*
X134738095Y-147532438D02*
X134785714Y-147580057D01*
X134785714Y-147580057D02*
X134833333Y-147675295D01*
X134833333Y-147675295D02*
X134833333Y-147818152D01*
X134833333Y-147818152D02*
X134785714Y-147913390D01*
X134785714Y-147913390D02*
X134738095Y-147961009D01*
X134738095Y-147961009D02*
X134642857Y-148008628D01*
X134642857Y-148008628D02*
X134261905Y-148008628D01*
X135214286Y-147580057D02*
X135261905Y-147532438D01*
X135261905Y-147532438D02*
X135357143Y-147484819D01*
X135357143Y-147484819D02*
X135595238Y-147484819D01*
X135595238Y-147484819D02*
X135690476Y-147532438D01*
X135690476Y-147532438D02*
X135738095Y-147580057D01*
X135738095Y-147580057D02*
X135785714Y-147675295D01*
X135785714Y-147675295D02*
X135785714Y-147770533D01*
X135785714Y-147770533D02*
X135738095Y-147913390D01*
X135738095Y-147913390D02*
X135166667Y-148484819D01*
X135166667Y-148484819D02*
X135785714Y-148484819D01*
X145666666Y-103274819D02*
X145666666Y-103989104D01*
X145666666Y-103989104D02*
X145619047Y-104131961D01*
X145619047Y-104131961D02*
X145523809Y-104227200D01*
X145523809Y-104227200D02*
X145380952Y-104274819D01*
X145380952Y-104274819D02*
X145285714Y-104274819D01*
X146095238Y-103370057D02*
X146142857Y-103322438D01*
X146142857Y-103322438D02*
X146238095Y-103274819D01*
X146238095Y-103274819D02*
X146476190Y-103274819D01*
X146476190Y-103274819D02*
X146571428Y-103322438D01*
X146571428Y-103322438D02*
X146619047Y-103370057D01*
X146619047Y-103370057D02*
X146666666Y-103465295D01*
X146666666Y-103465295D02*
X146666666Y-103560533D01*
X146666666Y-103560533D02*
X146619047Y-103703390D01*
X146619047Y-103703390D02*
X146047619Y-104274819D01*
X146047619Y-104274819D02*
X146666666Y-104274819D01*
X131833333Y-148484819D02*
X131500000Y-148008628D01*
X131261905Y-148484819D02*
X131261905Y-147484819D01*
X131261905Y-147484819D02*
X131642857Y-147484819D01*
X131642857Y-147484819D02*
X131738095Y-147532438D01*
X131738095Y-147532438D02*
X131785714Y-147580057D01*
X131785714Y-147580057D02*
X131833333Y-147675295D01*
X131833333Y-147675295D02*
X131833333Y-147818152D01*
X131833333Y-147818152D02*
X131785714Y-147913390D01*
X131785714Y-147913390D02*
X131738095Y-147961009D01*
X131738095Y-147961009D02*
X131642857Y-148008628D01*
X131642857Y-148008628D02*
X131261905Y-148008628D01*
X132785714Y-148484819D02*
X132214286Y-148484819D01*
X132500000Y-148484819D02*
X132500000Y-147484819D01*
X132500000Y-147484819D02*
X132404762Y-147627676D01*
X132404762Y-147627676D02*
X132309524Y-147722914D01*
X132309524Y-147722914D02*
X132214286Y-147770533D01*
X139833333Y-126484819D02*
X139500000Y-126008628D01*
X139261905Y-126484819D02*
X139261905Y-125484819D01*
X139261905Y-125484819D02*
X139642857Y-125484819D01*
X139642857Y-125484819D02*
X139738095Y-125532438D01*
X139738095Y-125532438D02*
X139785714Y-125580057D01*
X139785714Y-125580057D02*
X139833333Y-125675295D01*
X139833333Y-125675295D02*
X139833333Y-125818152D01*
X139833333Y-125818152D02*
X139785714Y-125913390D01*
X139785714Y-125913390D02*
X139738095Y-125961009D01*
X139738095Y-125961009D02*
X139642857Y-126008628D01*
X139642857Y-126008628D02*
X139261905Y-126008628D01*
X140166667Y-125484819D02*
X140833333Y-125484819D01*
X140833333Y-125484819D02*
X140404762Y-126484819D01*
X117833333Y-139879580D02*
X117785714Y-139927200D01*
X117785714Y-139927200D02*
X117642857Y-139974819D01*
X117642857Y-139974819D02*
X117547619Y-139974819D01*
X117547619Y-139974819D02*
X117404762Y-139927200D01*
X117404762Y-139927200D02*
X117309524Y-139831961D01*
X117309524Y-139831961D02*
X117261905Y-139736723D01*
X117261905Y-139736723D02*
X117214286Y-139546247D01*
X117214286Y-139546247D02*
X117214286Y-139403390D01*
X117214286Y-139403390D02*
X117261905Y-139212914D01*
X117261905Y-139212914D02*
X117309524Y-139117676D01*
X117309524Y-139117676D02*
X117404762Y-139022438D01*
X117404762Y-139022438D02*
X117547619Y-138974819D01*
X117547619Y-138974819D02*
X117642857Y-138974819D01*
X117642857Y-138974819D02*
X117785714Y-139022438D01*
X117785714Y-139022438D02*
X117833333Y-139070057D01*
X118214286Y-139070057D02*
X118261905Y-139022438D01*
X118261905Y-139022438D02*
X118357143Y-138974819D01*
X118357143Y-138974819D02*
X118595238Y-138974819D01*
X118595238Y-138974819D02*
X118690476Y-139022438D01*
X118690476Y-139022438D02*
X118738095Y-139070057D01*
X118738095Y-139070057D02*
X118785714Y-139165295D01*
X118785714Y-139165295D02*
X118785714Y-139260533D01*
X118785714Y-139260533D02*
X118738095Y-139403390D01*
X118738095Y-139403390D02*
X118166667Y-139974819D01*
X118166667Y-139974819D02*
X118785714Y-139974819D01*
X112238095Y-138254819D02*
X112238095Y-139064342D01*
X112238095Y-139064342D02*
X112285714Y-139159580D01*
X112285714Y-139159580D02*
X112333333Y-139207200D01*
X112333333Y-139207200D02*
X112428571Y-139254819D01*
X112428571Y-139254819D02*
X112619047Y-139254819D01*
X112619047Y-139254819D02*
X112714285Y-139207200D01*
X112714285Y-139207200D02*
X112761904Y-139159580D01*
X112761904Y-139159580D02*
X112809523Y-139064342D01*
X112809523Y-139064342D02*
X112809523Y-138254819D01*
X113238095Y-138350057D02*
X113285714Y-138302438D01*
X113285714Y-138302438D02*
X113380952Y-138254819D01*
X113380952Y-138254819D02*
X113619047Y-138254819D01*
X113619047Y-138254819D02*
X113714285Y-138302438D01*
X113714285Y-138302438D02*
X113761904Y-138350057D01*
X113761904Y-138350057D02*
X113809523Y-138445295D01*
X113809523Y-138445295D02*
X113809523Y-138540533D01*
X113809523Y-138540533D02*
X113761904Y-138683390D01*
X113761904Y-138683390D02*
X113190476Y-139254819D01*
X113190476Y-139254819D02*
X113809523Y-139254819D01*
X112833333Y-126399580D02*
X112785714Y-126447200D01*
X112785714Y-126447200D02*
X112642857Y-126494819D01*
X112642857Y-126494819D02*
X112547619Y-126494819D01*
X112547619Y-126494819D02*
X112404762Y-126447200D01*
X112404762Y-126447200D02*
X112309524Y-126351961D01*
X112309524Y-126351961D02*
X112261905Y-126256723D01*
X112261905Y-126256723D02*
X112214286Y-126066247D01*
X112214286Y-126066247D02*
X112214286Y-125923390D01*
X112214286Y-125923390D02*
X112261905Y-125732914D01*
X112261905Y-125732914D02*
X112309524Y-125637676D01*
X112309524Y-125637676D02*
X112404762Y-125542438D01*
X112404762Y-125542438D02*
X112547619Y-125494819D01*
X112547619Y-125494819D02*
X112642857Y-125494819D01*
X112642857Y-125494819D02*
X112785714Y-125542438D01*
X112785714Y-125542438D02*
X112833333Y-125590057D01*
X113690476Y-125828152D02*
X113690476Y-126494819D01*
X113452381Y-125447200D02*
X113214286Y-126161485D01*
X113214286Y-126161485D02*
X113833333Y-126161485D01*
X141833333Y-144399580D02*
X141785714Y-144447200D01*
X141785714Y-144447200D02*
X141642857Y-144494819D01*
X141642857Y-144494819D02*
X141547619Y-144494819D01*
X141547619Y-144494819D02*
X141404762Y-144447200D01*
X141404762Y-144447200D02*
X141309524Y-144351961D01*
X141309524Y-144351961D02*
X141261905Y-144256723D01*
X141261905Y-144256723D02*
X141214286Y-144066247D01*
X141214286Y-144066247D02*
X141214286Y-143923390D01*
X141214286Y-143923390D02*
X141261905Y-143732914D01*
X141261905Y-143732914D02*
X141309524Y-143637676D01*
X141309524Y-143637676D02*
X141404762Y-143542438D01*
X141404762Y-143542438D02*
X141547619Y-143494819D01*
X141547619Y-143494819D02*
X141642857Y-143494819D01*
X141642857Y-143494819D02*
X141785714Y-143542438D01*
X141785714Y-143542438D02*
X141833333Y-143590057D01*
X142690476Y-143494819D02*
X142500000Y-143494819D01*
X142500000Y-143494819D02*
X142404762Y-143542438D01*
X142404762Y-143542438D02*
X142357143Y-143590057D01*
X142357143Y-143590057D02*
X142261905Y-143732914D01*
X142261905Y-143732914D02*
X142214286Y-143923390D01*
X142214286Y-143923390D02*
X142214286Y-144304342D01*
X142214286Y-144304342D02*
X142261905Y-144399580D01*
X142261905Y-144399580D02*
X142309524Y-144447200D01*
X142309524Y-144447200D02*
X142404762Y-144494819D01*
X142404762Y-144494819D02*
X142595238Y-144494819D01*
X142595238Y-144494819D02*
X142690476Y-144447200D01*
X142690476Y-144447200D02*
X142738095Y-144399580D01*
X142738095Y-144399580D02*
X142785714Y-144304342D01*
X142785714Y-144304342D02*
X142785714Y-144066247D01*
X142785714Y-144066247D02*
X142738095Y-143971009D01*
X142738095Y-143971009D02*
X142690476Y-143923390D01*
X142690476Y-143923390D02*
X142595238Y-143875771D01*
X142595238Y-143875771D02*
X142404762Y-143875771D01*
X142404762Y-143875771D02*
X142309524Y-143923390D01*
X142309524Y-143923390D02*
X142261905Y-143971009D01*
X142261905Y-143971009D02*
X142214286Y-144066247D01*
%TO.C,R3*%
D11*
X109846359Y-122820000D02*
X110153641Y-122820000D01*
X109846359Y-123580000D02*
X110153641Y-123580000D01*
%TO.C,C1*%
X112738748Y-145465000D02*
X113261252Y-145465000D01*
X112738748Y-146935000D02*
X113261252Y-146935000D01*
%TO.C,U1*%
X115890000Y-93990000D02*
X115890000Y-99800000D01*
X115890000Y-93990000D02*
X134110000Y-93990000D01*
X115890000Y-113910000D02*
X115890000Y-114210000D01*
X115890000Y-114210000D02*
X134110000Y-114210000D01*
X134110000Y-93990000D02*
X134110000Y-100490000D01*
X134110000Y-113910000D02*
X134110000Y-114210000D01*
X115900000Y-100500000D02*
X115400000Y-100500000D01*
X115900000Y-100000000D01*
X115900000Y-100500000D01*
G36*
X115900000Y-100500000D02*
G01*
X115400000Y-100500000D01*
X115900000Y-100000000D01*
X115900000Y-100500000D01*
G37*
%TO.C,C3*%
X109738748Y-126465000D02*
X110261252Y-126465000D01*
X109738748Y-127935000D02*
X110261252Y-127935000D01*
%TO.C,U3*%
D12*
X140650000Y-142550000D02*
X140650000Y-142400000D01*
X140650000Y-142560000D02*
X140800000Y-142560000D01*
X143200000Y-139850000D02*
X143350000Y-139850000D01*
X143350000Y-139850000D02*
X143350000Y-140000000D01*
X143350000Y-142550000D02*
X143200000Y-142550000D01*
X143350000Y-142550000D02*
X143350000Y-142400000D01*
D11*
X140650000Y-139850000D02*
X140290000Y-139850000D01*
X140650000Y-139490000D01*
X140650000Y-139850000D01*
G36*
X140650000Y-139850000D02*
G01*
X140290000Y-139850000D01*
X140650000Y-139490000D01*
X140650000Y-139850000D01*
G37*
%TO.C,C5*%
X112892164Y-122840000D02*
X113107836Y-122840000D01*
X112892164Y-123560000D02*
X113107836Y-123560000D01*
%TO.C,SW2*%
X103350000Y-134800000D02*
X106650000Y-134800000D01*
X103350000Y-135100000D02*
X103350000Y-134800000D01*
X103350000Y-137300000D02*
X103350000Y-137600000D01*
X103350000Y-137600000D02*
X106650000Y-137600000D01*
X106650000Y-134800000D02*
X106650000Y-135100000D01*
X106650000Y-137600000D02*
X106650000Y-137300000D01*
%TO.C,R6*%
X145846359Y-140320000D02*
X146153641Y-140320000D01*
X145846359Y-141080000D02*
X146153641Y-141080000D01*
%TO.C,SW1*%
X103350000Y-128800000D02*
X106650000Y-128800000D01*
X103350000Y-129100000D02*
X103350000Y-128800000D01*
X103350000Y-131300000D02*
X103350000Y-131600000D01*
X103350000Y-131600000D02*
X106650000Y-131600000D01*
X106650000Y-128800000D02*
X106650000Y-129100000D01*
X106650000Y-131600000D02*
X106650000Y-131300000D01*
%TO.C,U4*%
X124090000Y-143640000D02*
X125910000Y-143640000D01*
X124090000Y-143690000D02*
X124090000Y-143640000D01*
X124090000Y-146760000D02*
X124090000Y-146710000D01*
X125910000Y-143640000D02*
X125910000Y-143690000D01*
X125910000Y-146710000D02*
X125910000Y-146760000D01*
X125910000Y-146760000D02*
X124090000Y-146760000D01*
X123550000Y-143690000D02*
X123310000Y-143360000D01*
X123790000Y-143360000D01*
X123550000Y-143690000D01*
G36*
X123550000Y-143690000D02*
G01*
X123310000Y-143360000D01*
X123790000Y-143360000D01*
X123550000Y-143690000D01*
G37*
%TO.C,SW3*%
X103350000Y-140800000D02*
X106650000Y-140800000D01*
X103350000Y-141100000D02*
X103350000Y-140800000D01*
X103350000Y-143300000D02*
X103350000Y-143600000D01*
X103350000Y-143600000D02*
X106650000Y-143600000D01*
X106650000Y-140800000D02*
X106650000Y-141100000D01*
X106650000Y-143600000D02*
X106650000Y-143300000D01*
%TO.C,J1*%
X120330000Y-152400000D02*
X120330000Y-150700000D01*
X129670000Y-152400000D02*
X129670000Y-150700000D01*
%TO.C,R4*%
X109846359Y-118820000D02*
X110153641Y-118820000D01*
X109846359Y-119580000D02*
X110153641Y-119580000D01*
%TO.C,R5*%
X145846359Y-137820000D02*
X146153641Y-137820000D01*
X145846359Y-138580000D02*
X146153641Y-138580000D01*
%TO.C,D1*%
X142515000Y-126465000D02*
X142515000Y-127935000D01*
X142515000Y-127935000D02*
X144800000Y-127935000D01*
X144800000Y-126465000D02*
X142515000Y-126465000D01*
%TO.C,R2*%
X134846359Y-148820000D02*
X135153641Y-148820000D01*
X134846359Y-149580000D02*
X135153641Y-149580000D01*
%TO.C,J2*%
X144620000Y-104820000D02*
X146000000Y-104820000D01*
X144620000Y-106200000D02*
X144620000Y-104820000D01*
X144620000Y-107470000D02*
X144620000Y-125360000D01*
X144620000Y-107470000D02*
X147380000Y-107470000D01*
X144620000Y-125360000D02*
X147380000Y-125360000D01*
X147380000Y-107470000D02*
X147380000Y-125360000D01*
%TO.C,R1*%
X131846359Y-148820000D02*
X132153641Y-148820000D01*
X131846359Y-149580000D02*
X132153641Y-149580000D01*
%TO.C,R7*%
X139846359Y-126820000D02*
X140153641Y-126820000D01*
X139846359Y-127580000D02*
X140153641Y-127580000D01*
%TO.C,C2*%
X117738748Y-140465000D02*
X118261252Y-140465000D01*
X117738748Y-141935000D02*
X118261252Y-141935000D01*
%TO.C,U2*%
X112090000Y-139640000D02*
X113910000Y-139640000D01*
X112090000Y-139690000D02*
X112090000Y-139640000D01*
X112090000Y-142760000D02*
X112090000Y-142710000D01*
X113910000Y-139640000D02*
X113910000Y-139690000D01*
X113910000Y-140810000D02*
X113910000Y-141590000D01*
X113910000Y-142710000D02*
X113910000Y-142760000D01*
X113910000Y-142760000D02*
X112090000Y-142760000D01*
X111550000Y-139690000D02*
X111310000Y-139360000D01*
X111790000Y-139360000D01*
X111550000Y-139690000D01*
G36*
X111550000Y-139690000D02*
G01*
X111310000Y-139360000D01*
X111790000Y-139360000D01*
X111550000Y-139690000D01*
G37*
%TO.C,C4*%
X112892164Y-126840000D02*
X113107836Y-126840000D01*
X112892164Y-127560000D02*
X113107836Y-127560000D01*
%TO.C,C6*%
X141892164Y-144840000D02*
X142107836Y-144840000D01*
X141892164Y-145560000D02*
X142107836Y-145560000D01*
%TD*%
M02*
