%TF.GenerationSoftware,KiCad,Pcbnew,10.0.6*%
%TF.CreationDate,2026-09-25T19:22:17+03:00*%
%TF.ProjectId,hava_routed,68617661-5f72-46f7-9574-65642e6b6963,rev?*%
%TF.SameCoordinates,Original*%
%TF.FileFunction,Copper,L2,Bot*%
%TF.FilePolarity,Positive*%
%FSLAX46Y46*%
G04 Gerber Fmt 4.6, Leading zero omitted, Abs format (unit mm)*
G04 Created by KiCad (PCBNEW 10.0.6) date 2026-09-25 19:22:17*
%MOMM*%
%LPD*%
G01*
G04 APERTURE LIST*
%TA.AperFunction,HeatsinkPad*%
%ADD10C,0.600000*%
%TD*%
%TA.AperFunction,ComponentPad*%
%ADD11O,1.000000X2.100000*%
%TD*%
%TA.AperFunction,ComponentPad*%
%ADD12O,1.000000X1.800000*%
%TD*%
%TA.AperFunction,ComponentPad*%
%ADD13R,1.700000X1.700000*%
%TD*%
%TA.AperFunction,ComponentPad*%
%ADD14C,1.700000*%
%TD*%
%TA.AperFunction,ViaPad*%
%ADD15C,0.600000*%
%TD*%
%TA.AperFunction,Conductor*%
%ADD16C,0.250000*%
%TD*%
G04 APERTURE END LIST*
D10*
%TO.P,U1,19*%
%TO.N,GND*%
X124860000Y-106850000D03*
X124860000Y-107950000D03*
X125410000Y-106300000D03*
X125410000Y-107400000D03*
X125410000Y-108500000D03*
X125960000Y-106850000D03*
X125960000Y-107950000D03*
X126510000Y-106300000D03*
X126510000Y-107400000D03*
X126510000Y-108500000D03*
X127060000Y-106850000D03*
X127060000Y-107950000D03*
%TD*%
D11*
%TO.P,J1,SH*%
%TO.N,GND*%
X120680000Y-149395000D03*
D12*
X120680000Y-153575000D03*
D11*
X129320000Y-149395000D03*
D12*
X129320000Y-153575000D03*
%TD*%
D13*
%TO.P,J2,1*%
%TO.N,GND*%
X146000000Y-106200000D03*
D14*
%TO.P,J2,2*%
%TO.N,+3V3*%
X146000000Y-108740000D03*
%TO.P,J2,3*%
%TO.N,LCD_SCK*%
X146000000Y-111280000D03*
%TO.P,J2,4*%
%TO.N,LCD_MOSI*%
X146000000Y-113820000D03*
%TO.P,J2,5*%
%TO.N,LCD_RST*%
X146000000Y-116360000D03*
%TO.P,J2,6*%
%TO.N,LCD_DC*%
X146000000Y-118900000D03*
%TO.P,J2,7*%
%TO.N,LCD_CS*%
X146000000Y-121440000D03*
%TO.P,J2,8*%
%TO.N,LCD_BL*%
X146000000Y-123980000D03*
%TD*%
D15*
%TO.N,+3V3*%
X124941700Y-110002500D03*
%TO.N,EN*%
X112520000Y-121615900D03*
X103402400Y-125042000D03*
%TO.N,+5V*%
X124999300Y-146874900D03*
X122600000Y-146849500D03*
X127929500Y-147068800D03*
%TO.N,GND*%
X121979900Y-145652600D03*
%TO.N,I2C_SDA*%
X117528200Y-104306200D03*
X139435400Y-104666800D03*
%TO.N,I2C_SCL*%
X146381500Y-139700900D03*
X119322400Y-130090900D03*
X143747200Y-139889300D03*
%TO.N,LCD_SCK*%
X120240100Y-107669300D03*
%TO.N,LCD_MOSI*%
X118293800Y-110252500D03*
%TO.N,BOOT*%
X110298600Y-120061200D03*
X116458200Y-119126200D03*
%TO.N,BTN_IO*%
X130906500Y-136873600D03*
X104778000Y-142789400D03*
%TO.N,USB_DP*%
X122583400Y-144501300D03*
X126876000Y-147735300D03*
%TD*%
%TO.N,+3V3*%
D16*
X124941700Y-110002500D02*
X144737500Y-110002500D01*
X144737500Y-110002500D02*
X146000000Y-108740000D01*
%TO.N,EN*%
X109093900Y-125042000D02*
X112520000Y-121615900D01*
X103402400Y-125042000D02*
X109093900Y-125042000D01*
%TO.N,+5V*%
X127929500Y-147068800D02*
X127929400Y-147068800D01*
X122625400Y-146874900D02*
X124999300Y-146874900D01*
X126486400Y-148362000D02*
X127135600Y-148362000D01*
X127929400Y-147068800D02*
X127929500Y-147068800D01*
X127135600Y-148362000D02*
X127929400Y-147568200D01*
X124999300Y-146874900D02*
X126486400Y-148362000D01*
X127929400Y-147068800D02*
X127929500Y-147068800D01*
X127929400Y-147568200D02*
X127929400Y-147068800D01*
X124999300Y-146873700D02*
X124999300Y-146874900D01*
X124999300Y-146874900D02*
X124999300Y-146873700D01*
X122600000Y-146849500D02*
X122625400Y-146874900D01*
%TO.N,GND*%
X120680000Y-146952500D02*
X121979900Y-145652600D01*
X144616500Y-106406800D02*
X144823300Y-106200000D01*
X127060000Y-106406800D02*
X127060000Y-106850000D01*
X146000000Y-106200000D02*
X144823300Y-106200000D01*
X120680000Y-149395000D02*
X120680000Y-146952500D01*
X122323900Y-145652600D02*
X121979900Y-145652600D01*
X126953200Y-106300000D02*
X127060000Y-106406800D01*
X127060000Y-106406800D02*
X144616500Y-106406800D01*
X121979900Y-145652600D02*
X122323900Y-145652600D01*
X124860000Y-106850000D02*
X125960000Y-106850000D01*
X120680000Y-153575000D02*
X120680000Y-152348300D01*
X129320000Y-152348300D02*
X120680000Y-152348300D01*
X126510000Y-106300000D02*
X126953200Y-106300000D01*
X126510000Y-107400000D02*
X125410000Y-107400000D01*
X129320000Y-152348300D02*
X129320000Y-153575000D01*
X126510000Y-108500000D02*
X125410000Y-108500000D01*
X127060000Y-107950000D02*
X125960000Y-107950000D01*
X129320000Y-149395000D02*
X129320000Y-152348300D01*
X125410000Y-106300000D02*
X126510000Y-106300000D01*
%TO.N,I2C_SDA*%
X139074800Y-104306200D02*
X139435400Y-104666800D01*
X117528200Y-104306200D02*
X139074800Y-104306200D01*
%TO.N,I2C_SCL*%
X146381500Y-139700900D02*
X143935600Y-139700900D01*
X133948800Y-130090900D02*
X143747200Y-139889300D01*
X143935600Y-139700900D02*
X143747200Y-139889300D01*
X119322400Y-130090900D02*
X133948800Y-130090900D01*
%TO.N,LCD_SCK*%
X123850800Y-111280000D02*
X146000000Y-111280000D01*
X120240100Y-107669300D02*
X123850800Y-111280000D01*
%TO.N,LCD_MOSI*%
X121861300Y-113820000D02*
X118293800Y-110252500D01*
X146000000Y-113820000D02*
X121861300Y-113820000D01*
%TO.N,BOOT*%
X115523200Y-120061200D02*
X116458200Y-119126200D01*
X110298600Y-120061200D02*
X115523200Y-120061200D01*
%TO.N,BTN_IO*%
X130906500Y-136873600D02*
X124990700Y-142789400D01*
X124990700Y-142789400D02*
X104778000Y-142789400D01*
%TO.N,USB_DP*%
X122583400Y-144501300D02*
X123642000Y-144501300D01*
X123642000Y-144501300D02*
X126876000Y-147735300D01*
X122583400Y-144501300D02*
X122677600Y-144407100D01*
X122677600Y-144407100D02*
X122583400Y-144501300D01*
%TD*%
%TA.AperFunction,Conductor*%
%TO.N,GND*%
G36*
X149458691Y-100519407D02*
G01*
X149494655Y-100568907D01*
X149499500Y-100599500D01*
X149499500Y-155400500D01*
X149480593Y-155458691D01*
X149431093Y-155494655D01*
X149400500Y-155499500D01*
X100599500Y-155499500D01*
X100541309Y-155480593D01*
X100505345Y-155431093D01*
X100500500Y-155400500D01*
X100500500Y-149819234D01*
X121534500Y-149819234D01*
X121534500Y-149970766D01*
X121569086Y-150099847D01*
X121573720Y-150117139D01*
X121649481Y-150248360D01*
X121649483Y-150248362D01*
X121649485Y-150248365D01*
X121756635Y-150355515D01*
X121756637Y-150355516D01*
X121756639Y-150355518D01*
X121887861Y-150431279D01*
X121887859Y-150431279D01*
X121887863Y-150431280D01*
X121887865Y-150431281D01*
X122034234Y-150470500D01*
X122034236Y-150470500D01*
X122185764Y-150470500D01*
X122185766Y-150470500D01*
X122332135Y-150431281D01*
X122332137Y-150431279D01*
X122332139Y-150431279D01*
X122463360Y-150355518D01*
X122463360Y-150355517D01*
X122463365Y-150355515D01*
X122570515Y-150248365D01*
X122646281Y-150117135D01*
X122685500Y-149970766D01*
X122685500Y-149819234D01*
X127314500Y-149819234D01*
X127314500Y-149970766D01*
X127349086Y-150099847D01*
X127353720Y-150117139D01*
X127429481Y-150248360D01*
X127429483Y-150248362D01*
X127429485Y-150248365D01*
X127536635Y-150355515D01*
X127536637Y-150355516D01*
X127536639Y-150355518D01*
X127667861Y-150431279D01*
X127667859Y-150431279D01*
X127667863Y-150431280D01*
X127667865Y-150431281D01*
X127814234Y-150470500D01*
X127814236Y-150470500D01*
X127965764Y-150470500D01*
X127965766Y-150470500D01*
X128112135Y-150431281D01*
X128112137Y-150431279D01*
X128112139Y-150431279D01*
X128243360Y-150355518D01*
X128243360Y-150355517D01*
X128243365Y-150355515D01*
X128350515Y-150248365D01*
X128426281Y-150117135D01*
X128465500Y-149970766D01*
X128465500Y-149819234D01*
X128426281Y-149672865D01*
X128426279Y-149672862D01*
X128426279Y-149672860D01*
X128350518Y-149541639D01*
X128350516Y-149541637D01*
X128350515Y-149541635D01*
X128243365Y-149434485D01*
X128243362Y-149434483D01*
X128243360Y-149434481D01*
X128112138Y-149358720D01*
X128112140Y-149358720D01*
X128055347Y-149343503D01*
X127965766Y-149319500D01*
X127814234Y-149319500D01*
X127724652Y-149343503D01*
X127667860Y-149358720D01*
X127536639Y-149434481D01*
X127429481Y-149541639D01*
X127353720Y-149672860D01*
X127353719Y-149672865D01*
X127314500Y-149819234D01*
X122685500Y-149819234D01*
X122646281Y-149672865D01*
X122646279Y-149672862D01*
X122646279Y-149672860D01*
X122570518Y-149541639D01*
X122570516Y-149541637D01*
X122570515Y-149541635D01*
X122463365Y-149434485D01*
X122463362Y-149434483D01*
X122463360Y-149434481D01*
X122332138Y-149358720D01*
X122332140Y-149358720D01*
X122275347Y-149343503D01*
X122185766Y-149319500D01*
X122034234Y-149319500D01*
X121944652Y-149343503D01*
X121887860Y-149358720D01*
X121756639Y-149434481D01*
X121649481Y-149541639D01*
X121573720Y-149672860D01*
X121573719Y-149672865D01*
X121534500Y-149819234D01*
X100500500Y-149819234D01*
X100500500Y-144428825D01*
X122032900Y-144428825D01*
X122032900Y-144573774D01*
X122070417Y-144713789D01*
X122142887Y-144839310D01*
X122142889Y-144839312D01*
X122142891Y-144839315D01*
X122245385Y-144941809D01*
X122245387Y-144941810D01*
X122245389Y-144941812D01*
X122370911Y-145014282D01*
X122370912Y-145014282D01*
X122370915Y-145014284D01*
X122510925Y-145051800D01*
X122510926Y-145051800D01*
X122655874Y-145051800D01*
X122655875Y-145051800D01*
X122795885Y-145014284D01*
X122795887Y-145014282D01*
X122795889Y-145014282D01*
X122921410Y-144941812D01*
X122921410Y-144941811D01*
X122921415Y-144941809D01*
X122939422Y-144923801D01*
X122957429Y-144905796D01*
X123011946Y-144878019D01*
X123027432Y-144876800D01*
X123445455Y-144876800D01*
X123503646Y-144895707D01*
X123515459Y-144905796D01*
X124812719Y-146203056D01*
X124840496Y-146257573D01*
X124830925Y-146318005D01*
X124792216Y-146358796D01*
X124661286Y-146434389D01*
X124625271Y-146470404D01*
X124570754Y-146498181D01*
X124555268Y-146499400D01*
X123069432Y-146499400D01*
X123011241Y-146480493D01*
X122999429Y-146470404D01*
X122938015Y-146408991D01*
X122938010Y-146408987D01*
X122812488Y-146336517D01*
X122812489Y-146336517D01*
X122767268Y-146324400D01*
X122672475Y-146299000D01*
X122527525Y-146299000D01*
X122465790Y-146315541D01*
X122387510Y-146336517D01*
X122261989Y-146408987D01*
X122159487Y-146511489D01*
X122087017Y-146637010D01*
X122049500Y-146777025D01*
X122049500Y-146921974D01*
X122087017Y-147061989D01*
X122159487Y-147187510D01*
X122159489Y-147187512D01*
X122159491Y-147187515D01*
X122261985Y-147290009D01*
X122261987Y-147290010D01*
X122261989Y-147290012D01*
X122387511Y-147362482D01*
X122387512Y-147362482D01*
X122387515Y-147362484D01*
X122527525Y-147400000D01*
X122527526Y-147400000D01*
X122672474Y-147400000D01*
X122672475Y-147400000D01*
X122812485Y-147362484D01*
X122812487Y-147362482D01*
X122812489Y-147362482D01*
X122938010Y-147290012D01*
X122938010Y-147290011D01*
X122938015Y-147290009D01*
X122948629Y-147279394D01*
X123003144Y-147251619D01*
X123018631Y-147250400D01*
X124555268Y-147250400D01*
X124613459Y-147269307D01*
X124625271Y-147279396D01*
X124661283Y-147315407D01*
X124661289Y-147315412D01*
X124786811Y-147387882D01*
X124786812Y-147387882D01*
X124786815Y-147387884D01*
X124926825Y-147425400D01*
X124977755Y-147425400D01*
X125035946Y-147444307D01*
X125047759Y-147454396D01*
X126185925Y-148592562D01*
X126185924Y-148592562D01*
X126255838Y-148662475D01*
X126341458Y-148711908D01*
X126341462Y-148711910D01*
X126389212Y-148724705D01*
X126389213Y-148724705D01*
X126436964Y-148737500D01*
X126436965Y-148737500D01*
X127185036Y-148737500D01*
X127232786Y-148724705D01*
X127232787Y-148724705D01*
X127280534Y-148711911D01*
X127280533Y-148711911D01*
X127280538Y-148711910D01*
X127366162Y-148662475D01*
X127436075Y-148592562D01*
X127436074Y-148592562D01*
X128229875Y-147798763D01*
X128279311Y-147713137D01*
X128304900Y-147617636D01*
X128304900Y-147518764D01*
X128304900Y-147512931D01*
X128323807Y-147454740D01*
X128333890Y-147442933D01*
X128370009Y-147406815D01*
X128422781Y-147315412D01*
X128442482Y-147281289D01*
X128442482Y-147281287D01*
X128442484Y-147281285D01*
X128480000Y-147141275D01*
X128480000Y-146996325D01*
X128442484Y-146856315D01*
X128442482Y-146856312D01*
X128442482Y-146856310D01*
X128370012Y-146730789D01*
X128370010Y-146730787D01*
X128370009Y-146730785D01*
X128267515Y-146628291D01*
X128267512Y-146628289D01*
X128267510Y-146628287D01*
X128141988Y-146555817D01*
X128141989Y-146555817D01*
X128112396Y-146547887D01*
X128001975Y-146518300D01*
X127857025Y-146518300D01*
X127795290Y-146534841D01*
X127717010Y-146555817D01*
X127591489Y-146628287D01*
X127488987Y-146730789D01*
X127416517Y-146856310D01*
X127398922Y-146921975D01*
X127379000Y-146996325D01*
X127379000Y-147141275D01*
X127390663Y-147184800D01*
X127399953Y-147219472D01*
X127396750Y-147280573D01*
X127358245Y-147328123D01*
X127299145Y-147343959D01*
X127242023Y-147322032D01*
X127234332Y-147315108D01*
X127214015Y-147294791D01*
X127214012Y-147294789D01*
X127214010Y-147294787D01*
X127088488Y-147222317D01*
X127088489Y-147222317D01*
X127058896Y-147214387D01*
X126948475Y-147184800D01*
X126948474Y-147184800D01*
X126897546Y-147184800D01*
X126839355Y-147165893D01*
X126827542Y-147155804D01*
X123872563Y-144200826D01*
X123872563Y-144200825D01*
X123786941Y-144151391D01*
X123786937Y-144151389D01*
X123699994Y-144128092D01*
X123699989Y-144128092D01*
X123691436Y-144125800D01*
X123691435Y-144125800D01*
X123027432Y-144125800D01*
X122969241Y-144106893D01*
X122957429Y-144096804D01*
X122921416Y-144060792D01*
X122921410Y-144060787D01*
X122795888Y-143988317D01*
X122795889Y-143988317D01*
X122766296Y-143980387D01*
X122655875Y-143950800D01*
X122510925Y-143950800D01*
X122449190Y-143967341D01*
X122370910Y-143988317D01*
X122245389Y-144060787D01*
X122142887Y-144163289D01*
X122070417Y-144288810D01*
X122032900Y-144428825D01*
X100500500Y-144428825D01*
X100500500Y-142716925D01*
X104227500Y-142716925D01*
X104227500Y-142861874D01*
X104265017Y-143001889D01*
X104337487Y-143127410D01*
X104337489Y-143127412D01*
X104337491Y-143127415D01*
X104439985Y-143229909D01*
X104439987Y-143229910D01*
X104439989Y-143229912D01*
X104565511Y-143302382D01*
X104565512Y-143302382D01*
X104565515Y-143302384D01*
X104705525Y-143339900D01*
X104705526Y-143339900D01*
X104850474Y-143339900D01*
X104850475Y-143339900D01*
X104990485Y-143302384D01*
X104990487Y-143302382D01*
X104990489Y-143302382D01*
X105116010Y-143229912D01*
X105116010Y-143229911D01*
X105116015Y-143229909D01*
X105134022Y-143211901D01*
X105152029Y-143193896D01*
X105206546Y-143166119D01*
X105222032Y-143164900D01*
X125040136Y-143164900D01*
X125087886Y-143152105D01*
X125087887Y-143152105D01*
X125135634Y-143139311D01*
X125135633Y-143139311D01*
X125135638Y-143139310D01*
X125221262Y-143089875D01*
X125291175Y-143019962D01*
X130858041Y-137453096D01*
X130912558Y-137425319D01*
X130928045Y-137424100D01*
X130978974Y-137424100D01*
X130978975Y-137424100D01*
X131118985Y-137386584D01*
X131118987Y-137386582D01*
X131118989Y-137386582D01*
X131244510Y-137314112D01*
X131244510Y-137314111D01*
X131244515Y-137314109D01*
X131347009Y-137211615D01*
X131419484Y-137086085D01*
X131457000Y-136946075D01*
X131457000Y-136801125D01*
X131419484Y-136661115D01*
X131419482Y-136661112D01*
X131419482Y-136661110D01*
X131347012Y-136535589D01*
X131347010Y-136535587D01*
X131347009Y-136535585D01*
X131244515Y-136433091D01*
X131244512Y-136433089D01*
X131244510Y-136433087D01*
X131118988Y-136360617D01*
X131118989Y-136360617D01*
X131089396Y-136352687D01*
X130978975Y-136323100D01*
X130834025Y-136323100D01*
X130772290Y-136339641D01*
X130694010Y-136360617D01*
X130568489Y-136433087D01*
X130465987Y-136535589D01*
X130393517Y-136661110D01*
X130356000Y-136801125D01*
X130356000Y-136852055D01*
X130337093Y-136910246D01*
X130327004Y-136922059D01*
X124864159Y-142384904D01*
X124809642Y-142412681D01*
X124794155Y-142413900D01*
X105222032Y-142413900D01*
X105163841Y-142394993D01*
X105152029Y-142384904D01*
X105116016Y-142348892D01*
X105116010Y-142348887D01*
X104990488Y-142276417D01*
X104990489Y-142276417D01*
X104960896Y-142268487D01*
X104850475Y-142238900D01*
X104705525Y-142238900D01*
X104643790Y-142255441D01*
X104565510Y-142276417D01*
X104439989Y-142348887D01*
X104337487Y-142451389D01*
X104265017Y-142576910D01*
X104227500Y-142716925D01*
X100500500Y-142716925D01*
X100500500Y-130018425D01*
X118771900Y-130018425D01*
X118771900Y-130163374D01*
X118809417Y-130303389D01*
X118881887Y-130428910D01*
X118881889Y-130428912D01*
X118881891Y-130428915D01*
X118984385Y-130531409D01*
X118984387Y-130531410D01*
X118984389Y-130531412D01*
X119109911Y-130603882D01*
X119109912Y-130603882D01*
X119109915Y-130603884D01*
X119249925Y-130641400D01*
X119249926Y-130641400D01*
X119394874Y-130641400D01*
X119394875Y-130641400D01*
X119534885Y-130603884D01*
X119534887Y-130603882D01*
X119534889Y-130603882D01*
X119660410Y-130531412D01*
X119660410Y-130531411D01*
X119660415Y-130531409D01*
X119678422Y-130513401D01*
X119696429Y-130495396D01*
X119750946Y-130467619D01*
X119766432Y-130466400D01*
X133752255Y-130466400D01*
X133810446Y-130485307D01*
X133822259Y-130495396D01*
X143167704Y-139840841D01*
X143195481Y-139895358D01*
X143196700Y-139910845D01*
X143196700Y-139961775D01*
X143217370Y-140038915D01*
X143234217Y-140101789D01*
X143306687Y-140227310D01*
X143306689Y-140227312D01*
X143306691Y-140227315D01*
X143409185Y-140329809D01*
X143409187Y-140329810D01*
X143409189Y-140329812D01*
X143534711Y-140402282D01*
X143534712Y-140402282D01*
X143534715Y-140402284D01*
X143674725Y-140439800D01*
X143674726Y-140439800D01*
X143819674Y-140439800D01*
X143819675Y-140439800D01*
X143959685Y-140402284D01*
X143959687Y-140402282D01*
X143959689Y-140402282D01*
X144085210Y-140329812D01*
X144085210Y-140329811D01*
X144085215Y-140329809D01*
X144187709Y-140227315D01*
X144187712Y-140227310D01*
X144246262Y-140125900D01*
X144291731Y-140084959D01*
X144331998Y-140076400D01*
X145937468Y-140076400D01*
X145995659Y-140095307D01*
X146007471Y-140105396D01*
X146043483Y-140141407D01*
X146043489Y-140141412D01*
X146169011Y-140213882D01*
X146169012Y-140213882D01*
X146169015Y-140213884D01*
X146309025Y-140251400D01*
X146309026Y-140251400D01*
X146453974Y-140251400D01*
X146453975Y-140251400D01*
X146593985Y-140213884D01*
X146593987Y-140213882D01*
X146593989Y-140213882D01*
X146719510Y-140141412D01*
X146719510Y-140141411D01*
X146719515Y-140141409D01*
X146822009Y-140038915D01*
X146894484Y-139913385D01*
X146932000Y-139773375D01*
X146932000Y-139628425D01*
X146894484Y-139488415D01*
X146894482Y-139488412D01*
X146894482Y-139488410D01*
X146822012Y-139362889D01*
X146822010Y-139362887D01*
X146822009Y-139362885D01*
X146719515Y-139260391D01*
X146719512Y-139260389D01*
X146719510Y-139260387D01*
X146593988Y-139187917D01*
X146593989Y-139187917D01*
X146564396Y-139179987D01*
X146453975Y-139150400D01*
X146309025Y-139150400D01*
X146247290Y-139166941D01*
X146169010Y-139187917D01*
X146043489Y-139260387D01*
X146043483Y-139260392D01*
X146007471Y-139296404D01*
X145952954Y-139324181D01*
X145937468Y-139325400D01*
X143886162Y-139325400D01*
X143877613Y-139327691D01*
X143877607Y-139327693D01*
X143848741Y-139335427D01*
X143823120Y-139338800D01*
X143768745Y-139338800D01*
X143710554Y-139319893D01*
X143698741Y-139309804D01*
X134179363Y-129790426D01*
X134179363Y-129790425D01*
X134093741Y-129740991D01*
X134093737Y-129740989D01*
X134006794Y-129717692D01*
X134006789Y-129717692D01*
X133998236Y-129715400D01*
X133998235Y-129715400D01*
X119766432Y-129715400D01*
X119708241Y-129696493D01*
X119696429Y-129686404D01*
X119660416Y-129650392D01*
X119660410Y-129650387D01*
X119534888Y-129577917D01*
X119534889Y-129577917D01*
X119505296Y-129569987D01*
X119394875Y-129540400D01*
X119249925Y-129540400D01*
X119188190Y-129556941D01*
X119109910Y-129577917D01*
X118984389Y-129650387D01*
X118881887Y-129752889D01*
X118809417Y-129878410D01*
X118771900Y-130018425D01*
X100500500Y-130018425D01*
X100500500Y-124969525D01*
X102851900Y-124969525D01*
X102851900Y-125114474D01*
X102889417Y-125254489D01*
X102961887Y-125380010D01*
X102961889Y-125380012D01*
X102961891Y-125380015D01*
X103064385Y-125482509D01*
X103064387Y-125482510D01*
X103064389Y-125482512D01*
X103189911Y-125554982D01*
X103189912Y-125554982D01*
X103189915Y-125554984D01*
X103329925Y-125592500D01*
X103329926Y-125592500D01*
X103474874Y-125592500D01*
X103474875Y-125592500D01*
X103614885Y-125554984D01*
X103614887Y-125554982D01*
X103614889Y-125554982D01*
X103740410Y-125482512D01*
X103740410Y-125482511D01*
X103740415Y-125482509D01*
X103758422Y-125464501D01*
X103776429Y-125446496D01*
X103830946Y-125418719D01*
X103846432Y-125417500D01*
X109143336Y-125417500D01*
X109191086Y-125404705D01*
X109191087Y-125404705D01*
X109238834Y-125391911D01*
X109238833Y-125391911D01*
X109238838Y-125391910D01*
X109324462Y-125342475D01*
X109394375Y-125272562D01*
X110773552Y-123893385D01*
X144899500Y-123893385D01*
X144899500Y-124066614D01*
X144926597Y-124237702D01*
X144926598Y-124237706D01*
X144980123Y-124402438D01*
X144980125Y-124402441D01*
X145044617Y-124529016D01*
X145058768Y-124556788D01*
X145160586Y-124696928D01*
X145283072Y-124819414D01*
X145423212Y-124921232D01*
X145577555Y-124999873D01*
X145577557Y-124999873D01*
X145577558Y-124999874D01*
X145577561Y-124999876D01*
X145742293Y-125053401D01*
X145742297Y-125053402D01*
X145913386Y-125080500D01*
X145913389Y-125080500D01*
X146086614Y-125080500D01*
X146257702Y-125053402D01*
X146257706Y-125053401D01*
X146422438Y-124999876D01*
X146422440Y-124999874D01*
X146422445Y-124999873D01*
X146576788Y-124921232D01*
X146716928Y-124819414D01*
X146839414Y-124696928D01*
X146941232Y-124556788D01*
X147019873Y-124402445D01*
X147019874Y-124402440D01*
X147019876Y-124402438D01*
X147073401Y-124237706D01*
X147073402Y-124237702D01*
X147100500Y-124066614D01*
X147100500Y-123893385D01*
X147073402Y-123722297D01*
X147073401Y-123722293D01*
X147019876Y-123557561D01*
X147019874Y-123557558D01*
X147019873Y-123557557D01*
X147019873Y-123557555D01*
X146941232Y-123403212D01*
X146839414Y-123263072D01*
X146716928Y-123140586D01*
X146576788Y-123038768D01*
X146576787Y-123038767D01*
X146576785Y-123038766D01*
X146422441Y-122960125D01*
X146422438Y-122960123D01*
X146257706Y-122906598D01*
X146257702Y-122906597D01*
X146086614Y-122879500D01*
X146086611Y-122879500D01*
X145913389Y-122879500D01*
X145913386Y-122879500D01*
X145742297Y-122906597D01*
X145742293Y-122906598D01*
X145577561Y-122960123D01*
X145577558Y-122960125D01*
X145423214Y-123038766D01*
X145283073Y-123140585D01*
X145160585Y-123263073D01*
X145058766Y-123403214D01*
X144980125Y-123557558D01*
X144980123Y-123557561D01*
X144926598Y-123722293D01*
X144926597Y-123722297D01*
X144899500Y-123893385D01*
X110773552Y-123893385D01*
X112471541Y-122195396D01*
X112526058Y-122167619D01*
X112541545Y-122166400D01*
X112592474Y-122166400D01*
X112592475Y-122166400D01*
X112732485Y-122128884D01*
X112732487Y-122128882D01*
X112732489Y-122128882D01*
X112858010Y-122056412D01*
X112858010Y-122056411D01*
X112858015Y-122056409D01*
X112960509Y-121953915D01*
X112960512Y-121953910D01*
X113032982Y-121828389D01*
X113032982Y-121828387D01*
X113032984Y-121828385D01*
X113070500Y-121688375D01*
X113070500Y-121543425D01*
X113032984Y-121403415D01*
X113030436Y-121399001D01*
X113030435Y-121398999D01*
X113004100Y-121353385D01*
X144899500Y-121353385D01*
X144899500Y-121526614D01*
X144926597Y-121697702D01*
X144926598Y-121697706D01*
X144980123Y-121862438D01*
X144980125Y-121862441D01*
X144980126Y-121862444D01*
X144980127Y-121862445D01*
X145058768Y-122016788D01*
X145160586Y-122156928D01*
X145283072Y-122279414D01*
X145423212Y-122381232D01*
X145577555Y-122459873D01*
X145577557Y-122459873D01*
X145577558Y-122459874D01*
X145577561Y-122459876D01*
X145742293Y-122513401D01*
X145742297Y-122513402D01*
X145913386Y-122540500D01*
X145913389Y-122540500D01*
X146086614Y-122540500D01*
X146257702Y-122513402D01*
X146257706Y-122513401D01*
X146422438Y-122459876D01*
X146422440Y-122459874D01*
X146422445Y-122459873D01*
X146576788Y-122381232D01*
X146716928Y-122279414D01*
X146839414Y-122156928D01*
X146941232Y-122016788D01*
X147019873Y-121862445D01*
X147019874Y-121862440D01*
X147019876Y-121862438D01*
X147073401Y-121697706D01*
X147073402Y-121697702D01*
X147100500Y-121526614D01*
X147100500Y-121353385D01*
X147073402Y-121182297D01*
X147073401Y-121182293D01*
X147019876Y-121017561D01*
X147019874Y-121017558D01*
X147019873Y-121017557D01*
X147019873Y-121017555D01*
X146941232Y-120863212D01*
X146839414Y-120723072D01*
X146716928Y-120600586D01*
X146576788Y-120498768D01*
X146576787Y-120498767D01*
X146576785Y-120498766D01*
X146422441Y-120420125D01*
X146422438Y-120420123D01*
X146257706Y-120366598D01*
X146257702Y-120366597D01*
X146086614Y-120339500D01*
X146086611Y-120339500D01*
X145913389Y-120339500D01*
X145913386Y-120339500D01*
X145742297Y-120366597D01*
X145742293Y-120366598D01*
X145577561Y-120420123D01*
X145577558Y-120420125D01*
X145423214Y-120498766D01*
X145283073Y-120600585D01*
X145160585Y-120723073D01*
X145058766Y-120863214D01*
X144980125Y-121017558D01*
X144980123Y-121017561D01*
X144926598Y-121182293D01*
X144926597Y-121182297D01*
X144899500Y-121353385D01*
X113004100Y-121353385D01*
X112960512Y-121277889D01*
X112960510Y-121277887D01*
X112960509Y-121277885D01*
X112858015Y-121175391D01*
X112858012Y-121175389D01*
X112858010Y-121175387D01*
X112732488Y-121102917D01*
X112732489Y-121102917D01*
X112702896Y-121094987D01*
X112592475Y-121065400D01*
X112447525Y-121065400D01*
X112385790Y-121081941D01*
X112307510Y-121102917D01*
X112181989Y-121175387D01*
X112079487Y-121277889D01*
X112007017Y-121403410D01*
X111969500Y-121543425D01*
X111969500Y-121594355D01*
X111950593Y-121652546D01*
X111940504Y-121664359D01*
X108967359Y-124637504D01*
X108912842Y-124665281D01*
X108897355Y-124666500D01*
X103846432Y-124666500D01*
X103788241Y-124647593D01*
X103776429Y-124637504D01*
X103740416Y-124601492D01*
X103740410Y-124601487D01*
X103614888Y-124529017D01*
X103614889Y-124529017D01*
X103585296Y-124521087D01*
X103474875Y-124491500D01*
X103329925Y-124491500D01*
X103268190Y-124508041D01*
X103189910Y-124529017D01*
X103064389Y-124601487D01*
X102961887Y-124703989D01*
X102889417Y-124829510D01*
X102851900Y-124969525D01*
X100500500Y-124969525D01*
X100500500Y-119988725D01*
X109748100Y-119988725D01*
X109748100Y-120133674D01*
X109785617Y-120273689D01*
X109858087Y-120399210D01*
X109858089Y-120399212D01*
X109858091Y-120399215D01*
X109960585Y-120501709D01*
X109960587Y-120501710D01*
X109960589Y-120501712D01*
X110086111Y-120574182D01*
X110086112Y-120574182D01*
X110086115Y-120574184D01*
X110226125Y-120611700D01*
X110226126Y-120611700D01*
X110371074Y-120611700D01*
X110371075Y-120611700D01*
X110511085Y-120574184D01*
X110511087Y-120574182D01*
X110511089Y-120574182D01*
X110636610Y-120501712D01*
X110636610Y-120501711D01*
X110636615Y-120501709D01*
X110654622Y-120483701D01*
X110672629Y-120465696D01*
X110727146Y-120437919D01*
X110742632Y-120436700D01*
X115572635Y-120436700D01*
X115572636Y-120436700D01*
X115634486Y-120420127D01*
X115668138Y-120411110D01*
X115753762Y-120361675D01*
X115823675Y-120291762D01*
X115823674Y-120291762D01*
X116409742Y-119705696D01*
X116464258Y-119677919D01*
X116479745Y-119676700D01*
X116530674Y-119676700D01*
X116530675Y-119676700D01*
X116670685Y-119639184D01*
X116670687Y-119639182D01*
X116670689Y-119639182D01*
X116796210Y-119566712D01*
X116796210Y-119566711D01*
X116796215Y-119566709D01*
X116898709Y-119464215D01*
X116971184Y-119338685D01*
X117008700Y-119198675D01*
X117008700Y-119053725D01*
X116971184Y-118913715D01*
X116913258Y-118813385D01*
X144899500Y-118813385D01*
X144899500Y-118986614D01*
X144926597Y-119157702D01*
X144926598Y-119157706D01*
X144980123Y-119322438D01*
X144980125Y-119322441D01*
X145052361Y-119464215D01*
X145058768Y-119476788D01*
X145160586Y-119616928D01*
X145283072Y-119739414D01*
X145423212Y-119841232D01*
X145577555Y-119919873D01*
X145577557Y-119919873D01*
X145577558Y-119919874D01*
X145577561Y-119919876D01*
X145742293Y-119973401D01*
X145742297Y-119973402D01*
X145913386Y-120000500D01*
X145913389Y-120000500D01*
X146086614Y-120000500D01*
X146257702Y-119973402D01*
X146257706Y-119973401D01*
X146422438Y-119919876D01*
X146422440Y-119919874D01*
X146422445Y-119919873D01*
X146576788Y-119841232D01*
X146716928Y-119739414D01*
X146839414Y-119616928D01*
X146941232Y-119476788D01*
X147019873Y-119322445D01*
X147019874Y-119322440D01*
X147019876Y-119322438D01*
X147073401Y-119157706D01*
X147073402Y-119157702D01*
X147100500Y-118986614D01*
X147100500Y-118813385D01*
X147073402Y-118642297D01*
X147073401Y-118642293D01*
X147019876Y-118477561D01*
X147019874Y-118477558D01*
X147019873Y-118477557D01*
X147019873Y-118477555D01*
X146941232Y-118323212D01*
X146839414Y-118183072D01*
X146716928Y-118060586D01*
X146576788Y-117958768D01*
X146576787Y-117958767D01*
X146576785Y-117958766D01*
X146422441Y-117880125D01*
X146422438Y-117880123D01*
X146257706Y-117826598D01*
X146257702Y-117826597D01*
X146086614Y-117799500D01*
X146086611Y-117799500D01*
X145913389Y-117799500D01*
X145913386Y-117799500D01*
X145742297Y-117826597D01*
X145742293Y-117826598D01*
X145577561Y-117880123D01*
X145577558Y-117880125D01*
X145423214Y-117958766D01*
X145283073Y-118060585D01*
X145160585Y-118183073D01*
X145058766Y-118323214D01*
X144980125Y-118477558D01*
X144980123Y-118477561D01*
X144926598Y-118642293D01*
X144926597Y-118642297D01*
X144899500Y-118813385D01*
X116913258Y-118813385D01*
X116898709Y-118788185D01*
X116796215Y-118685691D01*
X116796212Y-118685689D01*
X116796210Y-118685687D01*
X116670688Y-118613217D01*
X116670689Y-118613217D01*
X116641096Y-118605287D01*
X116530675Y-118575700D01*
X116385725Y-118575700D01*
X116323990Y-118592241D01*
X116245710Y-118613217D01*
X116120189Y-118685687D01*
X116017687Y-118788189D01*
X115945217Y-118913710D01*
X115907700Y-119053725D01*
X115907700Y-119104654D01*
X115888793Y-119162845D01*
X115878704Y-119174657D01*
X115396659Y-119656703D01*
X115342142Y-119684481D01*
X115326655Y-119685700D01*
X110742632Y-119685700D01*
X110684441Y-119666793D01*
X110672629Y-119656704D01*
X110636616Y-119620692D01*
X110636610Y-119620687D01*
X110511088Y-119548217D01*
X110511089Y-119548217D01*
X110481496Y-119540287D01*
X110371075Y-119510700D01*
X110226125Y-119510700D01*
X110164390Y-119527241D01*
X110086110Y-119548217D01*
X109960589Y-119620687D01*
X109858087Y-119723189D01*
X109785617Y-119848710D01*
X109748100Y-119988725D01*
X100500500Y-119988725D01*
X100500500Y-116273385D01*
X144899500Y-116273385D01*
X144899500Y-116446614D01*
X144926597Y-116617702D01*
X144926598Y-116617706D01*
X144980123Y-116782438D01*
X144980125Y-116782441D01*
X144980126Y-116782444D01*
X144980127Y-116782445D01*
X145058768Y-116936788D01*
X145160586Y-117076928D01*
X145283072Y-117199414D01*
X145423212Y-117301232D01*
X145577555Y-117379873D01*
X145577557Y-117379873D01*
X145577558Y-117379874D01*
X145577561Y-117379876D01*
X145742293Y-117433401D01*
X145742297Y-117433402D01*
X145913386Y-117460500D01*
X145913389Y-117460500D01*
X146086614Y-117460500D01*
X146257702Y-117433402D01*
X146257706Y-117433401D01*
X146422438Y-117379876D01*
X146422440Y-117379874D01*
X146422445Y-117379873D01*
X146576788Y-117301232D01*
X146716928Y-117199414D01*
X146839414Y-117076928D01*
X146941232Y-116936788D01*
X147019873Y-116782445D01*
X147019874Y-116782440D01*
X147019876Y-116782438D01*
X147073401Y-116617706D01*
X147073402Y-116617702D01*
X147100500Y-116446614D01*
X147100500Y-116273385D01*
X147073402Y-116102297D01*
X147073401Y-116102293D01*
X147019876Y-115937561D01*
X147019874Y-115937558D01*
X147019873Y-115937557D01*
X147019873Y-115937555D01*
X146941232Y-115783212D01*
X146839414Y-115643072D01*
X146716928Y-115520586D01*
X146576788Y-115418768D01*
X146576787Y-115418767D01*
X146576785Y-115418766D01*
X146422441Y-115340125D01*
X146422438Y-115340123D01*
X146257706Y-115286598D01*
X146257702Y-115286597D01*
X146086614Y-115259500D01*
X146086611Y-115259500D01*
X145913389Y-115259500D01*
X145913386Y-115259500D01*
X145742297Y-115286597D01*
X145742293Y-115286598D01*
X145577561Y-115340123D01*
X145577558Y-115340125D01*
X145423214Y-115418766D01*
X145283073Y-115520585D01*
X145160585Y-115643073D01*
X145058766Y-115783214D01*
X144980125Y-115937558D01*
X144980123Y-115937561D01*
X144926598Y-116102293D01*
X144926597Y-116102297D01*
X144899500Y-116273385D01*
X100500500Y-116273385D01*
X100500500Y-110180025D01*
X117743300Y-110180025D01*
X117743300Y-110324975D01*
X117746996Y-110338768D01*
X117780817Y-110464989D01*
X117853287Y-110590510D01*
X117853289Y-110590512D01*
X117853291Y-110590515D01*
X117955785Y-110693009D01*
X117955787Y-110693010D01*
X117955789Y-110693012D01*
X118081311Y-110765482D01*
X118081312Y-110765482D01*
X118081315Y-110765484D01*
X118221325Y-110803000D01*
X118272255Y-110803000D01*
X118330446Y-110821907D01*
X118342258Y-110831995D01*
X121630737Y-114120475D01*
X121673547Y-114145190D01*
X121673549Y-114145192D01*
X121673550Y-114145192D01*
X121716362Y-114169910D01*
X121764112Y-114182705D01*
X121764113Y-114182705D01*
X121811864Y-114195500D01*
X121811865Y-114195500D01*
X144895540Y-114195500D01*
X144953731Y-114214407D01*
X144983750Y-114249555D01*
X145058766Y-114396786D01*
X145114451Y-114473430D01*
X145160586Y-114536928D01*
X145283072Y-114659414D01*
X145423212Y-114761232D01*
X145577555Y-114839873D01*
X145577557Y-114839873D01*
X145577558Y-114839874D01*
X145577561Y-114839876D01*
X145742293Y-114893401D01*
X145742297Y-114893402D01*
X145913386Y-114920500D01*
X145913389Y-114920500D01*
X146086614Y-114920500D01*
X146257702Y-114893402D01*
X146257706Y-114893401D01*
X146422438Y-114839876D01*
X146422440Y-114839874D01*
X146422445Y-114839873D01*
X146576788Y-114761232D01*
X146716928Y-114659414D01*
X146839414Y-114536928D01*
X146941232Y-114396788D01*
X147019873Y-114242445D01*
X147019874Y-114242440D01*
X147019876Y-114242438D01*
X147073401Y-114077706D01*
X147073402Y-114077702D01*
X147100500Y-113906614D01*
X147100500Y-113733385D01*
X147073402Y-113562297D01*
X147073401Y-113562293D01*
X147019876Y-113397561D01*
X147019874Y-113397558D01*
X147019873Y-113397557D01*
X147019873Y-113397555D01*
X146941232Y-113243212D01*
X146839414Y-113103072D01*
X146716928Y-112980586D01*
X146576788Y-112878768D01*
X146576787Y-112878767D01*
X146576785Y-112878766D01*
X146422441Y-112800125D01*
X146422438Y-112800123D01*
X146257706Y-112746598D01*
X146257702Y-112746597D01*
X146086614Y-112719500D01*
X146086611Y-112719500D01*
X145913389Y-112719500D01*
X145913386Y-112719500D01*
X145742297Y-112746597D01*
X145742293Y-112746598D01*
X145577561Y-112800123D01*
X145577558Y-112800125D01*
X145423214Y-112878766D01*
X145283073Y-112980585D01*
X145160585Y-113103073D01*
X145058766Y-113243213D01*
X144983750Y-113390445D01*
X144940486Y-113433709D01*
X144895540Y-113444500D01*
X122057846Y-113444500D01*
X121999655Y-113425593D01*
X121987842Y-113415504D01*
X118873296Y-110300958D01*
X118845519Y-110246441D01*
X118844300Y-110230954D01*
X118844300Y-110180025D01*
X118844159Y-110179500D01*
X118806784Y-110040015D01*
X118806782Y-110040012D01*
X118806782Y-110040010D01*
X118734312Y-109914489D01*
X118734310Y-109914487D01*
X118734309Y-109914485D01*
X118631815Y-109811991D01*
X118631812Y-109811989D01*
X118631810Y-109811987D01*
X118506288Y-109739517D01*
X118506289Y-109739517D01*
X118476696Y-109731587D01*
X118366275Y-109702000D01*
X118221325Y-109702000D01*
X118159590Y-109718541D01*
X118081310Y-109739517D01*
X117955789Y-109811987D01*
X117853287Y-109914489D01*
X117780817Y-110040010D01*
X117771448Y-110074975D01*
X117743300Y-110180025D01*
X100500500Y-110180025D01*
X100500500Y-107596825D01*
X119689600Y-107596825D01*
X119689600Y-107741775D01*
X119719187Y-107852196D01*
X119727117Y-107881789D01*
X119799587Y-108007310D01*
X119799589Y-108007312D01*
X119799591Y-108007315D01*
X119902085Y-108109809D01*
X119902087Y-108109810D01*
X119902089Y-108109812D01*
X120027611Y-108182282D01*
X120027612Y-108182282D01*
X120027615Y-108182284D01*
X120167625Y-108219800D01*
X120218555Y-108219800D01*
X120276746Y-108238707D01*
X120288559Y-108248796D01*
X123550325Y-111510562D01*
X123550324Y-111510562D01*
X123620238Y-111580475D01*
X123705858Y-111629908D01*
X123705862Y-111629910D01*
X123753612Y-111642705D01*
X123753613Y-111642705D01*
X123801364Y-111655500D01*
X123801365Y-111655500D01*
X144895540Y-111655500D01*
X144953731Y-111674407D01*
X144983750Y-111709555D01*
X145058766Y-111856786D01*
X145114451Y-111933430D01*
X145160586Y-111996928D01*
X145283072Y-112119414D01*
X145423212Y-112221232D01*
X145577555Y-112299873D01*
X145577557Y-112299873D01*
X145577558Y-112299874D01*
X145577561Y-112299876D01*
X145742293Y-112353401D01*
X145742297Y-112353402D01*
X145913386Y-112380500D01*
X145913389Y-112380500D01*
X146086614Y-112380500D01*
X146257702Y-112353402D01*
X146257706Y-112353401D01*
X146422438Y-112299876D01*
X146422440Y-112299874D01*
X146422445Y-112299873D01*
X146576788Y-112221232D01*
X146716928Y-112119414D01*
X146839414Y-111996928D01*
X146941232Y-111856788D01*
X147019873Y-111702445D01*
X147019874Y-111702440D01*
X147019876Y-111702438D01*
X147073401Y-111537706D01*
X147073402Y-111537702D01*
X147100500Y-111366614D01*
X147100500Y-111193385D01*
X147073402Y-111022297D01*
X147073401Y-111022293D01*
X147019876Y-110857561D01*
X147019874Y-110857558D01*
X147019873Y-110857557D01*
X147019873Y-110857555D01*
X146941232Y-110703212D01*
X146839414Y-110563072D01*
X146716928Y-110440586D01*
X146576788Y-110338768D01*
X146576787Y-110338767D01*
X146576785Y-110338766D01*
X146422441Y-110260125D01*
X146422438Y-110260123D01*
X146257706Y-110206598D01*
X146257702Y-110206597D01*
X146086614Y-110179500D01*
X146086611Y-110179500D01*
X145913389Y-110179500D01*
X145913386Y-110179500D01*
X145742297Y-110206597D01*
X145742293Y-110206598D01*
X145577561Y-110260123D01*
X145577558Y-110260125D01*
X145423214Y-110338766D01*
X145283073Y-110440585D01*
X145160585Y-110563073D01*
X145058766Y-110703213D01*
X144983750Y-110850445D01*
X144940486Y-110893709D01*
X144895540Y-110904500D01*
X124047345Y-110904500D01*
X123989154Y-110885593D01*
X123977341Y-110875504D01*
X123031862Y-109930025D01*
X124391200Y-109930025D01*
X124391200Y-110074974D01*
X124428717Y-110214989D01*
X124501187Y-110340510D01*
X124501189Y-110340512D01*
X124501191Y-110340515D01*
X124603685Y-110443009D01*
X124603687Y-110443010D01*
X124603689Y-110443012D01*
X124729211Y-110515482D01*
X124729212Y-110515482D01*
X124729215Y-110515484D01*
X124869225Y-110553000D01*
X124869226Y-110553000D01*
X125014174Y-110553000D01*
X125014175Y-110553000D01*
X125154185Y-110515484D01*
X125154187Y-110515482D01*
X125154189Y-110515482D01*
X125279710Y-110443012D01*
X125279710Y-110443011D01*
X125279715Y-110443009D01*
X125297722Y-110425001D01*
X125315729Y-110406996D01*
X125370246Y-110379219D01*
X125385732Y-110378000D01*
X144786936Y-110378000D01*
X144834686Y-110365205D01*
X144834687Y-110365205D01*
X144882434Y-110352411D01*
X144882433Y-110352411D01*
X144882438Y-110352410D01*
X144968062Y-110302975D01*
X145037975Y-110233062D01*
X145037974Y-110233062D01*
X145484546Y-109786490D01*
X145539063Y-109758712D01*
X145585143Y-109762339D01*
X145742293Y-109813401D01*
X145742297Y-109813402D01*
X145913386Y-109840500D01*
X145913389Y-109840500D01*
X146086614Y-109840500D01*
X146257702Y-109813402D01*
X146257706Y-109813401D01*
X146422438Y-109759876D01*
X146422440Y-109759874D01*
X146422445Y-109759873D01*
X146576788Y-109681232D01*
X146716928Y-109579414D01*
X146839414Y-109456928D01*
X146941232Y-109316788D01*
X147019873Y-109162445D01*
X147019874Y-109162440D01*
X147019876Y-109162438D01*
X147073401Y-108997706D01*
X147073402Y-108997702D01*
X147100500Y-108826614D01*
X147100500Y-108653385D01*
X147073402Y-108482297D01*
X147073401Y-108482293D01*
X147019876Y-108317561D01*
X147019874Y-108317558D01*
X147019873Y-108317557D01*
X147019873Y-108317555D01*
X146941232Y-108163212D01*
X146839414Y-108023072D01*
X146716928Y-107900586D01*
X146576788Y-107798768D01*
X146576787Y-107798767D01*
X146576785Y-107798766D01*
X146422441Y-107720125D01*
X146422438Y-107720123D01*
X146257706Y-107666598D01*
X146257702Y-107666597D01*
X146086614Y-107639500D01*
X146086611Y-107639500D01*
X145913389Y-107639500D01*
X145913386Y-107639500D01*
X145742297Y-107666597D01*
X145742293Y-107666598D01*
X145577561Y-107720123D01*
X145577558Y-107720125D01*
X145423214Y-107798766D01*
X145283073Y-107900585D01*
X145160585Y-108023073D01*
X145058766Y-108163214D01*
X144980125Y-108317558D01*
X144980123Y-108317561D01*
X144926598Y-108482293D01*
X144926597Y-108482297D01*
X144899500Y-108653385D01*
X144899500Y-108826614D01*
X144926597Y-108997702D01*
X144926598Y-108997706D01*
X144977660Y-109154855D01*
X144977661Y-109216040D01*
X144953510Y-109255451D01*
X144610960Y-109598003D01*
X144556443Y-109625781D01*
X144540956Y-109627000D01*
X125385732Y-109627000D01*
X125327541Y-109608093D01*
X125315729Y-109598004D01*
X125279716Y-109561992D01*
X125279710Y-109561987D01*
X125154188Y-109489517D01*
X125154189Y-109489517D01*
X125032566Y-109456928D01*
X125014175Y-109452000D01*
X124869225Y-109452000D01*
X124850834Y-109456928D01*
X124729210Y-109489517D01*
X124603689Y-109561987D01*
X124501187Y-109664489D01*
X124428717Y-109790010D01*
X124391200Y-109930025D01*
X123031862Y-109930025D01*
X120819596Y-107717759D01*
X120791819Y-107663242D01*
X120790600Y-107647755D01*
X120790600Y-107596825D01*
X120753084Y-107456815D01*
X120753082Y-107456812D01*
X120753082Y-107456810D01*
X120680612Y-107331289D01*
X120680610Y-107331287D01*
X120680609Y-107331285D01*
X120578115Y-107228791D01*
X120578112Y-107228789D01*
X120578110Y-107228787D01*
X120452588Y-107156317D01*
X120452589Y-107156317D01*
X120422996Y-107148387D01*
X120312575Y-107118800D01*
X120167625Y-107118800D01*
X120105890Y-107135341D01*
X120027610Y-107156317D01*
X119902089Y-107228787D01*
X119799587Y-107331289D01*
X119727117Y-107456810D01*
X119727116Y-107456815D01*
X119689600Y-107596825D01*
X100500500Y-107596825D01*
X100500500Y-104233725D01*
X116977700Y-104233725D01*
X116977700Y-104378674D01*
X117015217Y-104518689D01*
X117087687Y-104644210D01*
X117087689Y-104644212D01*
X117087691Y-104644215D01*
X117190185Y-104746709D01*
X117190187Y-104746710D01*
X117190189Y-104746712D01*
X117315711Y-104819182D01*
X117315712Y-104819182D01*
X117315715Y-104819184D01*
X117455725Y-104856700D01*
X117455726Y-104856700D01*
X117600674Y-104856700D01*
X117600675Y-104856700D01*
X117740685Y-104819184D01*
X117740687Y-104819182D01*
X117740689Y-104819182D01*
X117866210Y-104746712D01*
X117866210Y-104746711D01*
X117866215Y-104746709D01*
X117884222Y-104728701D01*
X117902229Y-104710696D01*
X117956746Y-104682919D01*
X117972232Y-104681700D01*
X138793507Y-104681700D01*
X138851698Y-104700607D01*
X138887662Y-104750107D01*
X138889133Y-104755076D01*
X138922415Y-104879284D01*
X138922417Y-104879288D01*
X138994887Y-105004810D01*
X138994889Y-105004812D01*
X138994891Y-105004815D01*
X139097385Y-105107309D01*
X139097387Y-105107310D01*
X139097389Y-105107312D01*
X139222911Y-105179782D01*
X139222912Y-105179782D01*
X139222915Y-105179784D01*
X139362925Y-105217300D01*
X139362926Y-105217300D01*
X139507874Y-105217300D01*
X139507875Y-105217300D01*
X139647885Y-105179784D01*
X139647887Y-105179782D01*
X139647889Y-105179782D01*
X139773410Y-105107312D01*
X139773410Y-105107311D01*
X139773415Y-105107309D01*
X139875909Y-105004815D01*
X139948384Y-104879285D01*
X139985900Y-104739275D01*
X139985900Y-104594325D01*
X139948384Y-104454315D01*
X139948382Y-104454312D01*
X139948382Y-104454310D01*
X139875912Y-104328789D01*
X139875910Y-104328787D01*
X139875909Y-104328785D01*
X139773415Y-104226291D01*
X139773412Y-104226289D01*
X139773410Y-104226287D01*
X139647888Y-104153817D01*
X139647889Y-104153817D01*
X139618296Y-104145887D01*
X139507875Y-104116300D01*
X139507874Y-104116300D01*
X139456945Y-104116300D01*
X139398754Y-104097393D01*
X139386941Y-104087304D01*
X139305363Y-104005726D01*
X139305363Y-104005725D01*
X139219741Y-103956291D01*
X139219737Y-103956289D01*
X139132794Y-103932992D01*
X139132789Y-103932992D01*
X139124236Y-103930700D01*
X139124235Y-103930700D01*
X117972232Y-103930700D01*
X117914041Y-103911793D01*
X117902229Y-103901704D01*
X117866216Y-103865692D01*
X117866210Y-103865687D01*
X117740688Y-103793217D01*
X117740689Y-103793217D01*
X117711096Y-103785287D01*
X117600675Y-103755700D01*
X117455725Y-103755700D01*
X117393990Y-103772241D01*
X117315710Y-103793217D01*
X117190189Y-103865687D01*
X117087687Y-103968189D01*
X117015217Y-104093710D01*
X116977700Y-104233725D01*
X100500500Y-104233725D01*
X100500500Y-100599500D01*
X100519407Y-100541309D01*
X100568907Y-100505345D01*
X100599500Y-100500500D01*
X149400500Y-100500500D01*
X149458691Y-100519407D01*
G37*
%TD.AperFunction*%
%TD*%
M02*
